<svg width="140" height="41" viewBox="0 0 140 41" fill="none" xmlns="http://www.w3.org/2000/svg">
    <path d="M138.445 35.5805C138.445 37.7238 136.673 39.4599 134.481 39.4599H4.74305C2.55196 39.4599 0.773438 37.7238 0.773438 35.5805V4.64334C0.773438 2.50105 2.55196 0.75885 4.74305 0.75885H134.48C136.673 0.75885 138.444 2.50105 138.444 4.64334L138.445 35.5805Z" fill="black" />
    <path d="M134.062 0.805635C136.45 0.805635 138.392 2.69969 138.392 5.02735V35.1914C138.392 37.5191 136.45 39.4131 134.062 39.4131H5.15625C2.76891 39.4131 0.826289 37.5191 0.826289 35.1914V5.02735C0.826289 2.69969 2.76891 0.805635 5.15625 0.805635H134.062ZM134.062 4.26617e-06H5.15625C2.3216 4.26617e-06 0 2.26357 0 5.02735V35.1914C0 37.9552 2.3216 40.2188 5.15625 40.2188H134.062C136.897 40.2188 139.219 37.9552 139.219 35.1914V5.02735C139.219 2.26357 136.897 4.26617e-06 134.062 4.26617e-06Z" fill="#A6A6A6" />
    <path d="M31.0695 19.8922C31.0396 16.6516 33.791 15.075 33.9168 15.0016C32.3586 12.7866 29.9434 12.4839 29.0947 12.4598C27.0662 12.2516 25.0986 13.6432 24.0653 13.6432C23.0113 13.6432 21.4201 12.4799 19.7052 12.5141C17.4983 12.5473 15.4337 13.793 14.3014 15.7275C11.9646 19.672 13.7074 25.4685 15.9463 28.6569C17.0662 30.2184 18.3748 31.9618 20.0878 31.9005C21.7635 31.8331 22.3895 30.8588 24.4118 30.8588C26.4155 30.8588 27.0033 31.9005 28.7503 31.8613C30.5488 31.8331 31.6811 30.2928 32.7618 28.7172C34.056 26.9275 34.5758 25.1649 34.5964 25.0744C34.5541 25.0603 31.1036 23.7763 31.0695 19.8922Z" fill="white" />
    <path d="M27.7695 10.3624C28.6708 9.26339 29.2875 7.76826 29.1163 6.25101C27.8118 6.30731 26.1804 7.13079 25.2409 8.20564C24.4097 9.15279 23.6672 10.7052 23.859 12.1652C25.3244 12.2718 26.829 11.4443 27.7695 10.3624Z" fill="white" />
    <path d="M55.3213 31.6763H52.9793L51.6965 27.7459H47.2373L46.0153 31.6763H43.7352L48.1531 18.2955H50.8818L55.3213 31.6763ZM51.3097 26.097L50.1496 22.603C50.0269 22.246 49.7969 21.4054 49.4576 20.0823H49.4164C49.2813 20.6513 49.0637 21.4919 48.7646 22.603L47.6251 26.097H51.3097V26.097Z" fill="white" />
    <path d="M66.6825 26.7334C66.6825 28.3744 66.2277 29.6714 65.3182 30.6236C64.5035 31.4712 63.4918 31.8945 62.2842 31.8945C60.9807 31.8945 60.0444 31.438 59.4741 30.5251H59.4328V35.6077H57.2342V25.2041C57.2342 24.1725 57.2064 23.1138 57.1527 22.0279H59.0863L59.209 23.5572H59.2503C59.9835 22.4049 61.0962 21.8298 62.5895 21.8298C63.7569 21.8298 64.7314 22.2792 65.511 23.1791C66.2927 24.08 66.6825 25.2645 66.6825 26.7334ZM64.4426 26.8119C64.4426 25.8728 64.2261 25.0986 63.7909 24.4892C63.3155 23.8538 62.6771 23.5361 61.8769 23.5361C61.3345 23.5361 60.8415 23.713 60.4012 24.0619C59.9598 24.4138 59.671 24.8733 59.536 25.4424C59.4679 25.7079 59.4339 25.925 59.4339 26.096V27.7047C59.4339 28.4065 59.6545 28.9988 60.0959 29.4824C60.5373 29.966 61.1107 30.2073 61.816 30.2073C62.6441 30.2073 63.2887 29.8956 63.7496 29.2743C64.2116 28.6519 64.4426 27.8314 64.4426 26.8119Z" fill="white" />
    <path d="M78.0646 26.7334C78.0646 28.3744 77.6098 29.6714 76.6992 30.6236C75.8855 31.4712 74.8739 31.8945 73.6663 31.8945C72.3628 31.8945 71.4264 31.438 70.8572 30.5251H70.8159V35.6077H68.6173V25.2041C68.6173 24.1725 68.5895 23.1138 68.5358 22.0279H70.4694L70.5921 23.5572H70.6334C71.3656 22.4049 72.4783 21.8298 73.9726 21.8298C75.1389 21.8298 76.1135 22.2792 76.8951 23.1791C77.6737 24.08 78.0646 25.2645 78.0646 26.7334ZM75.8247 26.8119C75.8247 25.8728 75.6071 25.0986 75.1719 24.4892C74.6965 23.8538 74.0602 23.5361 73.259 23.5361C72.7155 23.5361 72.2236 23.713 71.7822 24.0619C71.3408 24.4138 71.0531 24.8733 70.918 25.4424C70.851 25.7079 70.8159 25.925 70.8159 26.096V27.7047C70.8159 28.4065 71.0366 28.9988 71.4759 29.4824C71.9173 29.965 72.4907 30.2073 73.1981 30.2073C74.0262 30.2073 74.6707 29.8956 75.1317 29.2743C75.5937 28.6519 75.8247 27.8314 75.8247 26.8119Z" fill="white" />
    <path d="M90.7901 27.9239C90.7901 29.0621 90.3848 29.9882 89.5711 30.703C88.677 31.4843 87.4323 31.8744 85.8328 31.8744C84.3561 31.8744 83.1722 31.5969 82.2761 31.0409L82.7855 29.2542C83.7507 29.8233 84.8098 30.1088 85.9638 30.1088C86.7919 30.1088 87.4364 29.9258 87.8995 29.5618C88.3604 29.1979 88.5904 28.7092 88.5904 28.0999C88.5904 27.5569 88.4006 27.0994 88.0201 26.7284C87.6416 26.3574 87.0095 26.0125 86.1267 25.6938C83.7239 24.82 82.5236 23.5401 82.5236 21.8569C82.5236 20.7569 82.9443 19.855 83.7868 19.1532C84.6263 18.4504 85.7462 18.0995 87.1466 18.0995C88.3955 18.0995 89.4329 18.3116 90.261 18.7349L89.7114 20.4824C88.9379 20.0722 88.0634 19.8671 87.0848 19.8671C86.3113 19.8671 85.707 20.0531 85.2739 20.4231C84.9078 20.7539 84.7242 21.1571 84.7242 21.6347C84.7242 22.1636 84.9336 22.601 85.3543 22.9448C85.7204 23.2626 86.3856 23.6064 87.3508 23.9775C88.5316 24.441 89.3989 24.9829 89.9568 25.6043C90.5126 26.2237 90.7901 26.9989 90.7901 27.9239Z" fill="white" />
    <path d="M98.0594 23.6366H95.636V28.3211C95.636 29.5125 96.0629 30.1078 96.9188 30.1078C97.3117 30.1078 97.6376 30.0746 97.8954 30.0082L97.9563 31.6361C97.5231 31.7939 96.9529 31.8734 96.2465 31.8734C95.3781 31.8734 94.6996 31.615 94.2097 31.0992C93.722 30.5824 93.4765 29.7156 93.4765 28.498V23.6346H92.0328V22.0258H93.4765V20.2592L95.636 19.6237V22.0258H98.0594V23.6366Z" fill="white" />
    <path d="M108.994 26.7726C108.994 28.2557 108.558 29.4733 107.69 30.4255C106.78 31.4058 105.571 31.8945 104.064 31.8945C102.612 31.8945 101.456 31.4249 100.594 30.4858C99.732 29.5467 99.3009 28.3613 99.3009 26.9325C99.3009 25.4374 99.7444 24.2127 100.634 23.2605C101.522 22.3073 102.721 21.8307 104.227 21.8307C105.679 21.8307 106.848 22.3003 107.729 23.2404C108.573 24.1524 108.994 25.3298 108.994 26.7726ZM106.713 26.842C106.713 25.9522 106.518 25.189 106.123 24.5526C105.662 23.7824 105.003 23.3983 104.149 23.3983C103.265 23.3983 102.594 23.7834 102.133 24.5526C101.738 25.19 101.543 25.9652 101.543 26.8822C101.543 27.7721 101.738 28.5352 102.133 29.1707C102.608 29.9409 103.272 30.3249 104.129 30.3249C104.969 30.3249 105.628 29.9328 106.103 29.1506C106.508 28.502 106.713 27.7308 106.713 26.842Z" fill="white" />
    <path d="M116.14 23.9131C115.923 23.8739 115.691 23.8538 115.447 23.8538C114.674 23.8538 114.076 24.1383 113.655 24.7084C113.289 25.2112 113.105 25.8466 113.105 26.6138V31.6763H110.908L110.928 25.0664C110.928 23.9543 110.901 22.9418 110.846 22.0289H112.761L112.841 23.8749H112.902C113.134 23.2404 113.5 22.7297 114.001 22.3466C114.491 22.0017 115.02 21.8298 115.591 21.8298C115.794 21.8298 115.977 21.8438 116.14 21.869V23.9131Z" fill="white" />
    <path d="M125.973 26.3956C125.973 26.7797 125.947 27.1035 125.893 27.3679H119.297C119.323 28.3211 119.641 29.05 120.254 29.5528C120.81 30.0022 121.529 30.2274 122.411 30.2274C123.388 30.2274 124.279 30.0756 125.08 29.771L125.425 31.2591C124.488 31.6572 123.383 31.8553 122.107 31.8553C120.573 31.8553 119.368 31.4149 118.492 30.5351C117.617 29.6553 117.179 28.4739 117.179 26.9918C117.179 25.5369 117.586 24.3253 118.402 23.3591C119.256 22.3275 120.41 21.8117 121.862 21.8117C123.288 21.8117 124.368 22.3275 125.101 23.3591C125.681 24.1785 125.973 25.1921 125.973 26.3956ZM123.877 25.8396C123.891 25.2041 123.748 24.6551 123.45 24.1916C123.069 23.5954 122.485 23.2978 121.698 23.2978C120.979 23.2978 120.394 23.5883 119.948 24.1715C119.582 24.635 119.364 25.1911 119.297 25.8386H123.877V25.8396Z" fill="white" />
    <path d="M50.5829 10.0638C50.5829 11.2472 50.2188 12.1381 49.4918 12.7363C48.8184 13.2884 47.8614 13.5649 46.6218 13.5649C46.0072 13.5649 45.4813 13.5387 45.0409 13.4864V7.02026C45.6153 6.92977 46.2341 6.88351 46.9023 6.88351C48.0831 6.88351 48.9731 7.13388 49.5733 7.6346C50.2456 8.20068 50.5829 9.01008 50.5829 10.0638ZM49.4433 10.093C49.4433 9.3258 49.235 8.7376 48.8184 8.32737C48.4018 7.91814 47.7933 7.71303 46.992 7.71303C46.6517 7.71303 46.3619 7.73515 46.1217 7.7814V12.6971C46.2547 12.7172 46.4981 12.7263 46.8518 12.7263C47.6788 12.7263 48.3172 12.5021 48.7668 12.0536C49.2164 11.6052 49.4433 10.9516 49.4433 10.093Z" fill="white" />
    <path d="M56.6249 11.0974C56.6249 11.8264 56.4114 12.4236 55.9845 12.8922C55.5369 13.3738 54.944 13.6141 54.2035 13.6141C53.4899 13.6141 52.9217 13.3839 52.4978 12.9213C52.075 12.4598 51.8636 11.8777 51.8636 11.1759C51.8636 10.4419 52.0812 9.83959 52.5185 9.37204C52.9557 8.9045 53.5435 8.67023 54.284 8.67023C54.9976 8.67023 55.571 8.90048 56.0051 9.36199C56.4176 9.81043 56.6249 10.3896 56.6249 11.0974ZM55.5039 11.1316C55.5039 10.6942 55.407 10.3192 55.2142 10.0065C54.9873 9.62844 54.6645 9.43941 54.2448 9.43941C53.8106 9.43941 53.4806 9.62844 53.2537 10.0065C53.0599 10.3192 52.964 10.7003 52.964 11.1507C52.964 11.5881 53.0609 11.9631 53.2537 12.2758C53.4878 12.6539 53.8137 12.8429 54.2345 12.8429C54.647 12.8429 54.9708 12.6509 55.2038 12.2658C55.4039 11.947 55.5039 11.569 55.5039 11.1316Z" fill="white" />
    <path d="M64.7265 8.76672L63.2054 13.5065H62.2154L61.5853 11.4483C61.4255 10.9345 61.2956 10.4237 61.1945 9.91698H61.1749C61.0811 10.4378 60.9511 10.9476 60.7841 11.4483L60.1148 13.5065H59.1134L57.6831 8.76672H58.7938L59.3434 11.02C59.4764 11.5529 59.5858 12.0606 59.6734 12.5413H59.693C59.7734 12.1451 59.9065 11.6404 60.0942 11.03L60.7841 8.76773H61.6648L62.3258 10.9818C62.4856 11.5217 62.6156 12.0415 62.7156 12.5423H62.7455C62.8187 12.0546 62.9291 11.5348 63.0755 10.9818L63.6654 8.76773H64.7265V8.76672Z" fill="white" />
    <path d="M70.3293 13.5065H69.2485V10.7918C69.2485 9.95521 68.9227 9.53694 68.2688 9.53694C67.9481 9.53694 67.6893 9.65156 67.4882 9.88181C67.2892 10.1121 67.1881 10.3835 67.1881 10.6942V13.5055H66.1074V10.1211C66.1074 9.70485 66.094 9.25339 66.0682 8.76474H67.0179L67.0685 9.50577H67.0984C67.2242 9.27552 67.4119 9.08548 67.6584 8.93366C67.9512 8.75669 68.2792 8.66721 68.638 8.66721C69.0918 8.66721 69.4692 8.80998 69.7693 9.09654C70.1426 9.44745 70.3293 9.9713 70.3293 10.6671V13.5065V13.5065Z" fill="white" />
    <path d="M73.3095 13.5065H72.2298V6.59192H73.3095V13.5065Z" fill="white" />
    <path d="M79.6724 11.0974C79.6724 11.8264 79.459 12.4236 79.032 12.8922C78.5845 13.3738 77.9905 13.6141 77.2511 13.6141C76.5364 13.6141 75.9682 13.3839 75.5454 12.9213C75.1226 12.4598 74.9112 11.8777 74.9112 11.1759C74.9112 10.4419 75.1287 9.83959 75.566 9.37204C76.0032 8.9045 76.5911 8.67023 77.3305 8.67023C78.0451 8.67023 78.6175 8.90048 79.0527 9.36199C79.4652 9.81043 79.6724 10.3896 79.6724 11.0974ZM78.5504 11.1316C78.5504 10.6942 78.4535 10.3192 78.2607 10.0065C78.0348 9.62844 77.711 9.43941 77.2923 9.43941C76.8571 9.43941 76.5271 9.62844 76.3013 10.0065C76.1074 10.3192 76.0115 10.7003 76.0115 11.1507C76.0115 11.5881 76.1084 11.9631 76.3013 12.2758C76.5354 12.6539 76.8613 12.8429 77.282 12.8429C77.6945 12.8429 78.0173 12.6509 78.2503 12.2658C78.4514 11.947 78.5504 11.569 78.5504 11.1316Z" fill="white" />
    <path d="M84.9028 13.5065H83.9324L83.852 12.9606H83.8221C83.49 13.3959 83.0167 13.6141 82.4021 13.6141C81.9432 13.6141 81.5719 13.4703 81.2924 13.1848C81.0388 12.9254 80.9119 12.6026 80.9119 12.2195C80.9119 11.6404 81.1594 11.199 81.6575 10.8933C82.1546 10.5877 82.8537 10.4378 83.754 10.4449V10.3564C83.754 9.732 83.4178 9.42031 82.7444 9.42031C82.2649 9.42031 81.8421 9.53795 81.477 9.77122L81.2574 9.07945C81.7091 8.80697 82.267 8.67023 82.9249 8.67023C84.1954 8.67023 84.8327 9.32378 84.8327 10.6309V12.3764C84.8327 12.85 84.8564 13.227 84.9028 13.5065ZM83.7808 11.8777V11.1467C82.5887 11.1266 81.9927 11.4453 81.9927 12.1019C81.9927 12.3492 82.0607 12.5342 82.1999 12.6579C82.3392 12.7816 82.5165 12.8429 82.7279 12.8429C82.9651 12.8429 83.1868 12.7695 83.389 12.6237C83.5921 12.4769 83.7169 12.2909 83.7633 12.0627C83.7746 12.0114 83.7808 11.9491 83.7808 11.8777Z" fill="white" />
    <path d="M91.044 13.5065H90.0849L90.0344 12.7454H90.0045C89.6982 13.3245 89.1764 13.6141 88.4432 13.6141C87.8574 13.6141 87.3697 13.3899 86.9829 12.9415C86.5962 12.493 86.4034 11.9108 86.4034 11.196C86.4034 10.4288 86.6127 9.80741 87.0335 9.33283C87.4408 8.89042 87.9399 8.66922 88.5339 8.66922C89.1867 8.66922 89.6436 8.88338 89.9034 9.31272H89.9241V6.59192H91.0058V12.2296C91.0058 12.6911 91.0182 13.1164 91.044 13.5065ZM89.9241 11.5077V10.7174C89.9241 10.5806 89.9138 10.47 89.8942 10.3856C89.8333 10.1322 89.7023 9.91901 89.5033 9.74708C89.3022 9.57514 89.0599 9.48867 88.7804 9.48867C88.3772 9.48867 88.0616 9.64452 87.8296 9.95722C87.5996 10.2699 87.4831 10.6691 87.4831 11.1567C87.4831 11.6253 87.5934 12.0054 87.8152 12.298C88.0493 12.6096 88.3648 12.7655 88.7598 12.7655C89.1145 12.7655 89.3981 12.6358 89.6137 12.3754C89.822 12.1351 89.9241 11.8455 89.9241 11.5077Z" fill="white" />
    <path d="M100.287 11.0974C100.287 11.8264 100.074 12.4236 99.6467 12.8922C99.1991 13.3738 98.6072 13.6141 97.8657 13.6141C97.1531 13.6141 96.5849 13.3839 96.1601 12.9213C95.7372 12.4598 95.5258 11.8777 95.5258 11.1759C95.5258 10.4419 95.7434 9.83959 96.1807 9.37204C96.6179 8.9045 97.2057 8.67023 97.9472 8.67023C98.6598 8.67023 99.2342 8.90048 99.6673 9.36199C100.08 9.81043 100.287 10.3896 100.287 11.0974ZM99.1672 11.1316C99.1672 10.6942 99.0702 10.3192 98.8774 10.0065C98.6495 9.62844 98.3277 9.43941 97.907 9.43941C97.4739 9.43941 97.1439 9.62844 96.916 10.0065C96.7221 10.3192 96.6262 10.7003 96.6262 11.1507C96.6262 11.5881 96.7231 11.9631 96.916 12.2758C97.15 12.6539 97.4759 12.8429 97.8967 12.8429C98.3092 12.8429 98.634 12.6509 98.8671 12.2658C99.0661 11.947 99.1672 11.569 99.1672 11.1316Z" fill="white" />
    <path d="M106.098 13.5065H105.018V10.7918C105.018 9.95521 104.692 9.53694 104.038 9.53694C103.717 9.53694 103.458 9.65156 103.258 9.88181C103.058 10.1121 102.958 10.3835 102.958 10.6942V13.5055H101.876V10.1211C101.876 9.70485 101.864 9.25339 101.838 8.76474H102.787L102.837 9.50577H102.867C102.994 9.27552 103.182 9.08548 103.427 8.93366C103.721 8.75669 104.048 8.66721 104.408 8.66721C104.861 8.66721 105.238 8.80998 105.538 9.09654C105.912 9.44745 106.098 9.9713 106.098 10.6671V13.5065V13.5065Z" fill="white" />
    <path d="M113.372 9.55602H112.182V11.8585C112.182 12.4437 112.393 12.7363 112.812 12.7363C113.006 12.7363 113.166 12.7202 113.293 12.687L113.321 13.4864C113.108 13.5648 112.827 13.604 112.482 13.604C112.055 13.604 111.723 13.4773 111.482 13.224C111.241 12.9706 111.121 12.5443 111.121 11.946V9.55602H110.411V8.76672H111.121V7.898L112.181 7.5863V8.76572H113.371V9.55602H113.372Z" fill="white" />
    <path d="M119.093 13.5065H118.011V10.8119C118.011 9.96225 117.685 9.53694 117.033 9.53694C116.531 9.53694 116.189 9.78328 116.001 10.276C115.969 10.3795 115.951 10.5062 115.951 10.655V13.5055H114.871V6.59192H115.951V9.44846H115.971C116.312 8.92863 116.799 8.66922 117.432 8.66922C117.879 8.66922 118.249 8.81199 118.543 9.09855C118.909 9.45549 119.093 9.98638 119.093 10.6882V13.5065V13.5065Z" fill="white" />
    <path d="M124.995 10.9124C124.995 11.1014 124.98 11.2603 124.954 11.39H121.713C121.728 11.8586 121.882 12.2155 122.182 12.4628C122.457 12.684 122.811 12.7946 123.244 12.7946C123.723 12.7946 124.16 12.7202 124.554 12.5704L124.723 13.3024C124.263 13.4975 123.72 13.595 123.092 13.595C122.339 13.595 121.746 13.3788 121.317 12.9465C120.886 12.5141 120.673 11.934 120.673 11.206C120.673 10.4911 120.872 9.89588 121.273 9.4213C121.692 8.91454 122.258 8.66116 122.972 8.66116C123.672 8.66116 124.203 8.91454 124.562 9.4213C124.851 9.82348 124.995 10.3212 124.995 10.9124ZM123.963 10.6399C123.972 10.3272 123.901 10.0578 123.754 9.83052C123.566 9.53793 123.281 9.39113 122.894 9.39113C122.541 9.39113 122.254 9.53391 122.034 9.82047C121.855 10.0487 121.748 10.3212 121.713 10.6399H123.963Z" fill="white" />
</svg>