<svg width="140" height="41" viewBox="0 0 140 41" fill="none" xmlns="http://www.w3.org/2000/svg">
    <path d="M133.878 41H5.14916C2.31841 41 0 38.7364 0 35.9727V5.8086C0 3.04482 2.31841 0.781254 5.14916 0.781254H133.878C136.709 0.781254 139.027 3.04482 139.027 5.8086V35.9727C139.027 38.7364 136.709 41 133.878 41Z" fill="black" />
    <path d="M133.878 1.58688C136.262 1.58688 138.202 3.48094 138.202 5.8086V35.9727C138.202 38.3003 136.262 40.1944 133.878 40.1944H5.14916C2.7651 40.1944 0.825153 38.3003 0.825153 35.9727V5.8086C0.825153 3.48094 2.7651 1.58688 5.14916 1.58688H133.878ZM133.878 0.781254H5.14916C2.31841 0.781254 0 3.04482 0 5.8086V35.9727C0 38.7364 2.31841 41 5.14916 41H133.878C136.709 41 139.027 38.7364 139.027 35.9727V5.8086C139.027 3.04482 136.709 0.781254 133.878 0.781254Z" fill="#A6A6A6" />
    <path d="M48.832 11.081C48.832 11.9206 48.5746 12.593 48.0674 13.0945C47.4842 13.689 46.7247 13.9881 45.794 13.9881C44.9045 13.9881 44.145 13.6839 43.5219 13.0844C42.8976 12.4761 42.5861 11.7296 42.5861 10.836C42.5861 9.94234 42.8976 9.19578 43.5219 8.5925C44.145 7.98796 44.9045 7.68381 45.794 7.68381C46.2368 7.68381 46.6591 7.77304 47.062 7.93895C47.4636 8.1061 47.7906 8.33233 48.0275 8.61135L47.4894 9.14174C47.0761 8.6654 46.5136 8.43037 45.794 8.43037C45.1452 8.43037 44.5827 8.65157 44.1051 9.09775C43.6326 9.54518 43.3958 10.1246 43.3958 10.836C43.3958 11.5473 43.6326 12.1317 44.1051 12.5792C44.5827 13.0203 45.1452 13.2466 45.794 13.2466C46.4827 13.2466 47.062 13.0203 47.519 12.5742C47.8202 12.2788 47.9914 11.8716 48.0365 11.3513H45.794V10.6248H48.7857C48.8217 10.7819 48.832 10.934 48.832 11.081V11.081Z" fill="white" stroke="white" stroke-width="0.12375" stroke-miterlimit="10" />
    <path d="M53.5783 8.5623H50.7682V10.4727H53.3016V11.1991H50.7682V13.1095H53.5783V13.8498H49.9726V7.82202H53.5783V8.5623Z" fill="white" stroke="white" stroke-width="0.12375" stroke-miterlimit="10" />
    <path d="M56.9278 13.8498H56.1323V8.5623H54.4086V7.82202H58.6528V8.5623H56.9278V13.8498V13.8498Z" fill="white" stroke="white" stroke-width="0.12375" stroke-miterlimit="10" />
    <path d="M61.7243 13.8498V7.82202H62.5186V13.8498H61.7243Z" fill="white" stroke="white" stroke-width="0.12375" stroke-miterlimit="10" />
    <path d="M66.0393 13.8498H65.2502V8.5623H63.5201V7.82202H67.7694V8.5623H66.0393V13.8498Z" fill="white" stroke="white" stroke-width="0.12375" stroke-miterlimit="10" />
    <path d="M75.8047 13.0744C75.1959 13.6839 74.4415 13.9881 73.5417 13.9881C72.6367 13.9881 71.8824 13.6839 71.2735 13.0744C70.6659 12.4661 70.3634 11.7195 70.3634 10.836C70.3634 9.9524 70.6659 9.20584 71.2735 8.59753C71.8824 7.98796 72.6367 7.68381 73.5417 7.68381C74.4364 7.68381 75.1907 7.98796 75.7996 8.60255C76.4123 9.21589 76.7149 9.95742 76.7149 10.836C76.7149 11.7195 76.4123 12.4661 75.8047 13.0744ZM71.8618 12.5691C72.32 13.0203 72.8774 13.2466 73.5417 13.2466C74.2008 13.2466 74.7633 13.0203 75.2165 12.5691C75.6734 12.1179 75.9051 11.5385 75.9051 10.836C75.9051 10.1334 75.6734 9.55398 75.2165 9.10278C74.7633 8.65157 74.2008 8.42534 73.5417 8.42534C72.8774 8.42534 72.32 8.65157 71.8618 9.10278C71.4048 9.55398 71.1731 10.1334 71.1731 10.836C71.1731 11.5385 71.4048 12.1179 71.8618 12.5691V12.5691Z" fill="white" stroke="white" stroke-width="0.12375" stroke-miterlimit="10" />
    <path d="M77.8309 13.8498V7.82202H78.7964L81.7984 12.51H81.8331L81.7984 11.3512V7.82202H82.5926V13.8498H81.7636L78.62 8.93055H78.5853L78.62 10.0944V13.8498H77.8309V13.8498Z" fill="white" stroke="white" stroke-width="0.12375" stroke-miterlimit="10" />
    <path d="M70.1676 22.6527C67.7488 22.6527 65.7728 24.45 65.7728 26.9297C65.7728 29.3894 67.7488 31.2055 70.1676 31.2055C72.5916 31.2055 74.5676 29.3894 74.5676 26.9297C74.5676 24.45 72.5916 22.6527 70.1676 22.6527ZM70.1676 29.5213C68.8404 29.5213 67.6986 28.4518 67.6986 26.9297C67.6986 25.3876 68.8404 24.3369 70.1676 24.3369C71.4948 24.3369 72.6418 25.3876 72.6418 26.9297C72.6418 28.4518 71.4948 29.5213 70.1676 29.5213V29.5213ZM60.5786 22.6527C58.1546 22.6527 56.1838 24.45 56.1838 26.9297C56.1838 29.3894 58.1546 31.2055 60.5786 31.2055C63.0013 31.2055 64.9734 29.3894 64.9734 26.9297C64.9734 24.45 63.0013 22.6527 60.5786 22.6527ZM60.5786 29.5213C59.2501 29.5213 58.1044 28.4518 58.1044 26.9297C58.1044 25.3876 59.2501 24.3369 60.5786 24.3369C61.9058 24.3369 63.0476 25.3876 63.0476 26.9297C63.0476 28.4518 61.9058 29.5213 60.5786 29.5213ZM49.1681 23.9636V25.781H53.6131C53.483 26.7965 53.1355 27.5431 52.6025 28.0634C51.9537 28.6918 50.9432 29.3894 49.1681 29.3894C46.4326 29.3894 44.2905 27.2339 44.2905 24.5631C44.2905 21.8924 46.4326 19.7369 49.1681 19.7369C50.6472 19.7369 51.7233 20.3012 52.5176 21.0327L53.8293 19.752C52.7184 18.7163 51.2406 17.9208 49.1681 17.9208C45.4169 17.9208 42.2643 20.9007 42.2643 24.5631C42.2643 28.2255 45.4169 31.2055 49.1681 31.2055C51.1955 31.2055 52.7184 30.557 53.9156 29.3404C55.1424 28.1426 55.5247 26.4584 55.5247 25.0985C55.5247 24.6762 55.4886 24.2879 55.4243 23.9636H49.1681ZM95.8272 25.3725C95.4654 24.4161 94.3494 22.6527 92.076 22.6527C89.8232 22.6527 87.9477 24.3859 87.9477 26.9297C87.9477 29.3253 89.8039 31.2055 92.2923 31.2055C94.3043 31.2055 95.4654 30.0077 95.943 29.3102L94.4498 28.3387C93.9516 29.05 93.2732 29.5213 92.2923 29.5213C91.3178 29.5213 90.6188 29.0852 90.1708 28.2255L96.0293 25.8589L95.8272 25.3725V25.3725ZM89.8541 26.7965C89.8039 25.1476 91.1659 24.303 92.1417 24.303C92.9063 24.303 93.5551 24.6762 93.7714 25.2104L89.8541 26.7965V26.7965ZM85.0925 30.9453H87.0182V18.377H85.0925V30.9453ZM81.9386 23.6054H81.8742C81.4417 23.1052 80.6166 22.6527 79.5713 22.6527C77.3777 22.6527 75.3721 24.533 75.3721 26.9436C75.3721 29.3404 77.3777 31.2055 79.5713 31.2055C80.6166 31.2055 81.4417 30.7493 81.8742 30.234H81.9386V30.8473C81.9386 32.4824 81.0439 33.361 79.6009 33.361C78.4243 33.361 77.6944 32.5315 77.3932 31.8339L75.7184 32.5164C76.2011 33.65 77.4794 35.0451 79.6009 35.0451C81.8588 35.0451 83.764 33.7481 83.764 30.5922V22.9129H81.9386V23.6054V23.6054ZM79.736 29.5213C78.4089 29.5213 77.2979 28.4367 77.2979 26.9436C77.2979 25.4366 78.4089 24.3369 79.736 24.3369C81.0439 24.3369 82.0751 25.4366 82.0751 26.9436C82.0751 28.4367 81.0439 29.5213 79.736 29.5213V29.5213ZM104.843 18.377H100.237V30.9453H102.158V26.1832H104.843C106.976 26.1832 109.068 24.6762 109.068 22.2795C109.068 19.8839 106.971 18.377 104.843 18.377V18.377ZM104.894 24.4349H102.158V20.1252H104.894C106.328 20.1252 107.146 21.2878 107.146 22.2795C107.146 23.2522 106.328 24.4349 104.894 24.4349ZM116.766 22.6289C115.379 22.6289 113.935 23.2271 113.342 24.5531L115.046 25.2506C115.413 24.5531 116.088 24.3268 116.801 24.3268C117.797 24.3268 118.808 24.9113 118.823 25.9431V26.0751C118.476 25.879 117.732 25.5887 116.816 25.5887C114.981 25.5887 113.11 26.5753 113.11 28.4166C113.11 30.1007 114.614 31.1854 116.304 31.1854C117.597 31.1854 118.31 30.616 118.758 29.9537H118.823V30.9252H120.678V26.104C120.678 23.8756 118.974 22.6289 116.766 22.6289ZM116.535 29.5163C115.906 29.5163 115.031 29.2122 115.031 28.4518C115.031 27.479 116.123 27.1057 117.067 27.1057C117.913 27.1057 118.31 27.2879 118.823 27.528C118.673 28.6918 117.647 29.5163 116.535 29.5163V29.5163ZM127.437 22.9041L125.229 28.3525H125.163L122.881 22.9041H120.81L124.239 30.518L122.282 34.7548H124.289L129.573 22.9041H127.437V22.9041ZM110.124 30.9453H112.05V18.377H110.124V30.9453Z" fill="white" />
    <path d="M10.7462 8.36123C10.4437 8.67041 10.2686 9.15178 10.2686 9.77517V32.0111C10.2686 32.6345 10.4437 33.1159 10.7462 33.425L10.8209 33.4929L23.5831 21.0377V20.7436L10.8209 8.28833L10.7462 8.36123Z" fill="url(#paint0_linear_9_37)" />
    <path d="M27.8326 25.1915L23.5832 21.0377V20.7436L27.8377 16.5897L27.933 16.6438L32.9714 19.4427C34.4093 20.2371 34.4093 21.5442 32.9714 22.3435L27.933 25.1375L27.8326 25.1915V25.1915Z" fill="url(#paint1_linear_9_37)" />
    <path d="M27.933 25.1375L23.5832 20.8907L10.7464 33.4251C11.2239 33.9153 12.0028 33.9743 12.8884 33.4842L27.933 25.1375" fill="url(#paint2_linear_9_37)" />
    <path d="M27.933 16.6438L12.8884 8.29713C12.0028 7.81199 11.2239 7.87106 10.7464 8.36123L23.5832 20.8906L27.933 16.6438Z" fill="url(#paint3_linear_9_37)" />
    <defs>
        <linearGradient id="paint0_linear_9_37" x1="22.4499" y1="32.2427" x2="5.5806" y2="14.9646" gradientUnits="userSpaceOnUse">
            <stop stop-color="#00A0FF" />
            <stop offset="0.0066" stop-color="#00A1FF" />
            <stop offset="0.2601" stop-color="#00BEFF" />
            <stop offset="0.5122" stop-color="#00D2FF" />
            <stop offset="0.7604" stop-color="#00DFFF" />
            <stop offset="1" stop-color="#00E3FF" />
        </linearGradient>
        <linearGradient id="paint1_linear_9_37" x1="34.8438" y1="20.8892" x2="9.92509" y2="20.8892" gradientUnits="userSpaceOnUse">
            <stop stop-color="#FFE000" />
            <stop offset="0.4087" stop-color="#FFBD00" />
            <stop offset="0.7754" stop-color="#FFA500" />
            <stop offset="1" stop-color="#FF9C00" />
        </linearGradient>
        <linearGradient id="paint2_linear_9_37" x1="25.5677" y1="18.582" x2="2.69151" y2="-4.84851" gradientUnits="userSpaceOnUse">
            <stop stop-color="#FF3A44" />
            <stop offset="1" stop-color="#C31162" />
        </linearGradient>
        <linearGradient id="paint3_linear_9_37" x1="7.51506" y1="40.8228" x2="17.7303" y2="30.3602" gradientUnits="userSpaceOnUse">
            <stop stop-color="#32A071" />
            <stop offset="0.0685" stop-color="#2DA771" />
            <stop offset="0.4762" stop-color="#15CF74" />
            <stop offset="0.8009" stop-color="#06E775" />
            <stop offset="1" stop-color="#00F076" />
        </linearGradient>
    </defs>
</svg>