<svg width="502" height="521" viewBox="0 0 502 521" fill="none" xmlns="http://www.w3.org/2000/svg">
    <circle cx="251" cy="270" r="240" stroke="#4D4E88" stroke-width="21" />
    <path d="M382.431 473.953L451.157 469.93C453.192 469.811 453.765 467.08 451.95 466.152L414.279 446.898C413.782 446.644 413.414 446.195 413.263 445.658L402.872 408.665C402.33 406.734 399.6 406.714 399.029 408.637L380.397 471.387C380.002 472.716 381.047 474.034 382.431 473.953Z" fill="#F3F6F7" />
    <path d="M218.627 30.0005L148.353 3.46519C146.383 2.72126 144.749 5.13528 146.172 6.68769L178.352 41.7935C178.762 42.2402 178.947 42.8485 178.855 43.4475L172.602 84.3019C172.294 86.3115 174.833 87.445 176.124 85.8744L219.466 33.1415C220.335 32.0835 219.908 30.4843 218.627 30.0005Z" fill="#F3F6F7" />
    <path d="M209.098 31.9586L166.474 15.7116C164.415 14.9267 162.786 17.5613 164.408 19.0527L186.475 39.3411C187.03 39.8517 187.251 40.6315 187.046 41.3575L179.09 69.5015C178.489 71.6301 181.277 73.0161 182.611 71.2513L209.981 35.0333C210.784 33.9701 210.343 32.4333 209.098 31.9586Z" fill="#52B4E6" />
    <path d="M392.384 468.651L435.297 465.538C437.495 465.378 437.857 462.302 435.757 461.636L408.931 453.137C408.212 452.909 407.682 452.295 407.561 451.551L403.161 424.473C402.806 422.289 399.693 422.212 399.231 424.375L390.284 466.238C390.005 467.541 391.055 468.747 392.384 468.651Z" fill="#52B4E6" />
    <path d="M63.8502 422.988L73.9309 492.164C74.2254 494.185 77.0036 494.517 77.7656 492.621L94.1714 451.817C94.3808 451.297 94.7993 450.888 95.3248 450.691L128.209 438.359C130.071 437.661 129.884 434.968 127.943 434.535L66.2656 420.748C64.898 420.442 63.6481 421.602 63.8502 422.988Z" fill="#F3F6F7" />
    <path d="M70.8857 433.348L77.8445 473.745C78.2185 475.917 81.3156 475.976 81.7721 473.82L87.3028 447.701C87.4591 446.963 88.0174 446.376 88.7466 446.183L113.886 439.515C116.024 438.948 115.796 435.842 113.597 435.594L73.081 431.021C71.7567 430.872 70.6595 432.035 70.8857 433.348Z" fill="#52B4E6" />
</svg>