<svg width="355" height="215" viewBox="0 0 355 215" fill="none" xmlns="http://www.w3.org/2000/svg">
    <g filter="url(#filter0_d_4_9)">
        <rect x="58" y="16" width="188.654" height="67.7093" rx="2.45243" fill="white" shape-rendering="crispEdges" />
        <path d="M78.0293 38.3271H76.3384L75.39 34.6485C75.3549 34.5175 75.2942 34.2477 75.208 33.839C75.125 33.427 75.0771 33.1508 75.0643 33.0103C75.0452 33.1827 74.9973 33.4606 74.9206 33.8438C74.844 34.2238 74.7849 34.4952 74.7434 34.658L73.7998 38.3271H72.1137L70.3271 31.3243H71.788L72.6837 35.1466C72.8402 35.8523 72.9536 36.4638 73.0238 36.9811C73.043 36.7991 73.0861 36.5181 73.1531 36.1381C73.2234 35.7549 73.2889 35.458 73.3495 35.2472L74.3698 31.3243H75.7732L76.7935 35.2472C76.8382 35.4228 76.8941 35.6911 76.9611 36.0519C77.0282 36.4127 77.0793 36.7225 77.1144 36.9811C77.1463 36.7321 77.1974 36.4223 77.2677 36.0519C77.3379 35.6783 77.4018 35.3765 77.4593 35.1466L78.3502 31.3243H79.8111L78.0293 38.3271ZM85.5207 38.3271H84.0598V35.1993C84.0598 34.4265 83.7724 34.0401 83.1976 34.0401C82.7888 34.0401 82.4935 34.179 82.3114 34.4569C82.1294 34.7347 82.0384 35.1849 82.0384 35.8076V38.3271H80.5775V30.874H82.0384V32.3924C82.0384 32.5106 82.0272 32.7884 82.0049 33.2259L81.9714 33.6569H82.048C82.3737 33.1333 82.891 32.8714 83.5999 32.8714C84.229 32.8714 84.7064 33.0406 85.0321 33.3791C85.3578 33.7176 85.5207 34.203 85.5207 34.8353V38.3271ZM90.4255 38.3271L90.1429 37.599H90.1046C89.8587 37.9088 89.6049 38.1243 89.343 38.2457C89.0844 38.3638 88.7459 38.4229 88.3276 38.4229C87.8134 38.4229 87.4079 38.276 87.1109 37.9822C86.8171 37.6885 86.6703 37.2701 86.6703 36.7273C86.6703 36.1589 86.8682 35.7406 87.2642 35.4723C87.6634 35.2009 88.2637 35.0508 89.0652 35.0221L89.9945 34.9933V34.7586C89.9945 34.2158 89.7166 33.9443 89.161 33.9443C88.7331 33.9443 88.2302 34.0737 87.6522 34.3323L87.1684 33.3456C87.7847 33.0231 88.4681 32.8618 89.2185 32.8618C89.937 32.8618 90.4878 33.0183 90.871 33.3312C91.2542 33.6442 91.4458 34.12 91.4458 34.7586V38.3271H90.4255ZM89.9945 35.8459L89.4292 35.8651C89.0045 35.8779 88.6884 35.9545 88.4808 36.095C88.2733 36.2355 88.1695 36.4495 88.1695 36.7369C88.1695 37.1488 88.4058 37.3548 88.8784 37.3548C89.2169 37.3548 89.4867 37.2574 89.6879 37.0626C89.8923 36.8678 89.9945 36.6091 89.9945 36.2866V35.8459ZM95.2107 37.259C95.4661 37.259 95.7727 37.2031 96.1303 37.0913V38.1786C95.7663 38.3415 95.3192 38.4229 94.7891 38.4229C94.2048 38.4229 93.7785 38.276 93.5102 37.9822C93.2452 37.6853 93.1127 37.2414 93.1127 36.6506V34.0689H92.4134V33.451L93.2181 32.9624L93.6396 31.832H94.5736V32.972H96.0728V34.0689H94.5736V36.6506C94.5736 36.8582 94.6311 37.0115 94.746 37.1105C94.8642 37.2095 95.0191 37.259 95.2107 37.259ZM99.7036 31.5877C99.7036 31.1119 99.9686 30.874 100.499 30.874C101.029 30.874 101.294 31.1119 101.294 31.5877C101.294 31.8144 101.227 31.9917 101.093 32.1194C100.962 32.2439 100.764 32.3062 100.499 32.3062C99.9686 32.3062 99.7036 32.0667 99.7036 31.5877ZM101.227 38.3271H99.7659V32.972H101.227V38.3271ZM106.5 36.7369C106.5 37.2861 106.309 37.7044 105.926 37.9918C105.546 38.2792 104.976 38.4229 104.216 38.4229C103.826 38.4229 103.494 38.3958 103.219 38.3415C102.945 38.2904 102.688 38.2137 102.448 38.1116V36.9045C102.72 37.0322 103.025 37.1392 103.363 37.2254C103.705 37.3116 104.005 37.3548 104.264 37.3548C104.794 37.3548 105.059 37.2015 105.059 36.8949C105.059 36.78 105.024 36.6874 104.953 36.6171C104.883 36.5437 104.762 36.4622 104.589 36.3728C104.417 36.2802 104.187 36.1732 103.9 36.0519C103.488 35.8795 103.184 35.7198 102.989 35.5729C102.798 35.426 102.657 35.2584 102.568 35.07C102.482 34.8784 102.439 34.6437 102.439 34.3659C102.439 33.8901 102.622 33.5228 102.989 33.2642C103.36 33.0023 103.884 32.8714 104.561 32.8714C105.206 32.8714 105.833 33.0119 106.443 33.2929L106.002 34.3467C105.734 34.2317 105.483 34.1375 105.25 34.0641C105.017 33.9906 104.779 33.9539 104.537 33.9539C104.106 33.9539 103.89 34.0705 103.89 34.3036C103.89 34.4345 103.959 34.5479 104.096 34.6437C104.236 34.7395 104.541 34.8816 105.011 35.07C105.429 35.2392 105.736 35.3973 105.93 35.5442C106.125 35.6911 106.269 35.8603 106.362 36.0519C106.454 36.2435 106.5 36.4718 106.5 36.7369ZM109.422 32.972H111.022L112.033 35.9848C112.119 36.2467 112.178 36.5564 112.21 36.9141H112.239C112.274 36.5852 112.343 36.2754 112.445 35.9848L113.436 32.972H115.003L112.737 39.0121C112.529 39.5709 112.232 39.9892 111.846 40.267C111.463 40.5448 111.014 40.6837 110.5 40.6837C110.248 40.6837 110 40.6566 109.758 40.6023V39.4432C109.933 39.4847 110.125 39.5054 110.332 39.5054C110.591 39.5054 110.816 39.4256 111.008 39.2659C111.203 39.1095 111.354 38.8716 111.463 38.5522L111.549 38.2888L109.422 32.972ZM116.938 35.64C116.938 36.1701 117.024 36.5708 117.196 36.8422C117.372 37.1137 117.656 37.2494 118.049 37.2494C118.439 37.2494 118.718 37.1153 118.887 36.847C119.06 36.5756 119.146 36.1732 119.146 35.64C119.146 35.1099 119.06 34.7123 118.887 34.4473C118.715 34.1822 118.432 34.0497 118.039 34.0497C117.65 34.0497 117.369 34.1822 117.196 34.4473C117.024 34.7091 116.938 35.1067 116.938 35.64ZM120.64 35.64C120.64 36.5117 120.41 37.1935 119.951 37.6853C119.491 38.177 118.85 38.4229 118.03 38.4229C117.516 38.4229 117.062 38.3111 116.669 38.0876C116.277 37.8609 115.975 37.5368 115.764 37.1153C115.553 36.6937 115.448 36.202 115.448 35.64C115.448 34.765 115.676 34.0848 116.133 33.5995C116.59 33.1141 117.231 32.8714 118.059 32.8714C118.573 32.8714 119.026 32.9832 119.419 33.2067C119.812 33.4302 120.113 33.7512 120.324 34.1695C120.535 34.5878 120.64 35.078 120.64 35.64ZM125.641 38.3271L125.445 37.6422H125.368C125.211 37.8912 124.989 38.0844 124.702 38.2217C124.415 38.3558 124.087 38.4229 123.72 38.4229C123.091 38.4229 122.617 38.2553 122.298 37.92C121.978 37.5815 121.819 37.0961 121.819 36.4638V32.972H123.279V36.0998C123.279 36.4862 123.348 36.7768 123.485 36.9716C123.623 37.1632 123.842 37.259 124.142 37.259C124.55 37.259 124.846 37.1232 125.028 36.8518C125.21 36.5772 125.301 36.1238 125.301 35.4915V32.972H126.762V38.3271H125.641ZM131.283 32.8714C131.481 32.8714 131.646 32.8858 131.777 32.9145L131.667 34.2844C131.548 34.2525 131.405 34.2365 131.236 34.2365C130.769 34.2365 130.405 34.3563 130.143 34.5958C129.885 34.8353 129.755 35.1706 129.755 35.6017V38.3271H128.295V32.972H129.401L129.617 33.8725H129.688C129.854 33.5723 130.078 33.3312 130.359 33.1492C130.643 32.964 130.951 32.8714 131.283 32.8714ZM138.277 32.8714C138.909 32.8714 139.404 33.1189 139.762 33.6138C140.119 34.1056 140.298 34.781 140.298 35.64C140.298 36.5245 140.113 37.2095 139.742 37.6948C139.375 38.1802 138.874 38.4229 138.238 38.4229C137.609 38.4229 137.116 38.1946 136.758 37.7379H136.658L136.413 38.3271H135.297V30.874H136.758V32.608C136.758 32.8283 136.739 33.1812 136.701 33.6665H136.758C137.1 33.1364 137.606 32.8714 138.277 32.8714ZM137.807 34.0401C137.446 34.0401 137.183 34.1519 137.017 34.3754C136.851 34.5958 136.765 34.9614 136.758 35.4723V35.6304C136.758 36.2052 136.843 36.6171 137.012 36.8662C137.185 37.1153 137.456 37.2398 137.826 37.2398C138.127 37.2398 138.365 37.1025 138.54 36.8279C138.719 36.5501 138.808 36.1477 138.808 35.6208C138.808 35.0939 138.719 34.6996 138.54 34.4377C138.361 34.1727 138.117 34.0401 137.807 34.0401ZM141.443 31.5877C141.443 31.1119 141.708 30.874 142.238 30.874C142.768 30.874 143.033 31.1119 143.033 31.5877C143.033 31.8144 142.966 31.9917 142.832 32.1194C142.701 32.2439 142.503 32.3062 142.238 32.3062C141.708 32.3062 141.443 32.0667 141.443 31.5877ZM142.966 38.3271H141.505V32.972H142.966V38.3271ZM147.492 32.8714C147.69 32.8714 147.855 32.8858 147.986 32.9145L147.876 34.2844C147.758 34.2525 147.614 34.2365 147.445 34.2365C146.978 34.2365 146.614 34.3563 146.352 34.5958C146.094 34.8353 145.964 35.1706 145.964 35.6017V38.3271H144.504V32.972H145.61L145.826 33.8725H145.897C146.063 33.5723 146.287 33.3312 146.568 33.1492C146.852 32.964 147.16 32.8714 147.492 32.8714ZM151.214 37.259C151.47 37.259 151.776 37.2031 152.134 37.0913V38.1786C151.77 38.3415 151.323 38.4229 150.793 38.4229C150.208 38.4229 149.782 38.276 149.514 37.9822C149.249 37.6853 149.116 37.2414 149.116 36.6506V34.0689H148.417V33.451L149.222 32.9624L149.643 31.832H150.577V32.972H152.076V34.0689H150.577V36.6506C150.577 36.8582 150.635 37.0115 150.75 37.1105C150.868 37.2095 151.023 37.259 151.214 37.259ZM158.164 38.3271H156.703V35.1993C156.703 34.4265 156.416 34.0401 155.841 34.0401C155.433 34.0401 155.137 34.179 154.955 34.4569C154.773 34.7347 154.682 35.1849 154.682 35.8076V38.3271H153.221V30.874H154.682V32.3924C154.682 32.5106 154.671 32.7884 154.649 33.2259L154.615 33.6569H154.692C155.017 33.1333 155.535 32.8714 156.244 32.8714C156.873 32.8714 157.35 33.0406 157.676 33.3791C158.002 33.7176 158.164 34.203 158.164 34.8353V38.3271ZM163.912 38.4229C163.283 38.4229 162.788 38.1786 162.427 37.69C162.07 37.2015 161.891 36.5245 161.891 35.6591C161.891 34.781 162.073 34.0976 162.437 33.6091C162.804 33.1173 163.309 32.8714 163.951 32.8714C164.624 32.8714 165.138 33.1333 165.493 33.6569H165.541C165.467 33.2578 165.431 32.9017 165.431 32.5888V30.874H166.896V38.3271H165.776L165.493 37.6326H165.431C165.099 38.1595 164.592 38.4229 163.912 38.4229ZM164.425 37.259C164.798 37.259 165.071 37.1504 165.244 36.9332C165.419 36.7161 165.515 36.3473 165.531 35.8268V35.6687C165.531 35.0939 165.442 34.682 165.263 34.4329C165.087 34.1838 164.8 34.0593 164.401 34.0593C164.075 34.0593 163.821 34.1982 163.639 34.476C163.46 34.7506 163.371 35.1514 163.371 35.6783C163.371 36.2052 163.462 36.6011 163.644 36.8662C163.826 37.128 164.086 37.259 164.425 37.259ZM171.825 38.3271L171.543 37.599H171.504C171.258 37.9088 171.005 38.1243 170.743 38.2457C170.484 38.3638 170.146 38.4229 169.727 38.4229C169.213 38.4229 168.808 38.276 168.511 37.9822C168.217 37.6885 168.07 37.2701 168.07 36.7273C168.07 36.1589 168.268 35.7406 168.664 35.4723C169.063 35.2009 169.663 35.0508 170.465 35.0221L171.394 34.9933V34.7586C171.394 34.2158 171.116 33.9443 170.561 33.9443C170.133 33.9443 169.63 34.0737 169.052 34.3323L168.568 33.3456C169.184 33.0231 169.868 32.8618 170.618 32.8618C171.337 32.8618 171.887 33.0183 172.271 33.3312C172.654 33.6442 172.845 34.12 172.845 34.7586V38.3271H171.825ZM171.394 35.8459L170.829 35.8651C170.404 35.8779 170.088 35.9545 169.88 36.095C169.673 36.2355 169.569 36.4495 169.569 36.7369C169.569 37.1488 169.805 37.3548 170.278 37.3548C170.617 37.3548 170.886 37.2574 171.088 37.0626C171.292 36.8678 171.394 36.6091 171.394 36.2866V35.8459ZM176.61 37.259C176.866 37.259 177.172 37.2031 177.53 37.0913V38.1786C177.166 38.3415 176.719 38.4229 176.189 38.4229C175.604 38.4229 175.178 38.276 174.91 37.9822C174.645 37.6853 174.512 37.2414 174.512 36.6506V34.0689H173.813V33.451L174.618 32.9624L175.039 31.832H175.973V32.972H177.472V34.0689H175.973V36.6506C175.973 36.8582 176.031 37.0115 176.146 37.1105C176.264 37.2095 176.419 37.259 176.61 37.259ZM180.835 33.9108C180.525 33.9108 180.283 34.0098 180.107 34.2078C179.931 34.4026 179.831 34.6804 179.805 35.0412H181.855C181.849 34.6804 181.755 34.4026 181.573 34.2078C181.391 34.0098 181.145 33.9108 180.835 33.9108ZM181.041 38.4229C180.179 38.4229 179.505 38.185 179.02 37.7092C178.534 37.2334 178.292 36.5596 178.292 35.6879C178.292 34.7906 178.515 34.0976 178.962 33.6091C179.412 33.1173 180.033 32.8714 180.825 32.8714C181.582 32.8714 182.171 33.087 182.593 33.518C183.014 33.9491 183.225 34.5447 183.225 35.3047V36.0136H179.772C179.788 36.4287 179.911 36.7528 180.14 36.9859C180.37 37.219 180.693 37.3356 181.108 37.3356C181.431 37.3356 181.735 37.3021 182.023 37.235C182.31 37.1679 182.61 37.061 182.923 36.9141V38.0445C182.668 38.1722 182.395 38.2664 182.104 38.3271C181.814 38.391 181.459 38.4229 181.041 38.4229ZM184.969 36.004V35.6495C184.969 35.343 185.034 35.0764 185.165 34.8496C185.296 34.6229 185.535 34.3818 185.884 34.1264C186.219 33.8869 186.439 33.6921 186.545 33.542C186.653 33.3919 186.707 33.2243 186.707 33.0391C186.707 32.8315 186.631 32.6734 186.478 32.5649C186.324 32.4563 186.11 32.402 185.836 32.402C185.357 32.402 184.811 32.5585 184.198 32.8714L183.675 31.8224C184.388 31.4233 185.143 31.2237 185.941 31.2237C186.599 31.2237 187.121 31.3817 187.507 31.6979C187.897 32.014 188.092 32.4355 188.092 32.9624C188.092 33.3137 188.012 33.617 187.852 33.8725C187.693 34.128 187.389 34.4154 186.942 34.7347C186.636 34.9614 186.441 35.1338 186.358 35.252C186.278 35.3701 186.238 35.525 186.238 35.7166V36.004H184.969ZM184.815 37.6422C184.815 37.3739 184.887 37.1711 185.031 37.0338C185.175 36.8965 185.384 36.8279 185.658 36.8279C185.923 36.8279 186.128 36.8981 186.272 37.0386C186.418 37.1791 186.492 37.3803 186.492 37.6422C186.492 37.8944 186.418 38.094 186.272 38.2409C186.125 38.3846 185.92 38.4564 185.658 38.4564C185.39 38.4564 185.183 38.3862 185.036 38.2457C184.889 38.102 184.815 37.9008 184.815 37.6422Z" fill="#565656" />
        <rect x="70.3271" y="51.1368" width="147" height="20.2453" rx="1.96195" fill="#FAFAFA" />
        <path d="M79.8929 62.9673C79.9696 64.1185 80.9267 64.8678 82.308 64.8678C83.8068 64.8678 84.7458 64.123 84.7458 62.9312C84.7458 61.9967 84.1995 61.4776 82.8498 61.139L82.1681 60.9584C81.2833 60.7282 80.9221 60.4348 80.9221 59.9427C80.9221 59.3062 81.509 58.8683 82.3532 58.8683C83.2019 58.8683 83.7662 59.2972 83.8384 59.9969H84.651C84.6149 58.9044 83.6759 58.137 82.3803 58.137C81.026 58.137 80.078 58.8954 80.078 59.9788C80.078 60.8636 80.6107 61.3918 81.8115 61.6988L82.6466 61.9155C83.5224 62.1412 83.9061 62.4798 83.9061 63.0305C83.9061 63.6715 83.2651 64.1365 82.3848 64.1365C81.4548 64.1365 80.7867 63.6715 80.71 62.9673H79.8929ZM87.4544 60.665C88.1947 60.665 88.6868 61.2248 88.7048 62.0103H86.1542C86.2039 61.2293 86.7185 60.665 87.4544 60.665ZM88.6868 63.4142C88.5559 63.8566 88.118 64.1591 87.5221 64.1591C86.6779 64.1591 86.1497 63.5677 86.1497 62.6694V62.6242H89.5174V62.3263C89.5174 60.9043 88.7364 59.9833 87.4679 59.9833C86.1723 59.9833 85.3417 60.972 85.3417 62.4301C85.3417 63.9063 86.1588 64.8408 87.504 64.8408C88.5288 64.8408 89.3233 64.2358 89.4587 63.4142H88.6868ZM90.3526 64.7595H91.138V58.2453H90.3526V64.7595ZM94.0814 60.665C94.8217 60.665 95.3138 61.2248 95.3319 62.0103H92.7813C92.8309 61.2293 93.3456 60.665 94.0814 60.665ZM95.3138 63.4142C95.1829 63.8566 94.745 64.1591 94.1491 64.1591C93.3049 64.1591 92.7767 63.5677 92.7767 62.6694V62.6242H96.1444V62.3263C96.1444 60.9043 95.3635 59.9833 94.0949 59.9833C92.7993 59.9833 91.9687 60.972 91.9687 62.4301C91.9687 63.9063 92.7858 64.8408 94.131 64.8408C95.1558 64.8408 95.9503 64.2358 96.0857 63.4142H95.3138ZM100.839 61.604C100.74 60.7598 100.04 59.9833 98.8666 59.9833C97.571 59.9833 96.7087 60.9314 96.7087 62.412C96.7087 63.9243 97.5755 64.8408 98.8756 64.8408C99.941 64.8408 100.726 64.1817 100.848 63.2472H100.076C99.941 63.8115 99.5211 64.1501 98.8801 64.1501C98.0675 64.1501 97.5078 63.5045 97.5078 62.412C97.5078 61.3467 98.0585 60.674 98.8711 60.674C99.5618 60.674 99.959 61.0939 100.072 61.604H100.839ZM101.823 58.9315V60.0646H101.124V60.7102H101.823V63.5406C101.823 64.4435 102.158 64.7956 103.02 64.7956C103.205 64.7956 103.422 64.7821 103.516 64.7595V64.1004C103.462 64.1094 103.282 64.123 103.191 64.123C102.79 64.123 102.609 63.9289 102.609 63.5V60.7102H103.521V60.0646H102.609V58.9315H101.823ZM106.645 66.5156C107.493 66.5156 107.882 66.186 108.283 65.089L110.13 60.0646H109.304L108.004 63.974H107.99L106.69 60.0646H105.85L107.584 64.764L107.475 65.0936C107.295 65.6398 107.051 65.852 106.613 65.852C106.514 65.852 106.392 65.8474 106.306 65.8294V66.4885C106.392 66.5065 106.55 66.5156 106.645 66.5156ZM112.563 64.8408C113.859 64.8408 114.734 63.9063 114.734 62.412C114.734 60.9133 113.859 59.9833 112.563 59.9833C111.263 59.9833 110.387 60.9133 110.387 62.412C110.387 63.9063 111.263 64.8408 112.563 64.8408ZM112.563 64.1501C111.732 64.1501 111.186 63.5181 111.186 62.412C111.186 61.306 111.732 60.674 112.563 60.674C113.394 60.674 113.935 61.306 113.935 62.412C113.935 63.5181 113.394 64.1501 112.563 64.1501ZM119.384 60.0646H118.599V62.8229C118.599 63.6219 118.138 64.1455 117.375 64.1455C116.648 64.1455 116.292 63.7347 116.292 62.9718V60.0646H115.506V63.1118C115.506 64.1771 116.107 64.8408 117.132 64.8408C117.854 64.8408 118.341 64.5383 118.621 63.9966H118.639V64.7595H119.384V60.0646ZM120.404 64.7595H121.19V61.8342C121.19 61.1706 121.587 60.7327 122.197 60.7327C122.386 60.7327 122.553 60.7553 122.616 60.7779V60.0149C122.553 60.0059 122.436 59.9833 122.3 59.9833C121.75 59.9833 121.316 60.3129 121.163 60.832H121.145V60.0646H120.404V64.7595ZM127.487 64.8408C128.688 64.8408 129.483 63.8882 129.483 62.412C129.483 60.9404 128.684 59.9833 127.501 59.9833C126.837 59.9833 126.291 60.3129 125.998 60.8501H125.98V58.2453H125.194V64.7595H125.943V63.965H125.962C126.264 64.5067 126.801 64.8408 127.487 64.8408ZM127.334 60.674C128.165 60.674 128.679 61.3467 128.679 62.412C128.679 63.4865 128.165 64.1501 127.334 64.1501C126.539 64.1501 125.975 63.4594 125.975 62.412C125.975 61.3692 126.539 60.674 127.334 60.674ZM130.322 64.7595H131.108V60.0646H130.322V64.7595ZM130.715 59.2746C130.986 59.2746 131.207 59.0534 131.207 58.787C131.207 58.5162 130.986 58.2995 130.715 58.2995C130.449 58.2995 130.228 58.5162 130.228 58.787C130.228 59.0534 130.449 59.2746 130.715 59.2746ZM132.169 64.7595H132.954V61.8342C132.954 61.1706 133.351 60.7327 133.961 60.7327C134.151 60.7327 134.318 60.7553 134.381 60.7779V60.0149C134.318 60.0059 134.2 59.9833 134.065 59.9833C133.514 59.9833 133.081 60.3129 132.927 60.832H132.909V60.0646H132.169V64.7595ZM135.275 58.9315V60.0646H134.575V60.7102H135.275V63.5406C135.275 64.4435 135.609 64.7956 136.471 64.7956C136.656 64.7956 136.873 64.7821 136.967 64.7595V64.1004C136.913 64.1094 136.733 64.123 136.642 64.123C136.241 64.123 136.06 63.9289 136.06 63.5V60.7102H136.972V60.0646H136.06V58.9315H135.275ZM137.852 64.7595H138.638V62.0238C138.638 61.2112 139.121 60.6786 139.902 60.6786C140.638 60.6786 141.012 61.1255 141.012 61.8703V64.7595H141.798V61.7259C141.798 60.6786 141.175 59.9833 140.146 59.9833C139.432 59.9833 138.918 60.2903 138.656 60.814H138.638V58.2453H137.852V64.7595ZM146.47 64.8408C147.147 64.8408 147.684 64.5067 147.987 63.965H148V64.7595H148.75V58.2453H147.964V60.8275H147.946C147.666 60.3129 147.125 59.9833 146.452 59.9833C145.269 59.9833 144.461 60.9404 144.461 62.412C144.461 63.8837 145.274 64.8408 146.47 64.8408ZM146.619 60.674C147.427 60.674 147.969 61.3647 147.969 62.412C147.969 63.4639 147.427 64.1501 146.619 64.1501C145.788 64.1501 145.265 63.4774 145.265 62.412C145.265 61.3512 145.788 60.674 146.619 60.674ZM151.359 64.1726C150.795 64.1726 150.42 63.8792 150.42 63.4323C150.42 62.9899 150.781 62.71 151.413 62.6694L152.668 62.5926V62.9763C152.668 63.6535 152.099 64.1726 151.359 64.1726ZM151.183 64.8408C151.815 64.8408 152.411 64.4886 152.691 63.9514H152.709V64.7595H153.454V61.5137C153.454 60.5792 152.759 59.9833 151.657 59.9833C150.547 59.9833 149.851 60.6063 149.797 61.4189H150.556C150.655 60.9584 151.034 60.674 151.639 60.674C152.289 60.674 152.668 61.0171 152.668 61.5904V61.9832L151.323 62.0599C150.24 62.1231 149.621 62.6287 149.621 63.4323C149.621 64.2765 150.249 64.8408 151.183 64.8408ZM154.704 58.9315V60.0646H154.004V60.7102H154.704V63.5406C154.704 64.4435 155.038 64.7956 155.9 64.7956C156.086 64.7956 156.302 64.7821 156.397 64.7595V64.1004C156.343 64.1094 156.162 64.123 156.072 64.123C155.67 64.123 155.49 63.9289 155.49 63.5V60.7102H156.402V60.0646H155.49V58.9315H154.704ZM158.988 60.665C159.729 60.665 160.221 61.2248 160.239 62.0103H157.688C157.738 61.2293 158.252 60.665 158.988 60.665ZM160.221 63.4142C160.09 63.8566 159.652 64.1591 159.056 64.1591C158.212 64.1591 157.684 63.5677 157.684 62.6694V62.6242H161.051V62.3263C161.051 60.9043 160.27 59.9833 159.002 59.9833C157.706 59.9833 156.876 60.972 156.876 62.4301C156.876 63.9063 157.693 64.8408 159.038 64.8408C160.063 64.8408 160.857 64.2358 160.993 63.4142H160.221Z" fill="#565656" />
        <path d="M202.686 59.788L205.384 62.731L208.082 59.788" stroke="#565656" stroke-width="0.980973" />
    </g>
    <g filter="url(#filter1_d_4_9)">
        <rect x="159" y="57" width="188.654" height="67.7093" rx="2.45243" fill="white" shape-rendering="crispEdges" />
        <path d="M179.029 79.3271H177.338L176.39 75.6485C176.355 75.5175 176.294 75.2477 176.208 74.839C176.125 74.427 176.077 74.1508 176.064 74.0103C176.045 74.1827 175.997 74.4606 175.921 74.8438C175.844 75.2238 175.785 75.4952 175.743 75.658L174.8 79.3271H173.114L171.327 72.3243H172.788L173.684 76.1466C173.84 76.8523 173.954 77.4638 174.024 77.9811C174.043 77.7991 174.086 77.5181 174.153 77.1381C174.223 76.7549 174.289 76.458 174.35 76.2472L175.37 72.3243H176.773L177.793 76.2472C177.838 76.4228 177.894 76.6911 177.961 77.0519C178.028 77.4127 178.079 77.7225 178.114 77.9811C178.146 77.7321 178.197 77.4223 178.268 77.0519C178.338 76.6783 178.402 76.3765 178.459 76.1466L179.35 72.3243H180.811L179.029 79.3271ZM186.521 79.3271H185.06V76.1993C185.06 75.4265 184.772 75.0401 184.198 75.0401C183.789 75.0401 183.493 75.179 183.311 75.4569C183.129 75.7347 183.038 76.1849 183.038 76.8076V79.3271H181.577V71.874H183.038V73.3924C183.038 73.5106 183.027 73.7884 183.005 74.2259L182.971 74.6569H183.048C183.374 74.1333 183.891 73.8714 184.6 73.8714C185.229 73.8714 185.706 74.0406 186.032 74.3791C186.358 74.7176 186.521 75.203 186.521 75.8353V79.3271ZM191.426 79.3271L191.143 78.599H191.105C190.859 78.9088 190.605 79.1243 190.343 79.2457C190.084 79.3638 189.746 79.4229 189.328 79.4229C188.813 79.4229 188.408 79.276 188.111 78.9822C187.817 78.6885 187.67 78.2701 187.67 77.7273C187.67 77.1589 187.868 76.7406 188.264 76.4723C188.663 76.2009 189.264 76.0508 190.065 76.0221L190.994 75.9933V75.7586C190.994 75.2158 190.717 74.9443 190.161 74.9443C189.733 74.9443 189.23 75.0737 188.652 75.3323L188.168 74.3456C188.785 74.0231 189.468 73.8618 190.218 73.8618C190.937 73.8618 191.488 74.0183 191.871 74.3312C192.254 74.6442 192.446 75.12 192.446 75.7586V79.3271H191.426ZM190.994 76.8459L190.429 76.8651C190.005 76.8779 189.688 76.9545 189.481 77.095C189.273 77.2355 189.169 77.4495 189.169 77.7369C189.169 78.1488 189.406 78.3548 189.878 78.3548C190.217 78.3548 190.487 78.2574 190.688 78.0626C190.892 77.8678 190.994 77.6091 190.994 77.2866V76.8459ZM196.211 78.259C196.466 78.259 196.773 78.2031 197.13 78.0913V79.1786C196.766 79.3415 196.319 79.4229 195.789 79.4229C195.205 79.4229 194.778 79.276 194.51 78.9822C194.245 78.6853 194.113 78.2414 194.113 77.6506V75.0689H193.413V74.451L194.218 73.9624L194.64 72.832H195.574V73.972H197.073V75.0689H195.574V77.6506C195.574 77.8582 195.631 78.0115 195.746 78.1105C195.864 78.2095 196.019 78.259 196.211 78.259ZM200.704 72.5877C200.704 72.1119 200.969 71.874 201.499 71.874C202.029 71.874 202.294 72.1119 202.294 72.5877C202.294 72.8144 202.227 72.9917 202.093 73.1194C201.962 73.2439 201.764 73.3062 201.499 73.3062C200.969 73.3062 200.704 73.0667 200.704 72.5877ZM202.227 79.3271H200.766V73.972H202.227V79.3271ZM207.5 77.7369C207.5 78.2861 207.309 78.7044 206.926 78.9918C206.546 79.2792 205.976 79.4229 205.216 79.4229C204.826 79.4229 204.494 79.3958 204.219 79.3415C203.945 79.2904 203.688 79.2137 203.448 79.1116V77.9045C203.72 78.0322 204.025 78.1392 204.363 78.2254C204.705 78.3116 205.005 78.3548 205.264 78.3548C205.794 78.3548 206.059 78.2015 206.059 77.8949C206.059 77.78 206.024 77.6874 205.953 77.6171C205.883 77.5437 205.762 77.4622 205.589 77.3728C205.417 77.2802 205.187 77.1732 204.9 77.0519C204.488 76.8795 204.184 76.7198 203.989 76.5729C203.798 76.426 203.657 76.2584 203.568 76.07C203.482 75.8784 203.439 75.6437 203.439 75.3659C203.439 74.8901 203.622 74.5228 203.989 74.2642C204.36 74.0023 204.884 73.8714 205.561 73.8714C206.206 73.8714 206.833 74.0119 207.443 74.2929L207.002 75.3467C206.734 75.2317 206.483 75.1375 206.25 75.0641C206.017 74.9906 205.779 74.9539 205.537 74.9539C205.106 74.9539 204.89 75.0705 204.89 75.3036C204.89 75.4345 204.959 75.5479 205.096 75.6437C205.236 75.7395 205.541 75.8816 206.011 76.07C206.429 76.2392 206.736 76.3973 206.93 76.5442C207.125 76.6911 207.269 76.8603 207.362 77.0519C207.454 77.2435 207.5 77.4718 207.5 77.7369ZM210.422 73.972H212.022L213.033 76.9848C213.119 77.2467 213.178 77.5564 213.21 77.9141H213.239C213.274 77.5852 213.343 77.2754 213.445 76.9848L214.436 73.972H216.003L213.737 80.0121C213.529 80.5709 213.232 80.9892 212.846 81.267C212.463 81.5448 212.014 81.6837 211.5 81.6837C211.248 81.6837 211 81.6566 210.758 81.6023V80.4432C210.933 80.4847 211.125 80.5054 211.332 80.5054C211.591 80.5054 211.816 80.4256 212.008 80.2659C212.203 80.1095 212.354 79.8716 212.463 79.5522L212.549 79.2888L210.422 73.972ZM217.938 76.64C217.938 77.1701 218.024 77.5708 218.196 77.8422C218.372 78.1137 218.656 78.2494 219.049 78.2494C219.439 78.2494 219.718 78.1153 219.887 77.847C220.06 77.5756 220.146 77.1732 220.146 76.64C220.146 76.1099 220.06 75.7123 219.887 75.4473C219.715 75.1822 219.432 75.0497 219.039 75.0497C218.65 75.0497 218.369 75.1822 218.196 75.4473C218.024 75.7091 217.938 76.1067 217.938 76.64ZM221.64 76.64C221.64 77.5117 221.41 78.1935 220.951 78.6853C220.491 79.177 219.85 79.4229 219.03 79.4229C218.516 79.4229 218.062 79.3111 217.669 79.0876C217.277 78.8609 216.975 78.5368 216.764 78.1153C216.553 77.6937 216.448 77.202 216.448 76.64C216.448 75.765 216.676 75.0848 217.133 74.5995C217.59 74.1141 218.231 73.8714 219.059 73.8714C219.573 73.8714 220.026 73.9832 220.419 74.2067C220.812 74.4302 221.113 74.7512 221.324 75.1695C221.535 75.5878 221.64 76.078 221.64 76.64ZM226.641 79.3271L226.445 78.6422H226.368C226.211 78.8912 225.989 79.0844 225.702 79.2217C225.415 79.3558 225.087 79.4229 224.72 79.4229C224.091 79.4229 223.617 79.2553 223.298 78.92C222.978 78.5815 222.819 78.0961 222.819 77.4638V73.972H224.279V77.0998C224.279 77.4862 224.348 77.7768 224.485 77.9716C224.623 78.1632 224.842 78.259 225.142 78.259C225.55 78.259 225.846 78.1232 226.028 77.8518C226.21 77.5772 226.301 77.1238 226.301 76.4915V73.972H227.762V79.3271H226.641ZM232.283 73.8714C232.481 73.8714 232.646 73.8858 232.777 73.9145L232.667 75.2844C232.548 75.2525 232.405 75.2365 232.236 75.2365C231.769 75.2365 231.405 75.3563 231.143 75.5958C230.885 75.8353 230.755 76.1706 230.755 76.6017V79.3271H229.295V73.972H230.401L230.617 74.8725H230.688C230.854 74.5723 231.078 74.3312 231.359 74.1492C231.643 73.964 231.951 73.8714 232.283 73.8714ZM240.958 73.972V74.7144L240.12 74.93C240.273 75.1695 240.35 75.4377 240.35 75.7347C240.35 76.3095 240.148 76.7581 239.746 77.0806C239.347 77.4 238.791 77.5596 238.079 77.5596L237.816 77.5453L237.6 77.5213C237.45 77.6363 237.375 77.764 237.375 77.9045C237.375 78.1153 237.643 78.2206 238.18 78.2206H239.09C239.677 78.2206 240.125 78.3468 240.431 78.599C240.741 78.8513 240.896 79.2217 240.896 79.7103C240.896 80.3362 240.634 80.8216 240.11 81.1664C239.59 81.5113 238.841 81.6837 237.864 81.6837C237.116 81.6837 236.545 81.5528 236.149 81.291C235.756 81.0323 235.56 80.6683 235.56 80.1989C235.56 79.8763 235.66 79.6065 235.861 79.3894C236.063 79.1722 236.358 79.0174 236.748 78.9248C236.598 78.8609 236.467 78.7571 236.355 78.6134C236.243 78.4665 236.187 78.3116 236.187 78.1488C236.187 77.9444 236.246 77.7752 236.364 77.6411C236.483 77.5037 236.653 77.3696 236.877 77.2387C236.596 77.1174 236.372 76.9226 236.206 76.6543C236.044 76.3861 235.962 76.07 235.962 75.7059C235.962 75.1216 236.152 74.6697 236.532 74.3504C236.912 74.0311 237.455 73.8714 238.161 73.8714C238.311 73.8714 238.488 73.8858 238.692 73.9145C238.9 73.9401 239.032 73.9592 239.09 73.972H240.958ZM236.824 80.0839C236.824 80.2851 236.92 80.4432 237.112 80.5581C237.306 80.6731 237.578 80.7305 237.926 80.7305C238.45 80.7305 238.86 80.6587 239.157 80.515C239.454 80.3713 239.602 80.1749 239.602 79.9258C239.602 79.7247 239.515 79.5858 239.339 79.5091C239.163 79.4325 238.892 79.3942 238.525 79.3942H237.768C237.5 79.3942 237.275 79.4564 237.092 79.581C236.914 79.7087 236.824 79.8763 236.824 80.0839ZM237.356 75.7251C237.356 76.0157 237.421 76.2456 237.552 76.4148C237.686 76.5841 237.889 76.6687 238.161 76.6687C238.435 76.6687 238.636 76.5841 238.764 76.4148C238.892 76.2456 238.956 76.0157 238.956 75.7251C238.956 75.0801 238.691 74.7575 238.161 74.7575C237.624 74.7575 237.356 75.0801 237.356 75.7251ZM244.062 74.9108C243.752 74.9108 243.509 75.0098 243.334 75.2078C243.158 75.4026 243.058 75.6804 243.032 76.0412H245.082C245.076 75.6804 244.981 75.4026 244.799 75.2078C244.617 75.0098 244.372 74.9108 244.062 74.9108ZM244.268 79.4229C243.406 79.4229 242.732 79.185 242.246 78.7092C241.761 78.2334 241.518 77.5596 241.518 76.6879C241.518 75.7906 241.742 75.0976 242.189 74.6091C242.639 74.1173 243.26 73.8714 244.052 73.8714C244.809 73.8714 245.398 74.087 245.82 74.518C246.241 74.9491 246.452 75.5447 246.452 76.3047V77.0136H242.998C243.014 77.4287 243.137 77.7528 243.367 77.9859C243.597 78.219 243.92 78.3356 244.335 78.3356C244.657 78.3356 244.962 78.3021 245.25 78.235C245.537 78.1679 245.837 78.061 246.15 77.9141V79.0445C245.895 79.1722 245.622 79.2664 245.331 79.3271C245.041 79.391 244.686 79.4229 244.268 79.4229ZM252.583 79.3271H251.122V76.1993C251.122 75.8129 251.053 75.5239 250.916 75.3323C250.779 75.1375 250.56 75.0401 250.26 75.0401C249.851 75.0401 249.556 75.1775 249.374 75.4521C249.192 75.7235 249.101 76.1753 249.101 76.8076V79.3271H247.64V73.972H248.756L248.952 74.6569H249.034C249.197 74.3983 249.42 74.2035 249.704 74.0726C249.992 73.9385 250.317 73.8714 250.681 73.8714C251.304 73.8714 251.777 74.0406 252.099 74.3791C252.422 74.7144 252.583 75.1998 252.583 75.8353V79.3271ZM255.783 79.4229C255.154 79.4229 254.659 79.1786 254.298 78.69C253.94 78.2015 253.761 77.5245 253.761 76.6591C253.761 75.781 253.943 75.0976 254.307 74.6091C254.675 74.1173 255.179 73.8714 255.821 73.8714C256.495 73.8714 257.009 74.1333 257.363 74.6569H257.411C257.338 74.2578 257.301 73.9017 257.301 73.5888V71.874H258.767V79.3271H257.646L257.363 78.6326H257.301C256.969 79.1595 256.463 79.4229 255.783 79.4229ZM256.295 78.259C256.669 78.259 256.942 78.1504 257.114 77.9332C257.29 77.7161 257.386 77.3473 257.402 76.8268V76.6687C257.402 76.0939 257.312 75.682 257.133 75.4329C256.958 75.1838 256.67 75.0593 256.271 75.0593C255.946 75.0593 255.692 75.1982 255.51 75.476C255.331 75.7506 255.241 76.1514 255.241 76.6783C255.241 77.2052 255.332 77.6011 255.514 77.8662C255.696 78.128 255.957 78.259 256.295 78.259ZM262.513 74.9108C262.203 74.9108 261.96 75.0098 261.784 75.2078C261.609 75.4026 261.508 75.6804 261.483 76.0412H263.533C263.526 75.6804 263.432 75.4026 263.25 75.2078C263.068 75.0098 262.822 74.9108 262.513 74.9108ZM262.718 79.4229C261.856 79.4229 261.183 79.185 260.697 78.7092C260.212 78.2334 259.969 77.5596 259.969 76.6879C259.969 75.7906 260.193 75.0976 260.64 74.6091C261.09 74.1173 261.711 73.8714 262.503 73.8714C263.26 73.8714 263.849 74.087 264.27 74.518C264.692 74.9491 264.903 75.5447 264.903 76.3047V77.0136H261.449C261.465 77.4287 261.588 77.7528 261.818 77.9859C262.048 78.219 262.37 78.3356 262.786 78.3356C263.108 78.3356 263.413 78.3021 263.7 78.235C263.988 78.1679 264.288 78.061 264.601 77.9141V79.0445C264.345 79.1722 264.072 79.2664 263.782 79.3271C263.491 79.391 263.137 79.4229 262.718 79.4229ZM269.079 73.8714C269.277 73.8714 269.442 73.8858 269.573 73.9145L269.463 75.2844C269.345 75.2525 269.201 75.2365 269.032 75.2365C268.565 75.2365 268.201 75.3563 267.939 75.5958C267.681 75.8353 267.551 76.1706 267.551 76.6017V79.3271H266.091V73.972H267.197L267.413 74.8725H267.484C267.65 74.5723 267.874 74.3312 268.155 74.1492C268.439 73.964 268.747 73.8714 269.079 73.8714ZM271.101 77.004V76.6495C271.101 76.343 271.166 76.0764 271.297 75.8496C271.428 75.6229 271.668 75.3818 272.016 75.1264C272.351 74.8869 272.571 74.6921 272.677 74.542C272.785 74.3919 272.84 74.2243 272.84 74.0391C272.84 73.8315 272.763 73.6734 272.61 73.5649C272.456 73.4563 272.242 73.402 271.968 73.402C271.489 73.402 270.943 73.5585 270.33 73.8714L269.808 72.8224C270.52 72.4233 271.275 72.2237 272.073 72.2237C272.731 72.2237 273.253 72.3817 273.639 72.6979C274.029 73.014 274.224 73.4355 274.224 73.9624C274.224 74.3137 274.144 74.617 273.984 74.8725C273.825 75.128 273.521 75.4154 273.074 75.7347C272.768 75.9614 272.573 76.1338 272.49 76.252C272.41 76.3701 272.37 76.525 272.37 76.7166V77.004H271.101ZM270.948 78.6422C270.948 78.3739 271.019 78.1711 271.163 78.0338C271.307 77.8965 271.516 77.8279 271.791 77.8279C272.056 77.8279 272.26 77.8981 272.404 78.0386C272.551 78.1791 272.624 78.3803 272.624 78.6422C272.624 78.8944 272.551 79.094 272.404 79.2409C272.257 79.3846 272.052 79.4564 271.791 79.4564C271.522 79.4564 271.315 79.3862 271.168 79.2457C271.021 79.102 270.948 78.9008 270.948 78.6422Z" fill="#565656" />
        <rect x="171.327" y="92.1368" width="147" height="20.2453" rx="1.96195" fill="#FAFAFA" />
        <path d="M180.893 103.967C180.97 105.118 181.927 105.868 183.308 105.868C184.807 105.868 185.746 105.123 185.746 103.931C185.746 102.997 185.2 102.478 183.85 102.139L183.168 101.958C182.283 101.728 181.922 101.435 181.922 100.943C181.922 100.306 182.509 99.8683 183.353 99.8683C184.202 99.8683 184.766 100.297 184.838 100.997H185.651C185.615 99.9044 184.676 99.137 183.38 99.137C182.026 99.137 181.078 99.8954 181.078 100.979C181.078 101.864 181.611 102.392 182.811 102.699L183.647 102.915C184.522 103.141 184.906 103.48 184.906 104.031C184.906 104.672 184.265 105.137 183.385 105.137C182.455 105.137 181.787 104.672 181.71 103.967H180.893ZM188.454 101.665C189.195 101.665 189.687 102.225 189.705 103.01H187.154C187.204 102.229 187.719 101.665 188.454 101.665ZM189.687 104.414C189.556 104.857 189.118 105.159 188.522 105.159C187.678 105.159 187.15 104.568 187.15 103.669V103.624H190.517V103.326C190.517 101.904 189.736 100.983 188.468 100.983C187.172 100.983 186.342 101.972 186.342 103.43C186.342 104.906 187.159 105.841 188.504 105.841C189.529 105.841 190.323 105.236 190.459 104.414H189.687ZM191.353 105.759H192.138V99.2453H191.353V105.759ZM195.081 101.665C195.822 101.665 196.314 102.225 196.332 103.01H193.781C193.831 102.229 194.346 101.665 195.081 101.665ZM196.314 104.414C196.183 104.857 195.745 105.159 195.149 105.159C194.305 105.159 193.777 104.568 193.777 103.669V103.624H197.144V103.326C197.144 101.904 196.363 100.983 195.095 100.983C193.799 100.983 192.969 101.972 192.969 103.43C192.969 104.906 193.786 105.841 195.131 105.841C196.156 105.841 196.95 105.236 197.086 104.414H196.314ZM201.839 102.604C201.74 101.76 201.04 100.983 199.867 100.983C198.571 100.983 197.709 101.931 197.709 103.412C197.709 104.924 198.575 105.841 199.876 105.841C200.941 105.841 201.726 105.182 201.848 104.247H201.076C200.941 104.811 200.521 105.15 199.88 105.15C199.068 105.15 198.508 104.505 198.508 103.412C198.508 102.347 199.059 101.674 199.871 101.674C200.562 101.674 200.959 102.094 201.072 102.604H201.839ZM202.823 99.9315V101.065H202.124V101.71H202.823V104.541C202.823 105.443 203.158 105.796 204.02 105.796C204.205 105.796 204.422 105.782 204.516 105.759V105.1C204.462 105.109 204.282 105.123 204.191 105.123C203.79 105.123 203.609 104.929 203.609 104.5V101.71H204.521V101.065H203.609V99.9315H202.823ZM207.645 107.516C208.493 107.516 208.882 107.186 209.283 106.089L211.13 101.065H210.304L209.004 104.974H208.99L207.69 101.065H206.85L208.584 105.764L208.475 106.094C208.295 106.64 208.051 106.852 207.613 106.852C207.514 106.852 207.392 106.847 207.306 106.829V107.488C207.392 107.507 207.55 107.516 207.645 107.516ZM213.563 105.841C214.859 105.841 215.734 104.906 215.734 103.412C215.734 101.913 214.859 100.983 213.563 100.983C212.263 100.983 211.387 101.913 211.387 103.412C211.387 104.906 212.263 105.841 213.563 105.841ZM213.563 105.15C212.732 105.15 212.186 104.518 212.186 103.412C212.186 102.306 212.732 101.674 213.563 101.674C214.394 101.674 214.935 102.306 214.935 103.412C214.935 104.518 214.394 105.15 213.563 105.15ZM220.384 101.065H219.599V103.823C219.599 104.622 219.138 105.146 218.375 105.146C217.648 105.146 217.292 104.735 217.292 103.972V101.065H216.506V104.112C216.506 105.177 217.107 105.841 218.132 105.841C218.854 105.841 219.341 105.538 219.621 104.997H219.639V105.759H220.384V101.065ZM221.404 105.759H222.19V102.834C222.19 102.171 222.587 101.733 223.197 101.733C223.386 101.733 223.553 101.755 223.616 101.778V101.015C223.553 101.006 223.436 100.983 223.3 100.983C222.75 100.983 222.316 101.313 222.163 101.832H222.145V101.065H221.404V105.759ZM228.063 105.105C227.255 105.105 226.727 104.446 226.727 103.394C226.727 102.342 227.255 101.674 228.063 101.674C228.88 101.674 229.426 102.36 229.426 103.394C229.426 104.428 228.88 105.105 228.063 105.105ZM228.09 107.529C229.386 107.529 230.212 106.784 230.212 105.665V101.065H229.462V101.855H229.449C229.137 101.308 228.587 100.983 227.923 100.983C226.709 100.983 225.923 101.922 225.923 103.394C225.923 104.852 226.709 105.796 227.905 105.796C228.564 105.796 229.119 105.462 229.408 104.951H229.426V105.692C229.426 106.392 228.934 106.861 228.122 106.861C227.535 106.861 227.07 106.577 226.916 106.148H226.108C226.239 106.947 227.056 107.529 228.09 107.529ZM233.119 101.665C233.859 101.665 234.351 102.225 234.37 103.01H231.819C231.869 102.229 232.383 101.665 233.119 101.665ZM234.351 104.414C234.221 104.857 233.783 105.159 233.187 105.159C232.343 105.159 231.814 104.568 231.814 103.669V103.624H235.182V103.326C235.182 101.904 234.401 100.983 233.133 100.983C231.837 100.983 231.006 101.972 231.006 103.43C231.006 104.906 231.823 105.841 233.169 105.841C234.193 105.841 234.988 105.236 235.123 104.414H234.351ZM235.977 105.759H236.762V102.997C236.762 102.202 237.245 101.679 237.985 101.679C238.708 101.679 239.064 102.094 239.064 102.852V105.759H239.85V102.712C239.85 101.647 239.254 100.983 238.225 100.983C237.498 100.983 236.997 101.308 236.735 101.814H236.717V101.065H235.977V105.759ZM242.631 105.841C243.308 105.841 243.845 105.507 244.148 104.965H244.161V105.759H244.91V99.2453H244.125V101.828H244.107C243.827 101.313 243.285 100.983 242.613 100.983C241.43 100.983 240.622 101.94 240.622 103.412C240.622 104.884 241.434 105.841 242.631 105.841ZM242.78 101.674C243.588 101.674 244.129 102.365 244.129 103.412C244.129 104.464 243.588 105.15 242.78 105.15C241.949 105.15 241.425 104.477 241.425 103.412C241.425 102.351 241.949 101.674 242.78 101.674ZM247.854 101.665C248.594 101.665 249.086 102.225 249.104 103.01H246.554C246.603 102.229 247.118 101.665 247.854 101.665ZM249.086 104.414C248.955 104.857 248.517 105.159 247.922 105.159C247.077 105.159 246.549 104.568 246.549 103.669V103.624H249.917V103.326C249.917 101.904 249.136 100.983 247.867 100.983C246.572 100.983 245.741 101.972 245.741 103.43C245.741 104.906 246.558 105.841 247.903 105.841C248.928 105.841 249.723 105.236 249.858 104.414H249.086ZM250.711 105.759H251.497V102.834C251.497 102.171 251.894 101.733 252.504 101.733C252.693 101.733 252.86 101.755 252.923 101.778V101.015C252.86 101.006 252.743 100.983 252.607 100.983C252.057 100.983 251.623 101.313 251.47 101.832H251.452V101.065H250.711V105.759Z" fill="#565656" />
        <path d="M303.686 100.788L306.384 103.731L309.082 100.788" stroke="#565656" stroke-width="0.980973" />
    </g>
    <g filter="url(#filter2_d_4_9)">
        <rect x="16" y="98" width="188.654" height="67.7093" rx="2.45243" fill="white" shape-rendering="crispEdges" />
        <path d="M36.0293 120.327H34.3384L33.39 116.648C33.3549 116.518 33.2942 116.248 33.208 115.839C33.125 115.427 33.0771 115.151 33.0643 115.01C33.0452 115.183 32.9973 115.461 32.9206 115.844C32.844 116.224 32.7849 116.495 32.7434 116.658L31.7998 120.327H30.1137L28.3271 113.324H29.788L30.6837 117.147C30.8402 117.852 30.9536 118.464 31.0238 118.981C31.043 118.799 31.0861 118.518 31.1531 118.138C31.2234 117.755 31.2889 117.458 31.3495 117.247L32.3698 113.324H33.7732L34.7935 117.247C34.8382 117.423 34.8941 117.691 34.9611 118.052C35.0282 118.413 35.0793 118.722 35.1144 118.981C35.1463 118.732 35.1974 118.422 35.2677 118.052C35.3379 117.678 35.4018 117.377 35.4593 117.147L36.3502 113.324H37.8111L36.0293 120.327ZM43.5207 120.327H42.0598V117.199C42.0598 116.427 41.7724 116.04 41.1976 116.04C40.7888 116.04 40.4935 116.179 40.3114 116.457C40.1294 116.735 40.0384 117.185 40.0384 117.808V120.327H38.5775V112.874H40.0384V114.392C40.0384 114.511 40.0272 114.788 40.0049 115.226L39.9714 115.657H40.048C40.3737 115.133 40.891 114.871 41.5999 114.871C42.229 114.871 42.7064 115.041 43.0321 115.379C43.3578 115.718 43.5207 116.203 43.5207 116.835V120.327ZM48.4255 120.327L48.1429 119.599H48.1046C47.8587 119.909 47.6049 120.124 47.343 120.246C47.0844 120.364 46.7459 120.423 46.3276 120.423C45.8134 120.423 45.4079 120.276 45.1109 119.982C44.8171 119.688 44.6703 119.27 44.6703 118.727C44.6703 118.159 44.8682 117.741 45.2642 117.472C45.6634 117.201 46.2637 117.051 47.0652 117.022L47.9945 116.993V116.759C47.9945 116.216 47.7166 115.944 47.161 115.944C46.7331 115.944 46.2302 116.074 45.6522 116.332L45.1684 115.346C45.7847 115.023 46.4681 114.862 47.2185 114.862C47.937 114.862 48.4878 115.018 48.871 115.331C49.2542 115.644 49.4458 116.12 49.4458 116.759V120.327H48.4255ZM47.9945 117.846L47.4292 117.865C47.0045 117.878 46.6884 117.955 46.4808 118.095C46.2733 118.236 46.1695 118.449 46.1695 118.737C46.1695 119.149 46.4058 119.355 46.8784 119.355C47.2169 119.355 47.4867 119.257 47.6879 119.063C47.8923 118.868 47.9945 118.609 47.9945 118.287V117.846ZM53.2107 119.259C53.4661 119.259 53.7727 119.203 54.1303 119.091V120.179C53.7663 120.341 53.3192 120.423 52.7891 120.423C52.2048 120.423 51.7785 120.276 51.5102 119.982C51.2452 119.685 51.1127 119.241 51.1127 118.651V116.069H50.4134V115.451L51.2181 114.962L51.6396 113.832H52.5736V114.972H54.0728V116.069H52.5736V118.651C52.5736 118.858 52.6311 119.011 52.746 119.11C52.8642 119.209 53.0191 119.259 53.2107 119.259ZM61.1667 120.327L60.8841 119.599H60.8458C60.5999 119.909 60.346 120.124 60.0842 120.246C59.8255 120.364 59.487 120.423 59.0687 120.423C58.5546 120.423 58.1491 120.276 57.8521 119.982C57.5583 119.688 57.4114 119.27 57.4114 118.727C57.4114 118.159 57.6094 117.741 58.0054 117.472C58.4045 117.201 59.0048 117.051 59.8064 117.022L60.7356 116.993V116.759C60.7356 116.216 60.4578 115.944 59.9022 115.944C59.4743 115.944 58.9713 116.074 58.3933 116.332L57.9096 115.346C58.5259 115.023 59.2092 114.862 59.9596 114.862C60.6781 114.862 61.229 115.018 61.6122 115.331C61.9953 115.644 62.1869 116.12 62.1869 116.759V120.327H61.1667ZM60.7356 117.846L60.1704 117.865C59.7457 117.878 59.4296 117.955 59.222 118.095C59.0144 118.236 58.9106 118.449 58.9106 118.737C58.9106 119.149 59.1469 119.355 59.6196 119.355C59.958 119.355 60.2279 119.257 60.429 119.063C60.6334 118.868 60.7356 118.609 60.7356 118.287V117.846ZM65.1567 120.327H63.6958V112.874H65.1567V120.327ZM68.1552 120.327H66.6942V112.874H68.1552V120.327ZM71.9104 115.911C71.6007 115.911 71.358 116.01 71.1824 116.208C71.0067 116.403 70.9062 116.68 70.8806 117.041H72.9307C72.9243 116.68 72.8301 116.403 72.6481 116.208C72.4661 116.01 72.2202 115.911 71.9104 115.911ZM72.1164 120.423C71.2542 120.423 70.5804 120.185 70.0951 119.709C69.6097 119.233 69.367 118.56 69.367 117.688C69.367 116.791 69.5905 116.098 70.0376 115.609C70.4878 115.117 71.1089 114.871 71.9009 114.871C72.6577 114.871 73.2468 115.087 73.6683 115.518C74.0899 115.949 74.3006 116.545 74.3006 117.305V118.014H70.8471C70.8631 118.429 70.986 118.753 71.2159 118.986C71.4458 119.219 71.7683 119.336 72.1835 119.336C72.506 119.336 72.8109 119.302 73.0983 119.235C73.3857 119.168 73.6859 119.061 73.9988 118.914V120.045C73.7434 120.172 73.4704 120.266 73.1798 120.327C72.8892 120.391 72.5347 120.423 72.1164 120.423ZM78.4774 114.871C78.6754 114.871 78.8398 114.886 78.9708 114.915L78.8606 116.284C78.7424 116.252 78.5987 116.237 78.4295 116.237C77.9633 116.237 77.5993 116.356 77.3374 116.596C77.0788 116.835 76.9494 117.171 76.9494 117.602V120.327H75.4885V114.972H76.595L76.8105 115.872H76.8824C77.0484 115.572 77.2719 115.331 77.553 115.149C77.8372 114.964 78.1453 114.871 78.4774 114.871ZM84.6037 114.972V115.714L83.7655 115.93C83.9187 116.169 83.9954 116.438 83.9954 116.735C83.9954 117.309 83.7942 117.758 83.3918 118.081C82.9927 118.4 82.4371 118.56 81.725 118.56L81.4615 118.545L81.246 118.521C81.0959 118.636 81.0208 118.764 81.0208 118.905C81.0208 119.115 81.2891 119.221 81.8255 119.221H82.7356C83.3232 119.221 83.7702 119.347 84.0768 119.599C84.3866 119.851 84.5414 120.222 84.5414 120.71C84.5414 121.336 84.2796 121.822 83.7559 122.166C83.2354 122.511 82.4866 122.684 81.5094 122.684C80.7622 122.684 80.1906 122.553 79.7946 122.291C79.4019 122.032 79.2055 121.668 79.2055 121.199C79.2055 120.876 79.3061 120.607 79.5072 120.389C79.7084 120.172 80.0038 120.017 80.3934 119.925C80.2433 119.861 80.1124 119.757 80.0006 119.613C79.8888 119.467 79.8329 119.312 79.8329 119.149C79.8329 118.944 79.892 118.775 80.0102 118.641C80.1283 118.504 80.2992 118.37 80.5227 118.239C80.2417 118.117 80.0182 117.923 79.8521 117.654C79.6893 117.386 79.6078 117.07 79.6078 116.706C79.6078 116.122 79.7978 115.67 80.1778 115.35C80.5578 115.031 81.1007 114.871 81.8064 114.871C81.9565 114.871 82.1337 114.886 82.3381 114.915C82.5456 114.94 82.6782 114.959 82.7356 114.972H84.6037ZM80.47 121.084C80.47 121.285 80.5658 121.443 80.7574 121.558C80.9522 121.673 81.2236 121.731 81.5717 121.731C82.0954 121.731 82.5057 121.659 82.8027 121.515C83.0997 121.371 83.2482 121.175 83.2482 120.926C83.2482 120.725 83.1603 120.586 82.9847 120.509C82.8091 120.432 82.5376 120.394 82.1704 120.394H81.4136C81.1454 120.394 80.9203 120.456 80.7382 120.581C80.5594 120.709 80.47 120.876 80.47 121.084ZM81.0017 116.725C81.0017 117.016 81.0671 117.246 81.1981 117.415C81.3322 117.584 81.535 117.669 81.8064 117.669C82.081 117.669 82.2822 117.584 82.4099 117.415C82.5376 117.246 82.6015 117.016 82.6015 116.725C82.6015 116.08 82.3365 115.758 81.8064 115.758C81.2699 115.758 81.0017 116.08 81.0017 116.725ZM85.4276 113.588C85.4276 113.112 85.6926 112.874 86.2227 112.874C86.7528 112.874 87.0178 113.112 87.0178 113.588C87.0178 113.814 86.9507 113.992 86.8166 114.119C86.6857 114.244 86.4877 114.306 86.2227 114.306C85.6926 114.306 85.4276 114.067 85.4276 113.588ZM86.9507 120.327H85.4898V114.972H86.9507V120.327ZM90.706 115.911C90.3963 115.911 90.1536 116.01 89.978 116.208C89.8023 116.403 89.7017 116.68 89.6762 117.041H91.7263C91.7199 116.68 91.6257 116.403 91.4437 116.208C91.2617 116.01 91.0158 115.911 90.706 115.911ZM90.912 120.423C90.0498 120.423 89.376 120.185 88.8907 119.709C88.4053 119.233 88.1626 118.56 88.1626 117.688C88.1626 116.791 88.3861 116.098 88.8332 115.609C89.2834 115.117 89.9045 114.871 90.6965 114.871C91.4533 114.871 92.0424 115.087 92.4639 115.518C92.8854 115.949 93.0962 116.545 93.0962 117.305V118.014H89.6427C89.6586 118.429 89.7816 118.753 90.0115 118.986C90.2414 119.219 90.5639 119.336 90.9791 119.336C91.3016 119.336 91.6065 119.302 91.8939 119.235C92.1813 119.168 92.4815 119.061 92.7944 118.914V120.045C92.539 120.172 92.2659 120.266 91.9754 120.327C91.6848 120.391 91.3303 120.423 90.912 120.423ZM98.0202 118.737C98.0202 119.286 97.8286 119.704 97.4454 119.992C97.0654 120.279 96.4954 120.423 95.7354 120.423C95.3459 120.423 95.0138 120.396 94.7391 120.341C94.4645 120.29 94.2075 120.214 93.968 120.112V118.905C94.2394 119.032 94.5443 119.139 94.8828 119.225C95.2245 119.312 95.5247 119.355 95.7833 119.355C96.3134 119.355 96.5785 119.201 96.5785 118.895C96.5785 118.78 96.5433 118.687 96.4731 118.617C96.4028 118.544 96.2815 118.462 96.109 118.373C95.9366 118.28 95.7067 118.173 95.4193 118.052C95.0074 117.879 94.704 117.72 94.5092 117.573C94.3176 117.426 94.1771 117.258 94.0877 117.07C94.0015 116.878 93.9584 116.644 93.9584 116.366C93.9584 115.89 94.142 115.523 94.5092 115.264C94.8796 115.002 95.4033 114.871 96.0803 114.871C96.7253 114.871 97.3528 115.012 97.9627 115.293L97.5221 116.347C97.2538 116.232 97.0032 116.138 96.7701 116.064C96.5369 115.991 96.299 115.954 96.0564 115.954C95.6253 115.954 95.4097 116.07 95.4097 116.304C95.4097 116.435 95.4784 116.548 95.6157 116.644C95.7562 116.739 96.0611 116.882 96.5306 117.07C96.9489 117.239 97.2554 117.397 97.4502 117.544C97.645 117.691 97.7887 117.86 97.8813 118.052C97.9739 118.243 98.0202 118.472 98.0202 118.737ZM103.404 120.423C102.775 120.423 102.28 120.179 101.919 119.69C101.562 119.201 101.383 118.525 101.383 117.659C101.383 116.781 101.565 116.098 101.929 115.609C102.296 115.117 102.801 114.871 103.442 114.871C104.116 114.871 104.63 115.133 104.985 115.657H105.033C104.959 115.258 104.922 114.902 104.922 114.589V112.874H106.388V120.327H105.267L104.985 119.633H104.922C104.59 120.159 104.084 120.423 103.404 120.423ZM103.917 119.259C104.29 119.259 104.563 119.15 104.736 118.933C104.911 118.716 105.007 118.347 105.023 117.827V117.669C105.023 117.094 104.934 116.682 104.755 116.433C104.579 116.184 104.292 116.059 103.893 116.059C103.567 116.059 103.313 116.198 103.131 116.476C102.952 116.751 102.863 117.151 102.863 117.678C102.863 118.205 102.954 118.601 103.136 118.866C103.318 119.128 103.578 119.259 103.917 119.259ZM109.08 117.64C109.08 118.17 109.166 118.571 109.339 118.842C109.514 119.114 109.799 119.249 110.191 119.249C110.581 119.249 110.86 119.115 111.03 118.847C111.202 118.576 111.288 118.173 111.288 117.64C111.288 117.11 111.202 116.712 111.03 116.447C110.857 116.182 110.575 116.05 110.182 116.05C109.792 116.05 109.511 116.182 109.339 116.447C109.166 116.709 109.08 117.107 109.08 117.64ZM112.783 117.64C112.783 118.512 112.553 119.193 112.093 119.685C111.633 120.177 110.993 120.423 110.172 120.423C109.658 120.423 109.205 120.311 108.812 120.088C108.419 119.861 108.117 119.537 107.907 119.115C107.696 118.694 107.59 118.202 107.59 117.64C107.59 116.765 107.819 116.085 108.275 115.599C108.732 115.114 109.374 114.871 110.201 114.871C110.715 114.871 111.169 114.983 111.561 115.207C111.954 115.43 112.256 115.751 112.467 116.169C112.677 116.588 112.783 117.078 112.783 117.64ZM115.772 114.972H117.371L118.382 117.985C118.468 118.247 118.527 118.556 118.559 118.914H118.588C118.623 118.585 118.692 118.275 118.794 117.985L119.786 114.972H121.352L119.086 121.012C118.879 121.571 118.582 121.989 118.195 122.267C117.812 122.545 117.363 122.684 116.849 122.684C116.597 122.684 116.35 122.657 116.107 122.602V121.443C116.283 121.485 116.474 121.505 116.682 121.505C116.94 121.505 117.165 121.426 117.357 121.266C117.552 121.109 117.704 120.872 117.812 120.552L117.898 120.289L115.772 114.972ZM123.287 117.64C123.287 118.17 123.373 118.571 123.546 118.842C123.721 119.114 124.005 119.249 124.398 119.249C124.788 119.249 125.067 119.115 125.236 118.847C125.409 118.576 125.495 118.173 125.495 117.64C125.495 117.11 125.409 116.712 125.236 116.447C125.064 116.182 124.781 116.05 124.389 116.05C123.999 116.05 123.718 116.182 123.546 116.447C123.373 116.709 123.287 117.107 123.287 117.64ZM126.99 117.64C126.99 118.512 126.76 119.193 126.3 119.685C125.84 120.177 125.2 120.423 124.379 120.423C123.865 120.423 123.411 120.311 123.019 120.088C122.626 119.861 122.324 119.537 122.113 119.115C121.903 118.694 121.797 118.202 121.797 117.64C121.797 116.765 122.026 116.085 122.482 115.599C122.939 115.114 123.581 114.871 124.408 114.871C124.922 114.871 125.375 114.983 125.768 115.207C126.161 115.43 126.463 115.751 126.673 116.169C126.884 116.588 126.99 117.078 126.99 117.64ZM131.99 120.327L131.794 119.642H131.717C131.561 119.891 131.339 120.084 131.051 120.222C130.764 120.356 130.437 120.423 130.069 120.423C129.44 120.423 128.966 120.255 128.647 119.92C128.328 119.581 128.168 119.096 128.168 118.464V114.972H129.629V118.1C129.629 118.486 129.697 118.777 129.835 118.972C129.972 119.163 130.191 119.259 130.491 119.259C130.9 119.259 131.195 119.123 131.377 118.852C131.559 118.577 131.65 118.124 131.65 117.491V114.972H133.111V120.327H131.99ZM142.135 120.327H140.674V117.199C140.674 116.427 140.387 116.04 139.812 116.04C139.403 116.04 139.108 116.179 138.926 116.457C138.744 116.735 138.653 117.185 138.653 117.808V120.327H137.192V112.874H138.653V114.392C138.653 114.511 138.642 114.788 138.619 115.226L138.586 115.657H138.663C138.988 115.133 139.506 114.871 140.214 114.871C140.844 114.871 141.321 115.041 141.647 115.379C141.972 115.718 142.135 116.203 142.135 116.835V120.327ZM147.04 120.327L146.757 119.599H146.719C146.473 119.909 146.219 120.124 145.958 120.246C145.699 120.364 145.36 120.423 144.942 120.423C144.428 120.423 144.022 120.276 143.725 119.982C143.432 119.688 143.285 119.27 143.285 118.727C143.285 118.159 143.483 117.741 143.879 117.472C144.278 117.201 144.878 117.051 145.68 117.022L146.609 116.993V116.759C146.609 116.216 146.331 115.944 145.776 115.944C145.348 115.944 144.845 116.074 144.267 116.332L143.783 115.346C144.399 115.023 145.083 114.862 145.833 114.862C146.552 114.862 147.102 115.018 147.486 115.331C147.869 115.644 148.06 116.12 148.06 116.759V120.327H147.04ZM146.609 117.846L146.044 117.865C145.619 117.878 145.303 117.955 145.095 118.095C144.888 118.236 144.784 118.449 144.784 118.737C144.784 119.149 145.02 119.355 145.493 119.355C145.831 119.355 146.101 119.257 146.302 119.063C146.507 118.868 146.609 118.609 146.609 118.287V117.846ZM150.843 120.327L148.803 114.972H150.331L151.365 118.023C151.48 118.41 151.552 118.775 151.581 119.12H151.61C151.626 118.813 151.697 118.448 151.825 118.023L152.855 114.972H154.383L152.343 120.327H150.843ZM157.372 115.911C157.062 115.911 156.819 116.01 156.644 116.208C156.468 116.403 156.368 116.68 156.342 117.041H158.392C158.386 116.68 158.292 116.403 158.11 116.208C157.928 116.01 157.682 115.911 157.372 115.911ZM157.578 120.423C156.716 120.423 156.042 120.185 155.557 119.709C155.071 119.233 154.828 118.56 154.828 117.688C154.828 116.791 155.052 116.098 155.499 115.609C155.949 115.117 156.57 114.871 157.362 114.871C158.119 114.871 158.708 115.087 159.13 115.518C159.551 115.949 159.762 116.545 159.762 117.305V118.014H156.309C156.325 118.429 156.447 118.753 156.677 118.986C156.907 119.219 157.23 119.336 157.645 119.336C157.967 119.336 158.272 119.302 158.56 119.235C158.847 119.168 159.147 119.061 159.46 118.914V120.045C159.205 120.172 158.932 120.266 158.641 120.327C158.351 120.391 157.996 120.423 157.578 120.423ZM161.506 118.004V117.65C161.506 117.343 161.571 117.076 161.702 116.85C161.833 116.623 162.072 116.382 162.42 116.126C162.756 115.887 162.976 115.692 163.081 115.542C163.19 115.392 163.244 115.224 163.244 115.039C163.244 114.831 163.168 114.673 163.014 114.565C162.861 114.456 162.647 114.402 162.373 114.402C161.894 114.402 161.348 114.558 160.734 114.871L160.212 113.822C160.924 113.423 161.68 113.224 162.478 113.224C163.136 113.224 163.658 113.382 164.044 113.698C164.434 114.014 164.629 114.436 164.629 114.962C164.629 115.314 164.549 115.617 164.389 115.872C164.229 116.128 163.926 116.415 163.479 116.735C163.172 116.961 162.978 117.134 162.895 117.252C162.815 117.37 162.775 117.525 162.775 117.717V118.004H161.506ZM161.352 119.642C161.352 119.374 161.424 119.171 161.568 119.034C161.712 118.897 161.921 118.828 162.195 118.828C162.46 118.828 162.665 118.898 162.808 119.039C162.955 119.179 163.029 119.38 163.029 119.642C163.029 119.894 162.955 120.094 162.808 120.241C162.662 120.385 162.457 120.456 162.195 120.456C161.927 120.456 161.72 120.386 161.573 120.246C161.426 120.102 161.352 119.901 161.352 119.642Z" fill="#565656" />
        <rect x="28.3271" y="133.137" width="147" height="20.2453" rx="1.96195" fill="#FAFAFA" />
        <path d="M37.8929 144.967C37.9696 146.118 38.9267 146.868 40.308 146.868C41.8068 146.868 42.7458 146.123 42.7458 144.931C42.7458 143.997 42.1995 143.478 40.8498 143.139L40.1681 142.958C39.2833 142.728 38.9221 142.435 38.9221 141.943C38.9221 141.306 39.509 140.868 40.3532 140.868C41.2019 140.868 41.7662 141.297 41.8384 141.997H42.651C42.6149 140.904 41.6759 140.137 40.3803 140.137C39.026 140.137 38.078 140.895 38.078 141.979C38.078 142.864 38.6107 143.392 39.8115 143.699L40.6466 143.915C41.5224 144.141 41.9061 144.48 41.9061 145.031C41.9061 145.672 41.2651 146.137 40.3848 146.137C39.4548 146.137 38.7867 145.672 38.71 144.967H37.8929ZM45.4544 142.665C46.1947 142.665 46.6868 143.225 46.7048 144.01H44.1542C44.2039 143.229 44.7185 142.665 45.4544 142.665ZM46.6868 145.414C46.5559 145.857 46.118 146.159 45.5221 146.159C44.6779 146.159 44.1497 145.568 44.1497 144.669V144.624H47.5174V144.326C47.5174 142.904 46.7364 141.983 45.4679 141.983C44.1723 141.983 43.3417 142.972 43.3417 144.43C43.3417 145.906 44.1588 146.841 45.504 146.841C46.5288 146.841 47.3233 146.236 47.4587 145.414H46.6868ZM48.3526 146.759H49.138V140.245H48.3526V146.759ZM52.0814 142.665C52.8217 142.665 53.3138 143.225 53.3319 144.01H50.7813C50.8309 143.229 51.3456 142.665 52.0814 142.665ZM53.3138 145.414C53.1829 145.857 52.745 146.159 52.1491 146.159C51.3049 146.159 50.7767 145.568 50.7767 144.669V144.624H54.1444V144.326C54.1444 142.904 53.3635 141.983 52.0949 141.983C50.7993 141.983 49.9687 142.972 49.9687 144.43C49.9687 145.906 50.7858 146.841 52.131 146.841C53.1558 146.841 53.9503 146.236 54.0857 145.414H53.3138ZM58.8393 143.604C58.74 142.76 58.0403 141.983 56.8666 141.983C55.571 141.983 54.7087 142.931 54.7087 144.412C54.7087 145.924 55.5755 146.841 56.8756 146.841C57.941 146.841 58.7265 146.182 58.8484 145.247H58.0764C57.941 145.811 57.5211 146.15 56.8801 146.15C56.0675 146.15 55.5078 145.505 55.5078 144.412C55.5078 143.347 56.0585 142.674 56.8711 142.674C57.5618 142.674 57.959 143.094 58.0719 143.604H58.8393ZM59.8234 140.932V142.065H59.1237V142.71H59.8234V145.541C59.8234 146.443 60.1575 146.796 61.0197 146.796C61.2048 146.796 61.4215 146.782 61.5163 146.759V146.1C61.4621 146.109 61.2816 146.123 61.1913 146.123C60.7895 146.123 60.6089 145.929 60.6089 145.5V142.71H61.5208V142.065H60.6089V140.932H59.8234ZM64.6447 148.516C65.4934 148.516 65.8817 148.186 66.2834 147.089L68.1298 142.065H67.3037L66.0036 145.974H65.99L64.6899 142.065H63.8502L65.5837 146.764L65.4754 147.094C65.2948 147.64 65.051 147.852 64.6131 147.852C64.5138 147.852 64.3919 147.847 64.3062 147.829V148.488C64.3919 148.507 64.5499 148.516 64.6447 148.516ZM70.563 146.841C71.8586 146.841 72.7344 145.906 72.7344 144.412C72.7344 142.913 71.8586 141.983 70.563 141.983C69.2629 141.983 68.3871 142.913 68.3871 144.412C68.3871 145.906 69.2629 146.841 70.563 146.841ZM70.563 146.15C69.7324 146.15 69.1861 145.518 69.1861 144.412C69.1861 143.306 69.7324 142.674 70.563 142.674C71.3937 142.674 71.9354 143.306 71.9354 144.412C71.9354 145.518 71.3937 146.15 70.563 146.15ZM77.3842 142.065H76.5987V144.823C76.5987 145.622 76.1382 146.146 75.3753 146.146C74.6485 146.146 74.2918 145.735 74.2918 144.972V142.065H73.5064V145.112C73.5064 146.177 74.1068 146.841 75.1315 146.841C75.8538 146.841 76.3413 146.538 76.6212 145.997H76.6393V146.759H77.3842V142.065ZM78.4044 146.759H79.1899V143.834C79.1899 143.171 79.5871 142.733 80.1966 142.733C80.3862 142.733 80.5532 142.755 80.6164 142.778V142.015C80.5532 142.006 80.4358 141.983 80.3004 141.983C79.7497 141.983 79.3163 142.313 79.1628 142.832H79.1447V142.065H78.4044V146.759ZM84.7019 146.173C84.1376 146.173 83.7629 145.879 83.7629 145.432C83.7629 144.99 84.124 144.71 84.756 144.669L86.011 144.593V144.976C86.011 145.653 85.4422 146.173 84.7019 146.173ZM84.5258 146.841C85.1578 146.841 85.7537 146.489 86.0336 145.951H86.0517V146.759H86.7965V143.514C86.7965 142.579 86.1013 141.983 84.9998 141.983C83.8893 141.983 83.1941 142.606 83.1399 143.419H83.8983C83.9976 142.958 84.3768 142.674 84.9818 142.674C85.6318 142.674 86.011 143.017 86.011 143.59V143.983L84.6658 144.06C83.5823 144.123 82.9639 144.629 82.9639 145.432C82.9639 146.276 83.5913 146.841 84.5258 146.841ZM87.8348 146.759H88.6203V140.245H87.8348V146.759ZM89.7218 146.759H90.5073V140.245H89.7218V146.759ZM93.4506 142.665C94.191 142.665 94.683 143.225 94.7011 144.01H92.1505C92.2002 143.229 92.7148 142.665 93.4506 142.665ZM94.683 145.414C94.5521 145.857 94.1142 146.159 93.5183 146.159C92.6742 146.159 92.146 145.568 92.146 144.669V144.624H95.5137V144.326C95.5137 142.904 94.7327 141.983 93.4642 141.983C92.1686 141.983 91.3379 142.972 91.3379 144.43C91.3379 145.906 92.155 146.841 93.5003 146.841C94.525 146.841 95.3196 146.236 95.455 145.414H94.683ZM96.3082 146.759H97.0937V143.834C97.0937 143.171 97.4909 142.733 98.1004 142.733C98.29 142.733 98.457 142.755 98.5202 142.778V142.015C98.457 142.006 98.3396 141.983 98.2042 141.983C97.6535 141.983 97.2201 142.313 97.0666 142.832H97.0485V142.065H96.3082V146.759ZM100.845 146.105C100.037 146.105 99.5088 145.446 99.5088 144.394C99.5088 143.342 100.037 142.674 100.845 142.674C101.662 142.674 102.208 143.36 102.208 144.394C102.208 145.428 101.662 146.105 100.845 146.105ZM100.872 148.529C102.168 148.529 102.994 147.784 102.994 146.665V142.065H102.245V142.855H102.231C101.919 142.308 101.369 141.983 100.705 141.983C99.4908 141.983 98.7053 142.922 98.7053 144.394C98.7053 145.852 99.4908 146.796 100.687 146.796C101.346 146.796 101.901 146.462 102.19 145.951H102.208V146.692C102.208 147.392 101.716 147.861 100.904 147.861C100.317 147.861 99.8519 147.577 99.6984 147.148H98.8904C99.0213 147.947 99.8384 148.529 100.872 148.529ZM104.059 146.759H104.845V142.065H104.059V146.759ZM104.452 141.275C104.723 141.275 104.944 141.053 104.944 140.787C104.944 140.516 104.723 140.3 104.452 140.3C104.186 140.3 103.964 140.516 103.964 140.787C103.964 141.053 104.186 141.275 104.452 141.275ZM107.788 142.665C108.528 142.665 109.021 143.225 109.039 144.01H106.488C106.538 143.229 107.052 142.665 107.788 142.665ZM109.021 145.414C108.89 145.857 108.452 146.159 107.856 146.159C107.012 146.159 106.483 145.568 106.483 144.669V144.624H109.851V144.326C109.851 142.904 109.07 141.983 107.802 141.983C106.506 141.983 105.675 142.972 105.675 144.43C105.675 145.906 106.492 146.841 107.838 146.841C108.863 146.841 109.657 146.236 109.792 145.414H109.021ZM110.564 143.36C110.564 144.001 110.971 144.426 111.797 144.638L112.623 144.85C113.151 144.99 113.345 145.17 113.345 145.505C113.345 145.929 112.952 146.2 112.316 146.2C111.679 146.2 111.309 145.938 111.224 145.45H110.438C110.519 146.281 111.237 146.841 112.266 146.841C113.363 146.841 114.135 146.263 114.135 145.446C114.135 144.755 113.792 144.412 112.844 144.173L112.117 143.997C111.585 143.861 111.336 143.645 111.336 143.32C111.336 142.909 111.716 142.624 112.289 142.624C112.867 142.624 113.232 142.904 113.287 143.356H114.036C114 142.561 113.287 141.983 112.316 141.983C111.282 141.983 110.564 142.557 110.564 143.36Z" fill="#565656" />
        <path d="M160.686 141.788L163.384 144.731L166.082 141.788" stroke="#565656" stroke-width="0.980973" />
    </g>
    <g filter="url(#filter3_d_4_9)">
        <rect x="111" y="140" width="188.654" height="67.7093" rx="2.45243" fill="white" shape-rendering="crispEdges" />
        <path d="M130.019 158.759C130.019 159.911 129.69 160.794 129.032 161.407C128.377 162.021 127.43 162.327 126.191 162.327H124.208V155.324H126.407C127.55 155.324 128.438 155.626 129.07 156.23C129.702 156.833 130.019 157.676 130.019 158.759ZM128.476 158.797C128.476 157.293 127.812 156.541 126.484 156.541H125.693V161.101H126.33C127.761 161.101 128.476 160.333 128.476 158.797ZM132.519 159.64C132.519 160.17 132.605 160.571 132.778 160.842C132.953 161.114 133.237 161.249 133.63 161.249C134.02 161.249 134.299 161.115 134.468 160.847C134.641 160.576 134.727 160.173 134.727 159.64C134.727 159.11 134.641 158.712 134.468 158.447C134.296 158.182 134.013 158.05 133.621 158.05C133.231 158.05 132.95 158.182 132.778 158.447C132.605 158.709 132.519 159.107 132.519 159.64ZM136.222 159.64C136.222 160.512 135.992 161.193 135.532 161.685C135.072 162.177 134.432 162.423 133.611 162.423C133.097 162.423 132.643 162.311 132.251 162.088C131.858 161.861 131.556 161.537 131.345 161.115C131.135 160.694 131.029 160.202 131.029 159.64C131.029 158.765 131.258 158.085 131.714 157.599C132.171 157.114 132.813 156.871 133.64 156.871C134.154 156.871 134.607 156.983 135 157.207C135.393 157.43 135.695 157.751 135.905 158.169C136.116 158.588 136.222 159.078 136.222 159.64ZM139.21 156.972H140.81L141.821 159.985C141.907 160.247 141.966 160.556 141.998 160.914H142.027C142.062 160.585 142.131 160.275 142.233 159.985L143.224 156.972H144.791L142.525 163.012C142.317 163.571 142.021 163.989 141.634 164.267C141.251 164.545 140.802 164.684 140.288 164.684C140.036 164.684 139.788 164.657 139.546 164.602V163.443C139.721 163.485 139.913 163.505 140.121 163.505C140.379 163.505 140.604 163.426 140.796 163.266C140.991 163.109 141.142 162.872 141.251 162.552L141.337 162.289L139.21 156.972ZM146.726 159.64C146.726 160.17 146.812 160.571 146.984 160.842C147.16 161.114 147.444 161.249 147.837 161.249C148.227 161.249 148.506 161.115 148.675 160.847C148.848 160.576 148.934 160.173 148.934 159.64C148.934 159.11 148.848 158.712 148.675 158.447C148.503 158.182 148.22 158.05 147.827 158.05C147.438 158.05 147.157 158.182 146.984 158.447C146.812 158.709 146.726 159.107 146.726 159.64ZM150.428 159.64C150.428 160.512 150.198 161.193 149.739 161.685C149.279 162.177 148.639 162.423 147.818 162.423C147.304 162.423 146.85 162.311 146.458 162.088C146.065 161.861 145.763 161.537 145.552 161.115C145.342 160.694 145.236 160.202 145.236 159.64C145.236 158.765 145.464 158.085 145.921 157.599C146.378 157.114 147.02 156.871 147.847 156.871C148.361 156.871 148.814 156.983 149.207 157.207C149.6 157.43 149.901 157.751 150.112 158.169C150.323 158.588 150.428 159.078 150.428 159.64ZM155.429 162.327L155.233 161.642H155.156C155 161.891 154.778 162.084 154.49 162.222C154.203 162.356 153.876 162.423 153.508 162.423C152.879 162.423 152.405 162.255 152.086 161.92C151.766 161.581 151.607 161.096 151.607 160.464V156.972H153.068V160.1C153.068 160.486 153.136 160.777 153.274 160.972C153.411 161.163 153.63 161.259 153.93 161.259C154.339 161.259 154.634 161.123 154.816 160.852C154.998 160.577 155.089 160.124 155.089 159.491V156.972H156.55V162.327H155.429ZM162.887 161.259C163.142 161.259 163.449 161.203 163.807 161.091V162.179C163.443 162.341 162.995 162.423 162.465 162.423C161.881 162.423 161.455 162.276 161.187 161.982C160.921 161.685 160.789 161.241 160.789 160.651V158.069H160.09V157.451L160.894 156.962L161.316 155.832H162.25V156.972H163.749V158.069H162.25V160.651C162.25 160.858 162.307 161.011 162.422 161.11C162.54 161.209 162.695 161.259 162.887 161.259ZM168.295 162.327L168.012 161.599H167.974C167.728 161.909 167.474 162.124 167.212 162.246C166.954 162.364 166.615 162.423 166.197 162.423C165.683 162.423 165.277 162.276 164.98 161.982C164.686 161.688 164.539 161.27 164.539 160.727C164.539 160.159 164.737 159.741 165.133 159.472C165.533 159.201 166.133 159.051 166.934 159.022L167.864 158.993V158.759C167.864 158.216 167.586 157.944 167.03 157.944C166.602 157.944 166.099 158.074 165.521 158.332L165.038 157.346C165.654 157.023 166.337 156.862 167.088 156.862C167.806 156.862 168.357 157.018 168.74 157.331C169.123 157.644 169.315 158.12 169.315 158.759V162.327H168.295ZM167.864 159.846L167.298 159.865C166.874 159.878 166.558 159.955 166.35 160.095C166.142 160.236 166.039 160.449 166.039 160.737C166.039 161.149 166.275 161.355 166.748 161.355C167.086 161.355 167.356 161.257 167.557 161.063C167.761 160.868 167.864 160.609 167.864 160.287V159.846ZM172.227 159.415L172.864 158.601L174.364 156.972H176.011L173.885 159.295L176.141 162.327H174.455L172.912 160.157L172.285 160.66V162.327H170.824V154.874H172.285V158.198L172.208 159.415H172.227ZM179.125 157.911C178.815 157.911 178.572 158.01 178.397 158.208C178.221 158.403 178.12 158.68 178.095 159.041H180.145C180.139 158.68 180.044 158.403 179.862 158.208C179.68 158.01 179.434 157.911 179.125 157.911ZM179.331 162.423C178.468 162.423 177.795 162.185 177.309 161.709C176.824 161.233 176.581 160.56 176.581 159.688C176.581 158.791 176.805 158.098 177.252 157.609C177.702 157.117 178.323 156.871 179.115 156.871C179.872 156.871 180.461 157.087 180.883 157.518C181.304 157.949 181.515 158.545 181.515 159.305V160.014H178.061C178.077 160.429 178.2 160.753 178.43 160.986C178.66 161.219 178.983 161.336 179.398 161.336C179.72 161.336 180.025 161.302 180.313 161.235C180.6 161.168 180.9 161.061 181.213 160.914V162.044C180.958 162.172 180.685 162.266 180.394 162.327C180.103 162.391 179.749 162.423 179.331 162.423ZM188.652 162.327L188.369 161.599H188.331C188.085 161.909 187.831 162.124 187.569 162.246C187.311 162.364 186.972 162.423 186.554 162.423C186.04 162.423 185.634 162.276 185.337 161.982C185.043 161.688 184.897 161.27 184.897 160.727C184.897 160.159 185.095 159.741 185.49 159.472C185.89 159.201 186.49 159.051 187.291 159.022L188.221 158.993V158.759C188.221 158.216 187.943 157.944 187.387 157.944C186.959 157.944 186.456 158.074 185.878 158.332L185.395 157.346C186.011 157.023 186.694 156.862 187.445 156.862C188.163 156.862 188.714 157.018 189.097 157.331C189.48 157.644 189.672 158.12 189.672 158.759V162.327H188.652ZM188.221 159.846L187.656 159.865C187.231 159.878 186.915 159.955 186.707 160.095C186.5 160.236 186.396 160.449 186.396 160.737C186.396 161.149 186.632 161.355 187.105 161.355C187.443 161.355 187.713 161.257 187.914 161.063C188.119 160.868 188.221 160.609 188.221 160.287V159.846ZM196.124 162.327H194.663V159.199C194.663 158.813 194.594 158.524 194.457 158.332C194.32 158.138 194.101 158.04 193.801 158.04C193.392 158.04 193.097 158.177 192.915 158.452C192.733 158.723 192.642 159.175 192.642 159.808V162.327H191.181V156.972H192.297L192.493 157.657H192.575C192.738 157.398 192.961 157.204 193.245 157.073C193.533 156.938 193.858 156.871 194.222 156.871C194.845 156.871 195.318 157.041 195.64 157.379C195.963 157.714 196.124 158.2 196.124 158.835V162.327ZM196.862 156.972H198.462L199.472 159.985C199.558 160.247 199.618 160.556 199.649 160.914H199.678C199.713 160.585 199.782 160.275 199.884 159.985L200.876 156.972H202.442L200.176 163.012C199.969 163.571 199.672 163.989 199.285 164.267C198.902 164.545 198.454 164.684 197.939 164.684C197.687 164.684 197.44 164.657 197.197 164.602V163.443C197.373 163.485 197.564 163.505 197.772 163.505C198.03 163.505 198.256 163.426 198.447 163.266C198.642 163.109 198.794 162.872 198.902 162.552L198.988 162.289L196.862 156.972ZM210.556 162.327H209.095V159.199C209.095 158.813 209.03 158.524 208.899 158.332C208.771 158.138 208.568 158.04 208.29 158.04C207.917 158.04 207.645 158.177 207.476 158.452C207.307 158.727 207.222 159.179 207.222 159.808V162.327H205.761V156.972H206.877L207.074 157.657H207.155C207.299 157.411 207.506 157.219 207.778 157.082C208.049 156.942 208.361 156.871 208.712 156.871C209.513 156.871 210.056 157.133 210.341 157.657H210.47C210.614 157.408 210.824 157.215 211.102 157.077C211.383 156.94 211.699 156.871 212.051 156.871C212.657 156.871 213.115 157.028 213.425 157.341C213.738 157.651 213.895 158.149 213.895 158.835V162.327H212.429V159.199C212.429 158.813 212.363 158.524 212.233 158.332C212.105 158.138 211.902 158.04 211.624 158.04C211.267 158.04 210.998 158.168 210.82 158.423C210.644 158.679 210.556 159.084 210.556 159.64V162.327ZM217.616 157.911C217.307 157.911 217.064 158.01 216.888 158.208C216.713 158.403 216.612 158.68 216.587 159.041H218.637C218.63 158.68 218.536 158.403 218.354 158.208C218.172 158.01 217.926 157.911 217.616 157.911ZM217.822 162.423C216.96 162.423 216.286 162.185 215.801 161.709C215.316 161.233 215.073 160.56 215.073 159.688C215.073 158.791 215.296 158.098 215.744 157.609C216.194 157.117 216.815 156.871 217.607 156.871C218.364 156.871 218.953 157.087 219.374 157.518C219.796 157.949 220.007 158.545 220.007 159.305V160.014H216.553C216.569 160.429 216.692 160.753 216.922 160.986C217.152 161.219 217.474 161.336 217.889 161.336C218.212 161.336 218.517 161.302 218.804 161.235C219.092 161.168 219.392 161.061 219.705 160.914V162.044C219.449 162.172 219.176 162.266 218.886 162.327C218.595 162.391 218.241 162.423 217.822 162.423ZM222.89 162.423C222.261 162.423 221.766 162.179 221.405 161.69C221.048 161.201 220.869 160.525 220.869 159.659C220.869 158.781 221.051 158.098 221.415 157.609C221.782 157.117 222.287 156.871 222.928 156.871C223.602 156.871 224.116 157.133 224.471 157.657H224.519C224.445 157.258 224.408 156.902 224.408 156.589V154.874H225.874V162.327H224.753L224.471 161.633H224.408C224.076 162.159 223.57 162.423 222.89 162.423ZM223.403 161.259C223.776 161.259 224.049 161.15 224.222 160.933C224.397 160.716 224.493 160.347 224.509 159.827V159.669C224.509 159.094 224.42 158.682 224.241 158.433C224.065 158.184 223.778 158.059 223.379 158.059C223.053 158.059 222.799 158.198 222.617 158.476C222.438 158.751 222.349 159.151 222.349 159.678C222.349 160.205 222.44 160.601 222.622 160.866C222.804 161.128 223.064 161.259 223.403 161.259ZM227.34 155.588C227.34 155.112 227.605 154.874 228.135 154.874C228.665 154.874 228.93 155.112 228.93 155.588C228.93 155.814 228.863 155.992 228.729 156.119C228.598 156.244 228.4 156.306 228.135 156.306C227.605 156.306 227.34 156.067 227.34 155.588ZM228.863 162.327H227.402V156.972H228.863V162.327ZM232.575 162.423C230.908 162.423 230.075 161.508 230.075 159.678C230.075 158.768 230.302 158.074 230.755 157.595C231.209 157.112 231.858 156.871 232.705 156.871C233.324 156.871 233.88 156.993 234.371 157.235L233.94 158.366C233.71 158.273 233.497 158.198 233.299 158.141C233.101 158.08 232.903 158.05 232.705 158.05C231.945 158.05 231.565 158.589 231.565 159.669C231.565 160.716 231.945 161.24 232.705 161.24C232.986 161.24 233.246 161.203 233.485 161.13C233.725 161.053 233.964 160.935 234.204 160.775V162.025C233.968 162.175 233.728 162.279 233.485 162.337C233.246 162.394 232.942 162.423 232.575 162.423ZM238.85 162.327L238.567 161.599H238.529C238.283 161.909 238.029 162.124 237.768 162.246C237.509 162.364 237.17 162.423 236.752 162.423C236.238 162.423 235.832 162.276 235.535 161.982C235.242 161.688 235.095 161.27 235.095 160.727C235.095 160.159 235.293 159.741 235.689 159.472C236.088 159.201 236.688 159.051 237.49 159.022L238.419 158.993V158.759C238.419 158.216 238.141 157.944 237.585 157.944C237.158 157.944 236.655 158.074 236.077 158.332L235.593 157.346C236.209 157.023 236.893 156.862 237.643 156.862C238.361 156.862 238.912 157.018 239.295 157.331C239.679 157.644 239.87 158.12 239.87 158.759V162.327H238.85ZM238.419 159.846L237.854 159.865C237.429 159.878 237.113 159.955 236.905 160.095C236.698 160.236 236.594 160.449 236.594 160.737C236.594 161.149 236.83 161.355 237.303 161.355C237.641 161.355 237.911 161.257 238.112 161.063C238.317 160.868 238.419 160.609 238.419 160.287V159.846ZM243.635 161.259C243.891 161.259 244.197 161.203 244.555 161.091V162.179C244.191 162.341 243.744 162.423 243.214 162.423C242.629 162.423 242.203 162.276 241.935 161.982C241.67 161.685 241.537 161.241 241.537 160.651V158.069H240.838V157.451L241.643 156.962L242.064 155.832H242.998V156.972H244.497V158.069H242.998V160.651C242.998 160.858 243.056 161.011 243.171 161.11C243.289 161.209 243.444 161.259 243.635 161.259ZM245.58 155.588C245.58 155.112 245.845 154.874 246.375 154.874C246.905 154.874 247.17 155.112 247.17 155.588C247.17 155.814 247.103 155.992 246.969 156.119C246.838 156.244 246.64 156.306 246.375 156.306C245.845 156.306 245.58 156.067 245.58 155.588ZM247.103 162.327H245.642V156.972H247.103V162.327ZM249.805 159.64C249.805 160.17 249.891 160.571 250.063 160.842C250.239 161.114 250.523 161.249 250.916 161.249C251.305 161.249 251.585 161.115 251.754 160.847C251.926 160.576 252.013 160.173 252.013 159.64C252.013 159.11 251.926 158.712 251.754 158.447C251.582 158.182 251.299 158.05 250.906 158.05C250.517 158.05 250.236 158.182 250.063 158.447C249.891 158.709 249.805 159.107 249.805 159.64ZM253.507 159.64C253.507 160.512 253.277 161.193 252.817 161.685C252.358 162.177 251.717 162.423 250.897 162.423C250.383 162.423 249.929 162.311 249.536 162.088C249.144 161.861 248.842 161.537 248.631 161.115C248.42 160.694 248.315 160.202 248.315 159.64C248.315 158.765 248.543 158.085 249 157.599C249.456 157.114 250.098 156.871 250.925 156.871C251.439 156.871 251.893 156.983 252.286 157.207C252.678 157.43 252.98 157.751 253.191 158.169C253.402 158.588 253.507 159.078 253.507 159.64ZM259.657 162.327H258.196V159.199C258.196 158.813 258.128 158.524 257.99 158.332C257.853 158.138 257.634 158.04 257.334 158.04C256.926 158.04 256.63 158.177 256.448 158.452C256.266 158.723 256.175 159.175 256.175 159.808V162.327H254.714V156.972H255.83L256.027 157.657H256.108C256.271 157.398 256.494 157.204 256.779 157.073C257.066 156.938 257.392 156.871 257.756 156.871C258.378 156.871 258.851 157.041 259.174 157.379C259.496 157.714 259.657 158.2 259.657 158.835V162.327ZM264.898 160.737C264.898 161.286 264.706 161.704 264.323 161.992C263.943 162.279 263.373 162.423 262.613 162.423C262.223 162.423 261.891 162.396 261.616 162.341C261.342 162.29 261.085 162.214 260.845 162.112V160.905C261.117 161.032 261.422 161.139 261.76 161.225C262.102 161.312 262.402 161.355 262.661 161.355C263.191 161.355 263.456 161.201 263.456 160.895C263.456 160.78 263.421 160.687 263.35 160.617C263.28 160.544 263.159 160.462 262.986 160.373C262.814 160.28 262.584 160.173 262.297 160.052C261.885 159.879 261.581 159.72 261.387 159.573C261.195 159.426 261.054 159.258 260.965 159.07C260.879 158.878 260.836 158.644 260.836 158.366C260.836 157.89 261.019 157.523 261.387 157.264C261.757 157.002 262.281 156.871 262.958 156.871C263.603 156.871 264.23 157.012 264.84 157.293L264.399 158.347C264.131 158.232 263.88 158.138 263.647 158.064C263.414 157.991 263.176 157.954 262.934 157.954C262.503 157.954 262.287 158.07 262.287 158.304C262.287 158.435 262.356 158.548 262.493 158.644C262.634 158.739 262.938 158.882 263.408 159.07C263.826 159.239 264.133 159.397 264.328 159.544C264.522 159.691 264.666 159.86 264.759 160.052C264.851 160.243 264.898 160.472 264.898 160.737ZM266.593 160.004V159.65C266.593 159.343 266.659 159.076 266.79 158.85C266.92 158.623 267.16 158.382 267.508 158.126C267.843 157.887 268.064 157.692 268.169 157.542C268.278 157.392 268.332 157.224 268.332 157.039C268.332 156.831 268.255 156.673 268.102 156.565C267.949 156.456 267.735 156.402 267.46 156.402C266.981 156.402 266.435 156.558 265.822 156.871L265.3 155.822C266.012 155.423 266.767 155.224 267.565 155.224C268.223 155.224 268.745 155.382 269.132 155.698C269.521 156.014 269.716 156.436 269.716 156.962C269.716 157.314 269.636 157.617 269.477 157.872C269.317 158.128 269.014 158.415 268.567 158.735C268.26 158.961 268.065 159.134 267.982 159.252C267.902 159.37 267.862 159.525 267.862 159.717V160.004H266.593ZM266.44 161.642C266.44 161.374 266.512 161.171 266.655 161.034C266.799 160.897 267.008 160.828 267.283 160.828C267.548 160.828 267.752 160.898 267.896 161.039C268.043 161.179 268.116 161.38 268.116 161.642C268.116 161.894 268.043 162.094 267.896 162.241C267.749 162.385 267.545 162.456 267.283 162.456C267.015 162.456 266.807 162.386 266.66 162.246C266.513 162.102 266.44 161.901 266.44 161.642Z" fill="#565656" />
        <rect x="123.327" y="175.137" width="147" height="20.2453" rx="1.96195" fill="#FAFAFA" />
        <path d="M132.893 186.967C132.97 188.118 133.927 188.868 135.308 188.868C136.807 188.868 137.746 188.123 137.746 186.931C137.746 185.997 137.2 185.478 135.85 185.139L135.168 184.958C134.283 184.728 133.922 184.435 133.922 183.943C133.922 183.306 134.509 182.868 135.353 182.868C136.202 182.868 136.766 183.297 136.838 183.997H137.651C137.615 182.904 136.676 182.137 135.38 182.137C134.026 182.137 133.078 182.895 133.078 183.979C133.078 184.864 133.611 185.392 134.811 185.699L135.647 185.915C136.522 186.141 136.906 186.48 136.906 187.031C136.906 187.672 136.265 188.137 135.385 188.137C134.455 188.137 133.787 187.672 133.71 186.967H132.893ZM140.454 184.665C141.195 184.665 141.687 185.225 141.705 186.01H139.154C139.204 185.229 139.719 184.665 140.454 184.665ZM141.687 187.414C141.556 187.857 141.118 188.159 140.522 188.159C139.678 188.159 139.15 187.568 139.15 186.669V186.624H142.517V186.326C142.517 184.904 141.736 183.983 140.468 183.983C139.172 183.983 138.342 184.972 138.342 186.43C138.342 187.906 139.159 188.841 140.504 188.841C141.529 188.841 142.323 188.236 142.459 187.414H141.687ZM143.353 188.759H144.138V182.245H143.353V188.759ZM147.081 184.665C147.822 184.665 148.314 185.225 148.332 186.01H145.781C145.831 185.229 146.346 184.665 147.081 184.665ZM148.314 187.414C148.183 187.857 147.745 188.159 147.149 188.159C146.305 188.159 145.777 187.568 145.777 186.669V186.624H149.144V186.326C149.144 184.904 148.363 183.983 147.095 183.983C145.799 183.983 144.969 184.972 144.969 186.43C144.969 187.906 145.786 188.841 147.131 188.841C148.156 188.841 148.95 188.236 149.086 187.414H148.314ZM153.839 185.604C153.74 184.76 153.04 183.983 151.867 183.983C150.571 183.983 149.709 184.931 149.709 186.412C149.709 187.924 150.575 188.841 151.876 188.841C152.941 188.841 153.726 188.182 153.848 187.247H153.076C152.941 187.811 152.521 188.15 151.88 188.15C151.068 188.15 150.508 187.505 150.508 186.412C150.508 185.347 151.059 184.674 151.871 184.674C152.562 184.674 152.959 185.094 153.072 185.604H153.839ZM154.823 182.932V184.065H154.124V184.71H154.823V187.541C154.823 188.443 155.158 188.796 156.02 188.796C156.205 188.796 156.422 188.782 156.516 188.759V188.1C156.462 188.109 156.282 188.123 156.191 188.123C155.79 188.123 155.609 187.929 155.609 187.5V184.71H156.521V184.065H155.609V182.932H154.823ZM159.645 190.516C160.493 190.516 160.882 190.186 161.283 189.089L163.13 184.065H162.304L161.004 187.974H160.99L159.69 184.065H158.85L160.584 188.764L160.475 189.094C160.295 189.64 160.051 189.852 159.613 189.852C159.514 189.852 159.392 189.847 159.306 189.829V190.488C159.392 190.507 159.55 190.516 159.645 190.516ZM165.563 188.841C166.859 188.841 167.734 187.906 167.734 186.412C167.734 184.913 166.859 183.983 165.563 183.983C164.263 183.983 163.387 184.913 163.387 186.412C163.387 187.906 164.263 188.841 165.563 188.841ZM165.563 188.15C164.732 188.15 164.186 187.518 164.186 186.412C164.186 185.306 164.732 184.674 165.563 184.674C166.394 184.674 166.935 185.306 166.935 186.412C166.935 187.518 166.394 188.15 165.563 188.15ZM172.384 184.065H171.599V186.823C171.599 187.622 171.138 188.146 170.375 188.146C169.648 188.146 169.292 187.735 169.292 186.972V184.065H168.506V187.112C168.506 188.177 169.107 188.841 170.132 188.841C170.854 188.841 171.341 188.538 171.621 187.997H171.639V188.759H172.384V184.065ZM173.404 188.759H174.19V185.834C174.19 185.171 174.587 184.733 175.197 184.733C175.386 184.733 175.553 184.755 175.616 184.778V184.015C175.553 184.006 175.436 183.983 175.3 183.983C174.75 183.983 174.316 184.313 174.163 184.832H174.145V184.065H173.404V188.759ZM178.153 188.759H178.939V185.816C178.939 185.166 179.39 184.679 180.013 184.679C180.596 184.679 180.975 185.049 180.975 185.613V188.759H181.76V185.776C181.76 185.139 182.198 184.679 182.821 184.679C183.44 184.679 183.796 185.058 183.796 185.699V188.759H184.582V185.518C184.582 184.588 183.981 183.983 183.051 183.983C182.392 183.983 181.842 184.317 181.58 184.877H181.562C181.359 184.308 180.885 183.983 180.244 183.983C179.612 183.983 179.133 184.317 178.912 184.814H178.894V184.065H178.153V188.759ZM187.467 184.665C188.207 184.665 188.699 185.225 188.717 186.01H186.166C186.216 185.229 186.731 184.665 187.467 184.665ZM188.699 187.414C188.568 187.857 188.13 188.159 187.534 188.159C186.69 188.159 186.162 187.568 186.162 186.669V186.624H189.53V186.326C189.53 184.904 188.749 183.983 187.48 183.983C186.184 183.983 185.354 184.972 185.354 186.43C185.354 187.906 186.171 188.841 187.516 188.841C188.541 188.841 189.335 188.236 189.471 187.414H188.699ZM192.103 188.841C192.78 188.841 193.317 188.507 193.62 187.965H193.633V188.759H194.382V182.245H193.597V184.828H193.579C193.299 184.313 192.757 183.983 192.085 183.983C190.902 183.983 190.094 184.94 190.094 186.412C190.094 187.884 190.906 188.841 192.103 188.841ZM192.252 184.674C193.06 184.674 193.601 185.365 193.601 186.412C193.601 187.464 193.06 188.15 192.252 188.15C191.421 188.15 190.897 187.477 190.897 186.412C190.897 185.351 191.421 184.674 192.252 184.674ZM195.484 188.759H196.269V184.065H195.484V188.759ZM195.877 183.275C196.148 183.275 196.369 183.053 196.369 182.787C196.369 182.516 196.148 182.299 195.877 182.299C195.61 182.299 195.389 182.516 195.389 182.787C195.389 183.053 195.61 183.275 195.877 183.275ZM201.231 185.604C201.131 184.76 200.432 183.983 199.258 183.983C197.962 183.983 197.1 184.931 197.1 186.412C197.1 187.924 197.967 188.841 199.267 188.841C200.332 188.841 201.118 188.182 201.24 187.247H200.468C200.332 187.811 199.912 188.15 199.271 188.15C198.459 188.15 197.899 187.505 197.899 186.412C197.899 185.347 198.45 184.674 199.262 184.674C199.953 184.674 200.35 185.094 200.463 185.604H201.231ZM203.51 188.173C202.946 188.173 202.571 187.879 202.571 187.432C202.571 186.99 202.933 186.71 203.565 186.669L204.82 186.593V186.976C204.82 187.653 204.251 188.173 203.51 188.173ZM203.334 188.841C203.966 188.841 204.562 188.489 204.842 187.951H204.86V188.759H205.605V185.514C205.605 184.579 204.91 183.983 203.808 183.983C202.698 183.983 202.003 184.606 201.948 185.419H202.707C202.806 184.958 203.185 184.674 203.79 184.674C204.44 184.674 204.82 185.017 204.82 185.59V185.983L203.474 186.06C202.391 186.123 201.772 186.629 201.772 187.432C201.772 188.276 202.4 188.841 203.334 188.841ZM206.856 182.932V184.065H206.156V184.71H206.856V187.541C206.856 188.443 207.19 188.796 208.052 188.796C208.237 188.796 208.454 188.782 208.548 188.759V188.1C208.494 188.109 208.314 188.123 208.223 188.123C207.822 188.123 207.641 187.929 207.641 187.5V184.71H208.553V184.065H207.641V182.932H206.856ZM209.433 188.759H210.219V184.065H209.433V188.759ZM209.826 183.275C210.097 183.275 210.318 183.053 210.318 182.787C210.318 182.516 210.097 182.299 209.826 182.299C209.56 182.299 209.338 182.516 209.338 182.787C209.338 183.053 209.56 183.275 209.826 183.275ZM213.225 188.841C214.521 188.841 215.397 187.906 215.397 186.412C215.397 184.913 214.521 183.983 213.225 183.983C211.925 183.983 211.049 184.913 211.049 186.412C211.049 187.906 211.925 188.841 213.225 188.841ZM213.225 188.15C212.395 188.15 211.848 187.518 211.848 186.412C211.848 185.306 212.395 184.674 213.225 184.674C214.056 184.674 214.598 185.306 214.598 186.412C214.598 187.518 214.056 188.15 213.225 188.15ZM216.191 188.759H216.977V185.997C216.977 185.202 217.46 184.679 218.2 184.679C218.922 184.679 219.279 185.094 219.279 185.852V188.759H220.064V185.712C220.064 184.647 219.469 183.983 218.439 183.983C217.712 183.983 217.211 184.308 216.95 184.814H216.931V184.065H216.191V188.759ZM220.985 185.36C220.985 186.001 221.392 186.426 222.218 186.638L223.044 186.85C223.572 186.99 223.766 187.17 223.766 187.505C223.766 187.929 223.373 188.2 222.737 188.2C222.1 188.2 221.73 187.938 221.644 187.45H220.859C220.94 188.281 221.658 188.841 222.687 188.841C223.784 188.841 224.556 188.263 224.556 187.446C224.556 186.755 224.213 186.412 223.265 186.173L222.538 185.997C222.006 185.861 221.757 185.645 221.757 185.32C221.757 184.909 222.136 184.624 222.71 184.624C223.288 184.624 223.653 184.904 223.707 185.356H224.457C224.421 184.561 223.707 183.983 222.737 183.983C221.703 183.983 220.985 184.557 220.985 185.36Z" fill="#565656" />
        <path d="M255.686 183.788L258.384 186.731L261.082 183.788" stroke="#565656" stroke-width="0.980973" />
    </g>
    <defs>
        <filter id="filter0_d_4_9" x="42.92" y="0.92" width="210.814" height="89.8693" filterUnits="userSpaceOnUse" color-interpolation-filters="sRGB">
            <feFlood flood-opacity="0" result="BackgroundImageFix" />
            <feColorMatrix in="SourceAlpha" type="matrix" values="0 0 0 0 0 0 0 0 0 0 0 0 0 0 0 0 0 0 127 0" result="hardAlpha" />
            <feOffset dx="-4" dy="-4" />
            <feGaussianBlur stdDeviation="5.54" />
            <feComposite in2="hardAlpha" operator="out" />
            <feColorMatrix type="matrix" values="0 0 0 0 0 0 0 0 0 0 0 0 0 0 0 0 0 0 0.1 0" />
            <feBlend mode="normal" in2="BackgroundImageFix" result="effect1_dropShadow_4_9" />
            <feBlend mode="normal" in="SourceGraphic" in2="effect1_dropShadow_4_9" result="shape" />
        </filter>
        <filter id="filter1_d_4_9" x="143.92" y="41.92" width="210.814" height="89.8693" filterUnits="userSpaceOnUse" color-interpolation-filters="sRGB">
            <feFlood flood-opacity="0" result="BackgroundImageFix" />
            <feColorMatrix in="SourceAlpha" type="matrix" values="0 0 0 0 0 0 0 0 0 0 0 0 0 0 0 0 0 0 127 0" result="hardAlpha" />
            <feOffset dx="-4" dy="-4" />
            <feGaussianBlur stdDeviation="5.54" />
            <feComposite in2="hardAlpha" operator="out" />
            <feColorMatrix type="matrix" values="0 0 0 0 0 0 0 0 0 0 0 0 0 0 0 0 0 0 0.1 0" />
            <feBlend mode="normal" in2="BackgroundImageFix" result="effect1_dropShadow_4_9" />
            <feBlend mode="normal" in="SourceGraphic" in2="effect1_dropShadow_4_9" result="shape" />
        </filter>
        <filter id="filter2_d_4_9" x="0.92" y="82.92" width="210.814" height="89.8693" filterUnits="userSpaceOnUse" color-interpolation-filters="sRGB">
            <feFlood flood-opacity="0" result="BackgroundImageFix" />
            <feColorMatrix in="SourceAlpha" type="matrix" values="0 0 0 0 0 0 0 0 0 0 0 0 0 0 0 0 0 0 127 0" result="hardAlpha" />
            <feOffset dx="-4" dy="-4" />
            <feGaussianBlur stdDeviation="5.54" />
            <feComposite in2="hardAlpha" operator="out" />
            <feColorMatrix type="matrix" values="0 0 0 0 0 0 0 0 0 0 0 0 0 0 0 0 0 0 0.1 0" />
            <feBlend mode="normal" in2="BackgroundImageFix" result="effect1_dropShadow_4_9" />
            <feBlend mode="normal" in="SourceGraphic" in2="effect1_dropShadow_4_9" result="shape" />
        </filter>
        <filter id="filter3_d_4_9" x="95.92" y="124.92" width="210.814" height="89.8693" filterUnits="userSpaceOnUse" color-interpolation-filters="sRGB">
            <feFlood flood-opacity="0" result="BackgroundImageFix" />
            <feColorMatrix in="SourceAlpha" type="matrix" values="0 0 0 0 0 0 0 0 0 0 0 0 0 0 0 0 0 0 127 0" result="hardAlpha" />
            <feOffset dx="-4" dy="-4" />
            <feGaussianBlur stdDeviation="5.54" />
            <feComposite in2="hardAlpha" operator="out" />
            <feColorMatrix type="matrix" values="0 0 0 0 0 0 0 0 0 0 0 0 0 0 0 0 0 0 0.1 0" />
            <feBlend mode="normal" in2="BackgroundImageFix" result="effect1_dropShadow_4_9" />
            <feBlend mode="normal" in="SourceGraphic" in2="effect1_dropShadow_4_9" result="shape" />
        </filter>
    </defs>
</svg>