<svg width="327" height="212" viewBox="0 0 327 212" fill="none" xmlns="http://www.w3.org/2000/svg">
    <path d="M0 93.5928C0 89.9517 2.95171 87 6.59284 87H51.4072C55.0483 87 58 89.9517 58 93.5928V118.899C58 122.54 55.0483 125.492 51.4072 125.492H6.59284C2.95171 125.492 0 122.54 0 118.899V93.5928Z" fill="#DA3363" fill-opacity="0.7" />
    <path d="M12.5257 98.5376L11.8664 98.208L11.2071 98.5376L10.5479 98.208" stroke="white" stroke-width="0.659284" />
    <path d="M20.36 98.5376L21.0193 98.208L21.6786 98.5376L22.3379 98.208" stroke="white" stroke-width="0.659284" />
    <path d="M12.3386 97.0381L11.8815 96.4599L11.1446 96.4786L10.6875 95.9004" stroke="white" stroke-width="0.659284" />
    <path d="M20.5472 97.0381L21.0043 96.4599L21.7411 96.4786L22.1982 95.9004" stroke="white" stroke-width="0.659284" />
    <path d="M13.1922 95.6109L12.9946 94.9007L12.3079 94.6327L12.1104 93.9226" stroke="white" stroke-width="0.659284" />
    <path d="M19.6936 95.6109L19.8912 94.9007L20.5778 94.6327L20.7754 93.9226" stroke="white" stroke-width="0.659284" />
    <path d="M13.5906 98.3465C13.3759 96.7006 14.6573 95.2412 16.3171 95.2412V95.2412C17.977 95.2412 19.2584 96.7006 19.0437 98.3465L18.7369 100.698C18.5784 101.914 17.5429 102.823 16.3171 102.823V102.823C15.0914 102.823 14.0559 101.914 13.8973 100.698L13.5906 98.3465Z" stroke="white" stroke-width="0.659284" />
    <path d="M14.8332 102.164V102.356C14.8332 102.924 14.47 103.427 13.9316 103.607L11.4495 104.434C10.911 104.614 10.5479 105.118 10.5479 105.685V106.449" stroke="white" stroke-width="0.659284" />
    <path d="M17.7996 102.164V102.356C17.7996 102.924 18.1628 103.427 18.7012 103.607L21.1834 104.434C21.7218 104.614 22.085 105.118 22.085 105.685V106.449" stroke="white" stroke-width="0.659284" />
    <path d="M11.6857 118.547H12.5613L10.9131 113.902H9.97634L8.32813 118.547H9.18442L9.58038 117.346H11.2898L11.6857 118.547ZM10.4238 114.723H10.4463L11.0934 116.706H9.77353L10.4238 114.723ZM14.3125 117.324L15.0208 118.547H15.8964L14.8115 116.822L15.9092 115.135H15.0304L14.3512 116.332H14.3351L13.6462 115.135H12.7448L13.8361 116.844L12.7352 118.547H13.5882L14.2964 117.324H14.3125ZM16.3406 118.547H17.1422V115.135H16.3406V118.547ZM16.7398 114.687C16.9909 114.687 17.1873 114.494 17.1873 114.253C17.1873 114.008 16.9909 113.815 16.7398 113.815C16.4919 113.815 16.2955 114.008 16.2955 114.253C16.2955 114.494 16.4919 114.687 16.7398 114.687ZM19.2861 115.685C19.7465 115.685 20.0555 116.023 20.0716 116.506H18.4781C18.5103 116.03 18.8355 115.685 19.2861 115.685ZM20.0748 117.527C19.9879 117.81 19.7046 117.997 19.3312 117.997C18.8065 117.997 18.4717 117.63 18.4717 117.082V117.034H20.8571V116.773C20.8571 115.737 20.2519 115.064 19.2829 115.064C18.2979 115.064 17.6733 115.775 17.6733 116.854C17.6733 117.942 18.2914 118.615 19.3151 118.615C20.1231 118.615 20.7219 118.17 20.8249 117.527H20.0748ZM21.3754 118.547H22.177V116.571C22.177 116.081 22.4699 115.75 22.9302 115.75C23.3874 115.75 23.6127 116.02 23.6127 116.503V118.547H24.4143V116.342C24.4143 115.553 23.9861 115.07 23.2328 115.07C22.7081 115.07 22.3443 115.315 22.1609 115.721H22.1448V115.135H21.3754V118.547ZM25.2802 114.336V115.135H24.7909V115.753H25.2802V117.639C25.2802 118.302 25.5699 118.563 26.3071 118.563C26.4777 118.563 26.6355 118.55 26.7224 118.531V117.919C26.6709 117.929 26.5679 117.935 26.4938 117.935C26.2106 117.935 26.0818 117.807 26.0818 117.527V115.753H26.7256V115.135H26.0818V114.336H25.2802ZM27.6527 119.815C28.4318 119.815 28.8084 119.529 29.1014 118.682L30.3343 115.135H29.4909L28.6861 117.865H28.6732L27.8684 115.135H26.9928L28.2064 118.55C28.2097 118.56 28.1614 118.731 28.1614 118.74C28.0712 119.056 27.9006 119.181 27.569 119.181C27.5208 119.181 27.3791 119.178 27.3373 119.168V119.803C27.3791 119.812 27.6077 119.815 27.6527 119.815Z" fill="white" />
    <path d="M49.7588 107.894L46.4624 104.598L43.166 107.894" stroke="white" stroke-width="0.824105" stroke-linecap="round" stroke-linejoin="round" />
    <path d="M0 9.43197C0 4.22284 4.22283 0 9.43196 0H184.891C190.1 0 194.323 4.22284 194.323 9.43196V63.653C194.323 68.8621 190.1 73.085 184.891 73.085H9.43196C4.22283 73.085 0 68.8621 0 63.653V9.43197Z" fill="#3F72B7" />
    <path d="M32.0015 24.1429C32.7734 23.8542 33.4834 23.4234 34.0942 22.8731C34.1137 22.8569 34.1316 22.8392 34.1496 22.8214C34.1981 22.757 34.2691 22.7129 34.3487 22.6976C34.4282 22.6824 34.5106 22.6971 34.5798 22.7389C34.6148 22.7592 34.6453 22.7862 34.6697 22.8184C34.694 22.8506 34.7116 22.8872 34.7214 22.9263C34.7313 22.9653 34.7332 23.0058 34.7271 23.0456C34.721 23.0854 34.7069 23.1235 34.6858 23.1578C34.4576 23.6593 34.2522 24.1753 33.9817 24.6541C33.442 25.5877 32.7181 26.4036 31.8532 27.0529C31.7831 27.1119 31.7382 27.1952 31.7277 27.2859C31.6658 28.3179 31.6136 29.3499 31.5647 30.3819C31.5533 30.61 31.4295 30.7216 31.1769 30.7216C30.626 30.7216 30.0768 30.7216 29.5275 30.7329C28.7471 30.7372 27.9708 30.846 27.2198 31.0565C26.8691 31.172 26.4983 31.2149 26.1302 31.1826C25.7622 31.1503 25.4047 31.0436 25.0799 30.8688C24.8481 30.7567 24.6481 30.5889 24.4982 30.3808C24.3482 30.1726 24.2529 29.9306 24.221 29.6767C24.2078 29.4182 24.2303 29.1591 24.2878 28.9067C24.3595 28.4489 24.3611 28.4602 23.939 28.3017C20.8881 27.1532 19.0073 24.9954 18.3978 21.8136C18.1071 20.2028 18.3019 18.5426 18.9577 17.0412C19.6135 15.5397 20.7011 14.2637 22.0843 13.3731C23.137 12.6903 24.3294 12.2483 25.5753 12.079C25.7611 12.0531 25.9241 12.0531 26.0186 12.2408C26.0968 12.4025 26.03 12.5384 25.8263 12.6824C24.7346 13.4334 23.9121 14.5099 23.4778 15.7558C22.6629 18.1207 23.0475 20.2963 24.6529 22.2261C24.9604 22.5577 25.2869 22.8715 25.6307 23.1659C25.6592 23.199 25.6993 23.22 25.7429 23.2248C25.7865 23.2297 25.8303 23.2178 25.8654 23.1918C26.0796 23.0767 26.3176 23.0121 26.5609 23.0032C26.8043 22.9942 27.0465 23.041 27.2686 23.14C27.7057 23.3175 28.153 23.4687 28.6083 23.5929C28.8254 23.6346 29.0494 23.6219 29.2602 23.5557C29.7928 23.3917 30.3533 23.3367 30.9079 23.394C31.3822 23.4749 31.7831 23.656 32.0015 24.1429ZM24.5551 12.9606C21.905 13.6076 18.8101 16.3672 18.8965 20.5923C18.9763 24.4745 21.9083 27.1937 24.4687 27.8116C24.4815 27.7767 24.4918 27.7411 24.4997 27.7048C24.5926 27.1678 24.6708 26.6275 24.78 26.0873C24.943 25.2963 24.969 24.4697 25.2852 23.7094C23.6131 22.3717 22.6238 20.6522 22.482 18.5073C22.3402 16.3624 23.0508 14.5167 24.5551 12.9606ZM30.9112 30.1215C30.9194 30.0439 30.9259 30.0131 30.9275 29.9824C31.022 28.7563 31.11 27.5285 31.2143 26.3024C31.2616 25.7524 31.3415 25.2057 31.405 24.6573C31.4458 24.2966 31.3529 24.1607 31.0008 24.0637C30.9503 24.0507 30.9014 24.041 30.8509 24.0329C30.3801 23.9651 29.8997 24.0163 29.4542 24.1817C29.1594 24.2953 28.8359 24.3134 28.5301 24.2335C28.0167 24.0863 27.5082 23.9181 27.0095 23.7256C26.4212 23.4991 25.8018 23.7968 25.6959 24.4001C25.4112 26.0242 25.1298 27.6493 24.8517 29.2755C24.8022 29.4874 24.8281 29.7098 24.9249 29.905C25.0217 30.1001 25.1836 30.256 25.383 30.3463C25.6291 30.4789 25.8999 30.56 26.1788 30.5848C26.4577 30.6095 26.7387 30.5774 27.0046 30.4903C27.8473 30.2503 28.7193 30.1273 29.596 30.1247C30.0328 30.1069 30.4663 30.1069 30.9145 30.1069L30.9112 30.1215ZM33.6052 24.0798C33.1065 24.3063 32.6078 24.5295 32.1123 24.7592C32.0667 24.7802 32.008 24.8288 32.0015 24.8708C31.9445 25.3189 31.8956 25.7686 31.8385 26.2668C32.557 25.6509 33.1557 24.9097 33.6052 24.0798Z" fill="white" stroke="white" stroke-width="0.53115" />
    <path d="M30.8342 13.8372C30.8342 13.7514 30.7999 13.6691 30.7388 13.6084C30.6776 13.5477 30.5947 13.5136 30.5083 13.5136H29.7195V12.7307C29.7195 12.6449 29.6851 12.5626 29.624 12.502C29.5629 12.4413 29.48 12.4072 29.3935 12.4072C29.3071 12.4072 29.2242 12.4413 29.163 12.502C29.1019 12.5626 29.0676 12.6449 29.0676 12.7307V13.5056H28.2869C28.2004 13.5056 28.1175 13.5396 28.0564 13.6003C27.9953 13.661 27.9609 13.7433 27.9609 13.8291C27.9609 13.9149 27.9953 13.9972 28.0564 14.0578C28.1175 14.1185 28.2004 14.1526 28.2869 14.1526H29.0757V14.9355C29.0757 15.0213 29.11 15.1036 29.1712 15.1643C29.2323 15.2249 29.3152 15.259 29.4017 15.259C29.4881 15.259 29.571 15.2249 29.6321 15.1643C29.6933 15.1036 29.7276 15.0213 29.7276 14.9355V14.1607H30.5083C30.5947 14.1607 30.6776 14.1266 30.7388 14.0659C30.7999 14.0053 30.8342 13.923 30.8342 13.8372Z" fill="white" />
    <path d="M33.8996 17.8554H33.207V17.1663C33.207 17.0805 33.1726 16.9982 33.1115 16.9375C33.0504 16.8769 32.9675 16.8428 32.881 16.8428C32.7946 16.8428 32.7117 16.8769 32.6505 16.9375C32.5894 16.9982 32.5551 17.0805 32.5551 17.1663V17.8473H31.8689C31.7825 17.8473 31.6996 17.8814 31.6384 17.942C31.5773 18.0027 31.543 18.085 31.543 18.1708C31.543 18.2566 31.5773 18.3389 31.6384 18.3996C31.6996 18.4602 31.7825 18.4943 31.8689 18.4943H32.5632V19.1818C32.5632 19.2676 32.5976 19.3499 32.6587 19.4106C32.7198 19.4712 32.8027 19.5053 32.8892 19.5053C32.9756 19.5053 33.0585 19.4712 33.1196 19.4106C33.1808 19.3499 33.2151 19.2676 33.2151 19.1818V18.5008H33.8996C33.9861 18.5008 34.069 18.4667 34.1301 18.406C34.1912 18.3454 34.2256 18.2631 34.2256 18.1773C34.2256 18.0915 34.1912 18.0092 34.1301 17.9485C34.069 17.8878 33.9861 17.8538 33.8996 17.8538V17.8554Z" fill="white" />
    <path d="M27.6311 19.5002H26.9368V18.8128C26.9368 18.727 26.9024 18.6447 26.8413 18.584C26.7802 18.5233 26.6973 18.4893 26.6108 18.4893C26.5244 18.4893 26.4415 18.5233 26.3803 18.584C26.3192 18.6447 26.2849 18.727 26.2849 18.8128V19.4938L25.6004 19.4857C25.5139 19.4857 25.431 19.5198 25.3699 19.5804C25.3088 19.6411 25.2744 19.7234 25.2744 19.8092C25.2744 19.895 25.3088 19.9773 25.3699 20.038C25.431 20.0986 25.5139 20.1327 25.6004 20.1327L26.293 20.1408V20.8283C26.293 20.9141 26.3274 20.9964 26.3885 21.057C26.4496 21.1177 26.5325 21.1518 26.619 21.1518C26.7054 21.1518 26.7883 21.1177 26.8495 21.057C26.9106 20.9964 26.9449 20.9141 26.9449 20.8283V20.1473H27.6311C27.7175 20.1473 27.8004 20.1132 27.8616 20.0525C27.9227 19.9919 27.957 19.9096 27.957 19.8238C27.957 19.738 27.9227 19.6557 27.8616 19.595C27.8004 19.5343 27.7175 19.5002 27.6311 19.5002Z" fill="white" />
    <path d="M26.3484 16.7214C26.4349 16.7214 26.5178 16.6873 26.5789 16.6266C26.64 16.566 26.6744 16.4837 26.6744 16.3979V15.7783C26.6744 15.6925 26.64 15.6103 26.5789 15.5496C26.5178 15.4889 26.4349 15.4548 26.3484 15.4548C26.262 15.4548 26.1791 15.4889 26.1179 15.5496C26.0568 15.6103 26.0225 15.6925 26.0225 15.7783V16.3979C26.0225 16.4837 26.0568 16.566 26.1179 16.6266C26.1791 16.6873 26.262 16.7214 26.3484 16.7214Z" fill="white" />
    <path d="M29.8806 18.4814C29.9671 18.4814 30.05 18.4473 30.1111 18.3867C30.1723 18.326 30.2066 18.2437 30.2066 18.1579V17.5384C30.2066 17.4526 30.1723 17.3703 30.1111 17.3096C30.05 17.2489 29.9671 17.2148 29.8806 17.2148C29.7942 17.2148 29.7113 17.2489 29.6502 17.3096C29.589 17.3703 29.5547 17.4526 29.5547 17.5384V18.1579C29.5547 18.2437 29.589 18.326 29.6502 18.3867C29.7113 18.4473 29.7942 18.4814 29.8806 18.4814Z" fill="white" />
    <path d="M31.9959 20.8235C31.9094 20.8235 31.8265 20.8576 31.7654 20.9182C31.7043 20.9789 31.6699 21.0612 31.6699 21.147V21.7665C31.6699 21.8523 31.7043 21.9346 31.7654 21.9953C31.8265 22.056 31.9094 22.0901 31.9959 22.0901C32.0823 22.0901 32.1652 22.056 32.2264 21.9953C32.2875 21.9346 32.3218 21.8523 32.3218 21.7665V21.147C32.3218 21.0612 32.2875 20.9789 32.2264 20.9182C32.1652 20.8576 32.0823 20.8235 31.9959 20.8235Z" fill="white" />
    <path d="M17.8536 45.4529H17.9042L19.3971 50.7361H20.6268L22.5852 43.4338H21.229L19.9639 48.9649H19.9234L18.4558 43.4338H17.302L15.8345 48.9649H15.794L14.5289 43.4338H13.1727L15.1311 50.7361H16.3608L17.8536 45.4529ZM23.3544 50.7361H24.6145V47.6542C24.6145 46.8648 25.075 46.3385 25.834 46.3385C26.5628 46.3385 26.9372 46.7889 26.9372 47.5378V50.7361H28.1973V47.2798C28.1973 46.0501 27.504 45.2707 26.3199 45.2707C25.5051 45.2707 24.913 45.6402 24.6246 46.293H24.5993V43.4338H23.3544V50.7361ZM31.1678 49.8707C30.6213 49.8707 30.2569 49.5924 30.2569 49.1521C30.2569 48.7271 30.6061 48.4538 31.2134 48.4133L32.4532 48.3374V48.7473C32.4532 49.3951 31.8813 49.8707 31.1678 49.8707ZM30.7883 50.8221C31.4765 50.8221 32.1496 50.4628 32.4582 49.8809H32.4835V50.7361H33.6981V47.0419C33.6981 45.964 32.8327 45.2606 31.5018 45.2606C30.1355 45.2606 29.2802 45.9792 29.2246 46.9812H30.3936C30.4745 46.5359 30.8541 46.2474 31.4512 46.2474C32.0736 46.2474 32.4532 46.5713 32.4532 47.133V47.5176L31.0362 47.5986C29.7306 47.6795 28.9969 48.2514 28.9969 49.2028C28.9969 50.1693 29.7509 50.8221 30.7883 50.8221ZM35.0644 44.117V45.372H34.2952V46.3436H35.0644V49.309C35.0644 50.3515 35.5198 50.7614 36.6787 50.7614C36.9469 50.7614 37.1949 50.7411 37.3315 50.7108V49.7493C37.2505 49.7645 37.0886 49.7746 36.9722 49.7746C36.5269 49.7746 36.3245 49.5722 36.3245 49.1319V46.3436H37.3366V45.372H36.3245V44.117H35.0644ZM40.302 50.7361H41.5621V45.372H40.302V50.7361ZM40.9295 44.6685C41.3242 44.6685 41.6329 44.3649 41.6329 43.9854C41.6329 43.6008 41.3242 43.2971 40.9295 43.2971C40.5399 43.2971 40.2312 43.6008 40.2312 43.9854C40.2312 44.3649 40.5399 44.6685 40.9295 44.6685ZM42.5236 46.9103C42.5236 47.6846 43.0246 48.2008 44.0164 48.4336L44.9931 48.6613C45.5143 48.7929 45.7117 48.9598 45.7117 49.2736C45.7117 49.6734 45.3322 49.9213 44.7198 49.9213C44.0822 49.9213 43.7027 49.6481 43.6268 49.1572H42.3869C42.473 50.1744 43.3282 50.8424 44.6743 50.8424C46.0305 50.8424 46.9667 50.1592 46.9667 49.1471C46.9667 48.3526 46.5467 47.9376 45.4738 47.6846L44.5174 47.4721C43.9911 47.3455 43.7482 47.1431 43.7482 46.8395C43.7482 46.4498 44.1126 46.1867 44.6692 46.1867C45.2562 46.1867 45.6257 46.4701 45.6661 46.9306H46.8402C46.8098 45.9387 45.9546 45.2606 44.6945 45.2606C43.3889 45.2606 42.5236 45.9286 42.5236 46.9103ZM50.4433 52.7299C51.6679 52.7299 52.26 52.2795 52.7205 50.9486L54.6587 45.372H53.3328L52.0677 49.6633H52.0474L50.7823 45.372H49.4059L51.3137 50.7411C51.3187 50.7563 51.2428 51.0245 51.2428 51.0397C51.1011 51.5356 50.8329 51.733 50.3117 51.733C50.2358 51.733 50.0131 51.7279 49.9473 51.7128V52.7097C50.0131 52.7249 50.3724 52.7299 50.4433 52.7299ZM57.4824 50.8424C59.0562 50.8424 60.0785 49.7948 60.0785 48.054C60.0785 46.3183 59.0461 45.2606 57.4824 45.2606C55.9187 45.2606 54.8864 46.3233 54.8864 48.054C54.8864 49.7948 55.9086 50.8424 57.4824 50.8424ZM57.4824 49.8454C56.6829 49.8454 56.1667 49.1977 56.1667 48.054C56.1667 46.9154 56.6879 46.2626 57.4824 46.2626C58.282 46.2626 58.7981 46.9154 58.7981 48.054C58.7981 49.1977 58.282 49.8454 57.4824 49.8454ZM65.645 45.372H64.3849V48.474C64.3849 49.2534 63.9346 49.7695 63.2058 49.7695C62.4974 49.7695 62.1229 49.3546 62.1229 48.5854V45.372H60.8628V48.8384C60.8628 50.0782 61.6017 50.8322 62.7656 50.8322C63.5803 50.8322 64.1218 50.4578 64.4052 49.805H64.4305V50.7361H65.645V45.372ZM66.6773 50.7361H67.9374V47.6138C67.9374 46.8597 68.3675 46.3992 69.0811 46.3992C69.2936 46.3992 69.4859 46.4296 69.5922 46.4701V45.3315C69.5011 45.3112 69.3594 45.2809 69.1975 45.2809C68.5649 45.2809 68.0943 45.6553 67.9121 46.3081H67.8868V45.372H66.6773V50.7361ZM13.3751 58.9103C13.3751 59.6846 13.8761 60.2008 14.8679 60.4336L15.8446 60.6613C16.3659 60.7929 16.5632 60.9598 16.5632 61.2736C16.5632 61.6734 16.1837 61.9213 15.5714 61.9213C14.9337 61.9213 14.5542 61.6481 14.4783 61.1572H13.2385C13.3245 62.1744 14.1797 62.8424 15.5258 62.8424C16.882 62.8424 17.8182 62.1592 17.8182 61.1471C17.8182 60.3526 17.3982 59.9376 16.3254 59.6846L15.3689 59.4721C14.8426 59.3455 14.5997 59.1431 14.5997 58.8395C14.5997 58.4498 14.9641 58.1867 15.5208 58.1867C16.1078 58.1867 16.4772 58.4701 16.5177 58.9306H17.6917C17.6613 57.9387 16.8061 57.2606 15.5461 57.2606C14.2404 57.2606 13.3751 57.9286 13.3751 58.9103ZM18.6583 62.7361H19.9183V55.4338H18.6583V62.7361ZM23.3038 58.2373C24.0275 58.2373 24.5133 58.7687 24.5386 59.5277H22.0336C22.0842 58.7788 22.5953 58.2373 23.3038 58.2373ZM24.5436 61.1319C24.407 61.5772 23.9617 61.8707 23.3746 61.8707C22.5498 61.8707 22.0235 61.2938 22.0235 60.4336V60.3576H25.7733V59.9477C25.7733 58.3183 24.8219 57.2606 23.2987 57.2606C21.7502 57.2606 20.7685 58.379 20.7685 60.0743C20.7685 61.7847 21.7401 62.8424 23.3493 62.8424C24.6195 62.8424 25.5608 62.144 25.7227 61.1319H24.5436ZM28.9007 58.2373C29.6244 58.2373 30.1102 58.7687 30.1355 59.5277H27.6305C27.6811 58.7788 28.1922 58.2373 28.9007 58.2373ZM30.1405 61.1319C30.0039 61.5772 29.5586 61.8707 28.9716 61.8707C28.1467 61.8707 27.6204 61.2938 27.6204 60.4336V60.3576H31.3702V59.9477C31.3702 58.3183 30.4189 57.2606 28.8957 57.2606C27.3471 57.2606 26.3654 58.379 26.3654 60.0743C26.3654 61.7847 27.337 62.8424 28.9463 62.8424C30.2164 62.8424 31.1577 62.144 31.3196 61.1319H30.1405ZM35.1302 57.2809C34.3509 57.2809 33.7436 57.6756 33.44 58.298H33.4147V57.372H32.185V64.5022H33.445V61.8454H33.4703C33.7639 62.4476 34.3711 62.8221 35.1504 62.8221C36.4965 62.8221 37.3568 61.7645 37.3568 60.054C37.3568 58.3385 36.4915 57.2809 35.1302 57.2809ZM34.7456 61.7898C33.9612 61.7898 33.44 61.1066 33.4349 60.054C33.44 59.0116 33.9612 58.3183 34.7456 58.3183C35.5603 58.3183 36.0664 58.9964 36.0664 60.054C36.0664 61.1167 35.5603 61.7898 34.7456 61.7898ZM43.1865 57.2809C42.4072 57.2809 41.7999 57.6756 41.4963 58.298H41.471V57.372H40.2413V64.5022H41.5014V61.8454H41.5267C41.8202 62.4476 42.4274 62.8221 43.2067 62.8221C44.5528 62.8221 45.4131 61.7645 45.4131 60.054C45.4131 58.3385 44.5478 57.2809 43.1865 57.2809ZM42.8019 61.7898C42.0175 61.7898 41.4963 61.1066 41.4912 60.054C41.4963 59.0116 42.0175 58.3183 42.8019 58.3183C43.6166 58.3183 44.1227 58.9964 44.1227 60.054C44.1227 61.1167 43.6166 61.7898 42.8019 61.7898ZM46.2228 62.7361H47.4829V59.6138C47.4829 58.8597 47.913 58.3992 48.6265 58.3992C48.8391 58.3992 49.0314 58.4296 49.1376 58.4701V57.3315C49.0466 57.3112 48.9049 57.2809 48.7429 57.2809C48.1104 57.2809 47.6397 57.6553 47.4576 58.3081H47.4323V57.372H46.2228V62.7361ZM51.9563 62.8424C53.5302 62.8424 54.5524 61.7948 54.5524 60.054C54.5524 58.3183 53.52 57.2606 51.9563 57.2606C50.3927 57.2606 49.3603 58.3233 49.3603 60.054C49.3603 61.7948 50.3825 62.8424 51.9563 62.8424ZM51.9563 61.8454C51.1568 61.8454 50.6406 61.1977 50.6406 60.054C50.6406 58.9154 51.1618 58.2626 51.9563 58.2626C52.7559 58.2626 53.2721 58.9154 53.2721 60.054C53.2721 61.1977 52.7559 61.8454 51.9563 61.8454ZM58.3629 62.8221C59.7192 62.8221 60.5744 61.7695 60.5744 60.054C60.5744 58.3385 59.7141 57.2809 58.3629 57.2809C57.6039 57.2809 56.9915 57.6655 56.6879 58.293H56.6576V55.4338H55.3975V62.7361H56.6323V61.8201H56.6576C56.9713 62.4426 57.5735 62.8221 58.3629 62.8221ZM57.9733 58.3183C58.7779 58.3183 59.284 58.9913 59.284 60.054C59.284 61.1218 58.783 61.7898 57.9733 61.7898C57.194 61.7898 56.6525 61.1066 56.6525 60.054C56.6525 59.0116 57.194 58.3183 57.9733 58.3183ZM61.4296 62.7361H62.6897V55.4338H61.4296V62.7361ZM66.0751 58.2373C66.7988 58.2373 67.2846 58.7687 67.3099 59.5277H64.805C64.8556 58.7788 65.3667 58.2373 66.0751 58.2373ZM67.315 61.1319C67.1783 61.5772 66.733 61.8707 66.146 61.8707C65.3211 61.8707 64.7948 61.2938 64.7948 60.4336V60.3576H68.5447V59.9477C68.5447 58.3183 67.5933 57.2606 66.0701 57.2606C64.5216 57.2606 63.5398 58.379 63.5398 60.0743C63.5398 61.7847 64.5114 62.8424 66.1207 62.8424C67.3909 62.8424 68.3321 62.144 68.4941 61.1319H67.315ZM69.3594 62.7361H70.6195V59.4518C70.6195 58.8041 71.0446 58.3334 71.6518 58.3334C72.2388 58.3334 72.6032 58.7029 72.6032 59.3V62.7361H73.8278V59.4215C73.8278 58.7788 74.2428 58.3334 74.85 58.3334C75.4674 58.3334 75.8115 58.7079 75.8115 59.3658V62.7361H77.0716V59.0571C77.0716 57.9843 76.3783 57.2707 75.3207 57.2707C74.5464 57.2707 73.9088 57.6857 73.6507 58.3486H73.6203C73.423 57.6604 72.8815 57.2707 72.1224 57.2707C71.3937 57.2707 70.827 57.6806 70.5942 58.3031H70.5689V57.372H69.3594V62.7361ZM77.8408 57.4327H79.03C79.0705 56.8052 79.4905 56.4054 80.1433 56.4054C80.781 56.4054 81.206 56.7951 81.206 57.3315C81.206 57.8325 80.9935 58.1057 80.366 58.4853C79.6676 58.8952 79.3741 59.3506 79.4197 60.0996L79.4247 60.4589H80.5988V60.1654C80.5988 59.6593 80.786 59.3962 81.4489 59.0116C82.1372 58.6017 82.5218 58.0602 82.5218 57.2859C82.5218 56.1726 81.5957 55.3731 80.2091 55.3731C78.7061 55.3731 77.8813 56.2435 77.8408 57.4327ZM80.0269 62.8373C80.4368 62.8373 80.7607 62.5185 80.7607 62.1187C80.7607 61.7189 80.4368 61.4052 80.0269 61.4052C79.617 61.4052 79.2881 61.7189 79.2881 62.1187C79.2881 62.5185 79.617 62.8373 80.0269 62.8373Z" fill="white" />
    <path d="M181.368 39.1335L176.186 33.9516L171.004 39.1335" stroke="white" stroke-width="1.29549" stroke-linecap="round" stroke-linejoin="round" />
    <rect x="9.43164" y="142" width="176.155" height="43.8417" rx="10.3639" fill="#F0F0F0" />
    <g clip-path="url(#clip0_1982_22894)">
        <path d="M26.7611 162.235H30.1232C30.4874 162.235 30.7816 161.947 30.7816 161.591C30.7816 161.235 30.4874 160.947 30.1232 160.947H26.7611C26.3969 160.947 26.1027 161.235 26.1027 161.591C26.1027 161.947 26.3969 162.235 26.7611 162.235Z" stroke="black" stroke-opacity="0.7" stroke-width="1.29549" stroke-miterlimit="10" />
        <path d="M29.8014 164.222L33.3176 170.17C33.7519 170.924 33.2055 171.869 32.309 171.869H24.5902C23.6937 171.869 23.1333 170.924 23.5816 170.17L27.0978 164.222V162.235H29.8014V164.222Z" stroke="black" stroke-opacity="0.7" stroke-width="1.29549" stroke-miterlimit="10" />
        <path d="M32.6039 155.972V157.891L31.5953 158.467L30.4746 159.097L31.5953 159.741L32.6039 160.317V165.017C32.6039 166.237 33.6125 167.224 34.8593 167.224H39.8184C41.0652 167.224 42.0738 166.237 42.0738 165.017V158.179C42.0738 156.959 41.0652 155.972 39.8184 155.972H32.6039Z" stroke="black" stroke-opacity="0.7" stroke-width="1.29549" stroke-miterlimit="10" />
        <path d="M37.5198 159.481C37.7055 159.481 37.856 159.334 37.856 159.152C37.856 158.97 37.7055 158.823 37.5198 158.823C37.3341 158.823 37.1836 158.97 37.1836 159.152C37.1836 159.334 37.3341 159.481 37.5198 159.481Z" stroke="black" stroke-opacity="0.7" stroke-width="1.29549" stroke-miterlimit="10" />
        <path d="M35.8535 161.112L36.3718 160.92C36.9602 160.714 37.5486 161.221 37.4225 161.811L37.0302 163.579C36.8902 164.223 37.5766 164.73 38.179 164.428L38.5152 164.25" stroke="black" stroke-opacity="0.7" stroke-width="1.29549" stroke-miterlimit="10" />
    </g>
    <path d="M60.2442 160.921L58.0986 154.742H58.0581C58.1155 155.66 58.1441 156.52 58.1441 157.323V160.921H57.046V153.522H58.7514L60.806 159.408H60.8363L62.9516 153.522H64.6621V160.921H63.4981V157.262C63.4981 156.894 63.5066 156.415 63.5235 155.825C63.5437 155.235 63.5606 154.877 63.5741 154.752H63.5336L61.312 160.921H60.2442ZM68.9281 161.022C68.0577 161.022 67.3762 160.769 66.8836 160.263C66.3944 159.754 66.1499 159.054 66.1499 158.163C66.1499 157.249 66.3776 156.53 66.833 156.007C67.2885 155.484 67.9143 155.223 68.7105 155.223C69.4493 155.223 70.0329 155.447 70.4614 155.896C70.8899 156.345 71.1041 156.962 71.1041 157.748V158.391H67.3745C67.3914 158.934 67.5381 159.352 67.8148 159.646C68.0914 159.936 68.4811 160.081 68.9837 160.081C69.3144 160.081 69.6214 160.05 69.9047 159.99C70.1915 159.926 70.4985 159.821 70.8258 159.676V160.643C70.5356 160.781 70.2421 160.879 69.9452 160.936C69.6483 160.993 69.3093 161.022 68.9281 161.022ZM68.7105 156.124C68.3326 156.124 68.029 156.243 67.7996 156.483C67.5735 156.722 67.4386 157.072 67.3947 157.53H69.9351C69.9284 157.068 69.817 156.719 69.6011 156.483C69.3852 156.243 69.0883 156.124 68.7105 156.124ZM73.6445 160.921H72.4552V153.047H73.6445V160.921ZM78.8517 160.921L78.6139 160.142H78.5734C78.3035 160.482 78.0319 160.715 77.7586 160.84C77.4854 160.961 77.1345 161.022 76.7061 161.022C76.1561 161.022 75.726 160.874 75.4156 160.577C75.1086 160.28 74.9551 159.86 74.9551 159.317C74.9551 158.74 75.1693 158.305 75.5978 158.011C76.0263 157.718 76.6791 157.557 77.5562 157.53L78.5228 157.5V157.201C78.5228 156.844 78.4384 156.577 78.2697 156.402C78.1044 156.223 77.8464 156.134 77.4955 156.134C77.2087 156.134 76.9338 156.176 76.6706 156.26C76.4075 156.345 76.1545 156.444 75.9116 156.559L75.527 155.709C75.8306 155.55 76.1629 155.43 76.5239 155.349C76.8849 155.265 77.2256 155.223 77.5461 155.223C78.2579 155.223 78.7944 155.378 79.1553 155.688C79.5197 155.999 79.7019 156.486 79.7019 157.151V160.921H78.8517ZM77.0805 160.111C77.5124 160.111 77.8582 159.991 78.1179 159.752C78.3811 159.509 78.5127 159.17 78.5127 158.735V158.249L77.7941 158.279C77.234 158.3 76.8258 158.394 76.5694 158.563C76.3164 158.728 76.1899 158.983 76.1899 159.327C76.1899 159.576 76.2641 159.77 76.4125 159.909C76.561 160.044 76.7836 160.111 77.0805 160.111ZM83.4466 160.061C83.7368 160.061 84.0269 160.015 84.317 159.924V160.82C84.1855 160.877 84.0151 160.924 83.8059 160.961C83.6001 161.002 83.3859 161.022 83.1633 161.022C82.0364 161.022 81.473 160.428 81.473 159.241V156.225H80.7089V155.698L81.5287 155.263L81.9335 154.079H82.6673V155.324H84.2614V156.225H82.6673V159.221C82.6673 159.507 82.7382 159.72 82.8799 159.858C83.0249 159.993 83.2139 160.061 83.4466 160.061ZM90.4048 158.112C90.4048 159.027 90.1704 159.74 89.7014 160.253C89.2325 160.766 88.5797 161.022 87.743 161.022C87.2201 161.022 86.7579 160.904 86.3564 160.668C85.955 160.432 85.6463 160.093 85.4304 159.651C85.2144 159.209 85.1065 158.696 85.1065 158.112C85.1065 157.205 85.3393 156.496 85.8048 155.987C86.2704 155.477 86.9266 155.223 87.7734 155.223C88.583 155.223 89.224 155.484 89.6964 156.007C90.1687 156.527 90.4048 157.228 90.4048 158.112ZM86.3311 158.112C86.3311 159.404 86.8085 160.05 87.7632 160.05C88.7079 160.05 89.1802 159.404 89.1802 158.112C89.1802 156.834 88.7045 156.194 87.7531 156.194C87.2538 156.194 86.8912 156.36 86.6651 156.69C86.4425 157.021 86.3311 157.495 86.3311 158.112ZM96.7001 160.921H95.5058V157.48C95.5058 157.048 95.4181 156.726 95.2427 156.513C95.0706 156.301 94.7957 156.194 94.4178 156.194C93.9151 156.194 93.5474 156.343 93.3146 156.64C93.0818 156.937 92.9654 157.434 92.9654 158.133V160.921H91.7762V155.324H92.7074L92.8743 156.058H92.9351C93.1038 155.791 93.3433 155.585 93.6537 155.44C93.964 155.295 94.3082 155.223 94.686 155.223C96.0287 155.223 96.7001 155.906 96.7001 157.272V160.921ZM99.5441 160.921H98.3549V155.324H99.5441V160.921ZM98.284 153.841C98.284 153.629 98.3414 153.465 98.4561 153.35C98.5742 153.236 98.7412 153.178 98.9571 153.178C99.1662 153.178 99.3282 153.236 99.4429 153.35C99.561 153.465 99.62 153.629 99.62 153.841C99.62 154.044 99.561 154.204 99.4429 154.322C99.3282 154.437 99.1662 154.494 98.9571 154.494C98.7412 154.494 98.5742 154.437 98.4561 154.322C98.3414 154.204 98.284 154.044 98.284 153.841ZM106.173 160.921H104.979V157.48C104.979 157.048 104.891 156.726 104.716 156.513C104.544 156.301 104.269 156.194 103.891 156.194C103.388 156.194 103.021 156.343 102.788 156.64C102.555 156.937 102.439 157.434 102.439 158.133V160.921H101.249V155.324H102.181L102.348 156.058H102.408C102.577 155.791 102.817 155.585 103.127 155.44C103.437 155.295 103.781 155.223 104.159 155.223C105.502 155.223 106.173 155.906 106.173 157.272V160.921Z" fill="black" />
    <path d="M58.888 170.402C59.6674 170.402 60.2797 170.596 60.725 170.984C61.1737 171.368 61.398 171.896 61.398 172.568C61.398 173.334 61.1535 173.934 60.6643 174.369C60.1785 174.805 59.5071 175.022 58.6502 175.022C57.8169 175.022 57.181 174.889 56.7424 174.622V173.813C56.9785 173.964 57.272 174.084 57.6229 174.172C57.9738 174.256 58.3196 174.298 58.6603 174.298C59.2541 174.298 59.7146 174.158 60.0418 173.878C60.3724 173.598 60.5378 173.194 60.5378 172.664C60.5378 171.632 59.9052 171.115 58.6401 171.115C58.3196 171.115 57.8911 171.164 57.3547 171.262L56.9195 170.984L57.1978 167.522H60.8768V168.297H57.9164L57.7292 170.518C58.1172 170.441 58.5034 170.402 58.888 170.402ZM72.6526 174.921V171.313C72.6526 170.871 72.5581 170.54 72.3692 170.321C72.1803 170.098 71.8868 169.987 71.4887 169.987C70.9658 169.987 70.5795 170.137 70.3298 170.437C70.0802 170.738 69.9553 171.2 69.9553 171.824V174.921H69.1153V171.313C69.1153 170.871 69.0208 170.54 68.8319 170.321C68.643 170.098 68.3478 169.987 67.9463 169.987C67.42 169.987 67.0338 170.145 66.7875 170.463C66.5446 170.776 66.4231 171.293 66.4231 172.011V174.921H65.5831V169.375H66.2662L66.4029 170.134H66.4434C66.6019 169.864 66.8246 169.653 67.1113 169.501C67.4015 169.349 67.7254 169.273 68.083 169.273C68.95 169.273 69.5168 169.587 69.7833 170.215H69.8238C69.9891 169.924 70.2286 169.695 70.5424 169.526C70.8561 169.358 71.2137 169.273 71.6152 169.273C72.2427 169.273 72.7116 169.435 73.022 169.759C73.3358 170.08 73.4926 170.594 73.4926 171.303V174.921H72.6526ZM79.7677 169.375V169.906L78.7404 170.027C78.8348 170.145 78.9192 170.301 78.9934 170.493C79.0676 170.682 79.1047 170.896 79.1047 171.136C79.1047 171.679 78.9192 172.112 78.5481 172.436C78.177 172.76 77.6675 172.922 77.0198 172.922C76.8545 172.922 76.6993 172.909 76.5542 172.882C76.1966 173.07 76.0178 173.308 76.0178 173.595C76.0178 173.747 76.0802 173.86 76.2051 173.934C76.3299 174.005 76.5441 174.04 76.8477 174.04H77.8295C78.43 174.04 78.8905 174.167 79.211 174.42C79.5349 174.673 79.6968 175.041 79.6968 175.523C79.6968 176.137 79.4505 176.604 78.958 176.925C78.4654 177.249 77.7468 177.411 76.8022 177.411C76.0769 177.411 75.5168 177.276 75.1221 177.006C74.7308 176.736 74.5351 176.355 74.5351 175.862C74.5351 175.525 74.6431 175.233 74.859 174.987C75.0749 174.74 75.3785 174.573 75.7699 174.486C75.6282 174.422 75.5084 174.322 75.4106 174.187C75.3161 174.052 75.2689 173.895 75.2689 173.716C75.2689 173.514 75.3229 173.337 75.4308 173.185C75.5388 173.033 75.7091 172.887 75.9419 172.745C75.6552 172.627 75.4207 172.426 75.2385 172.143C75.0597 171.859 74.9703 171.535 74.9703 171.171C74.9703 170.564 75.1525 170.097 75.5168 169.769C75.8812 169.439 76.3974 169.273 77.0653 169.273C77.3555 169.273 77.6169 169.307 77.8497 169.375H79.7677ZM75.3448 175.852C75.3448 176.152 75.4713 176.38 75.7243 176.535C75.9773 176.69 76.34 176.768 76.8123 176.768C77.5174 176.768 78.0387 176.662 78.376 176.449C78.7168 176.24 78.8871 175.955 78.8871 175.594C78.8871 175.294 78.7944 175.085 78.6088 174.966C78.4232 174.852 78.0741 174.794 77.5613 174.794H76.5542C76.173 174.794 75.8761 174.885 75.6636 175.068C75.451 175.25 75.3448 175.511 75.3448 175.852ZM75.8002 171.151C75.8002 171.539 75.9099 171.832 76.1292 172.031C76.3484 172.23 76.6538 172.33 77.0451 172.33C77.8649 172.33 78.2748 171.932 78.2748 171.136C78.2748 170.302 77.8598 169.886 77.0299 169.886C76.6352 169.886 76.3316 169.992 76.119 170.205C75.9065 170.417 75.8002 170.732 75.8002 171.151Z" fill="#3F72B7" />
    <path d="M160.398 161.28L159.813 161.002L159.813 161.002L160.398 161.28ZM163.835 157.876L163.562 157.288L163.835 157.876ZM168.652 157.45L168.487 158.077V158.077L168.652 157.45ZM172.632 160.199L169.427 153.441L165.177 159.595L172.632 160.199ZM167.481 157.244L167.422 157.889L167.481 157.244ZM160.555 165.934C160.183 164.47 160.335 162.922 160.983 161.558L159.813 161.002C159.035 162.638 158.853 164.496 159.299 166.253L160.555 165.934ZM160.983 161.558C161.632 160.194 162.737 159.099 164.107 158.464L163.562 157.288C161.918 158.051 160.592 159.365 159.813 161.002L160.983 161.558ZM164.107 158.464C165.148 157.981 166.292 157.786 167.422 157.889L167.54 156.599C166.184 156.475 164.811 156.709 163.562 157.288L164.107 158.464ZM167.422 157.889C167.78 157.922 168.136 157.984 168.487 158.077L168.818 156.824C168.396 156.713 167.969 156.638 167.54 156.599L167.422 157.889Z" fill="black" fill-opacity="0.7" />
    <path d="M171.941 166.562L172.526 166.84L172.526 166.84L171.941 166.562ZM168.505 169.966L168.778 170.553L168.505 169.966ZM163.688 170.391L163.853 169.765V169.765L163.688 170.391ZM159.708 167.643L162.912 174.401L167.163 168.247L159.708 167.643ZM164.859 170.598L164.918 169.953L164.859 170.598ZM171.785 161.908C172.157 163.372 172.005 164.92 171.356 166.284L172.526 166.84C173.305 165.203 173.487 163.346 173.04 161.589L171.785 161.908ZM171.356 166.284C170.708 167.648 169.603 168.742 168.233 169.378L168.778 170.553C170.422 169.791 171.748 168.477 172.526 166.84L171.356 166.284ZM168.233 169.378C167.192 169.861 166.048 170.056 164.918 169.953L164.8 171.243C166.156 171.367 167.529 171.133 168.778 170.553L168.233 169.378ZM164.918 169.953C164.56 169.92 164.204 169.858 163.853 169.765L163.522 171.018C163.943 171.129 164.371 171.204 164.8 171.243L164.918 169.953Z" fill="black" fill-opacity="0.7" />
    <g filter="url(#filter0_bd_1982_22894)">
        <rect x="77" y="165.58" width="176.155" height="43.8417" rx="10.3639" fill="#F0F0F0" fill-opacity="0.4" shape-rendering="crispEdges" />
        <g clip-path="url(#clip1_1982_22894)">
            <path d="M94.3285 185.815H97.6906C98.0548 185.815 98.349 185.527 98.349 185.171C98.349 184.814 98.0548 184.527 97.6906 184.527H94.3285C93.9643 184.527 93.6701 184.814 93.6701 185.171C93.6701 185.527 93.9643 185.815 94.3285 185.815Z" stroke="black" stroke-opacity="0.7" stroke-width="1.29549" stroke-miterlimit="10" />
            <path d="M97.3688 187.802L100.885 193.75C101.319 194.503 100.773 195.449 99.8764 195.449H92.1576C91.2611 195.449 90.7007 194.503 91.149 193.75L94.6652 187.802V185.815H97.3688V187.802Z" stroke="black" stroke-opacity="0.7" stroke-width="1.29549" stroke-miterlimit="10" />
            <path d="M100.171 179.552V181.471L99.1627 182.046L98.042 182.677L99.1627 183.321L100.171 183.897V188.597C100.171 189.817 101.18 190.804 102.427 190.804H107.386C108.633 190.804 109.641 189.817 109.641 188.597V181.759C109.641 180.539 108.633 179.552 107.386 179.552H100.171Z" stroke="black" stroke-opacity="0.7" stroke-width="1.29549" stroke-miterlimit="10" />
            <path d="M105.087 183.061C105.273 183.061 105.423 182.913 105.423 182.732C105.423 182.55 105.273 182.403 105.087 182.403C104.902 182.403 104.751 182.55 104.751 182.732C104.751 182.913 104.902 183.061 105.087 183.061Z" stroke="black" stroke-opacity="0.7" stroke-width="1.29549" stroke-miterlimit="10" />
            <path d="M103.422 184.691L103.94 184.499C104.529 184.294 105.117 184.801 104.991 185.39L104.599 187.158C104.459 187.802 105.145 188.309 105.747 188.008L106.084 187.83" stroke="black" stroke-opacity="0.7" stroke-width="1.29549" stroke-miterlimit="10" />
        </g>
        <path d="M129.513 179.339C129.513 180.112 129.26 180.704 128.754 181.115C128.248 181.527 127.528 181.733 126.593 181.733H125.824V184.501H124.614V177.102H126.745C127.669 177.102 128.361 177.291 128.82 177.669C129.282 178.047 129.513 178.604 129.513 179.339ZM125.824 180.715H126.467C127.087 180.715 127.543 180.608 127.833 180.392C128.123 180.176 128.268 179.838 128.268 179.38C128.268 178.954 128.138 178.637 127.878 178.428C127.619 178.219 127.214 178.114 126.664 178.114H125.824V180.715ZM134.366 184.501L134.128 183.721H134.088C133.818 184.062 133.546 184.295 133.273 184.42C133 184.541 132.649 184.602 132.22 184.602C131.67 184.602 131.24 184.454 130.93 184.157C130.623 183.86 130.469 183.44 130.469 182.897C130.469 182.32 130.684 181.884 131.112 181.591C131.541 181.297 132.193 181.137 133.07 181.11L134.037 181.08V180.781C134.037 180.424 133.953 180.157 133.784 179.982C133.619 179.803 133.361 179.713 133.01 179.713C132.723 179.713 132.448 179.756 132.185 179.84C131.922 179.924 131.669 180.024 131.426 180.139L131.041 179.288C131.345 179.13 131.677 179.01 132.038 178.929C132.399 178.845 132.74 178.803 133.06 178.803C133.772 178.803 134.309 178.958 134.67 179.268C135.034 179.579 135.216 180.066 135.216 180.731V184.501H134.366ZM132.595 183.691C133.027 183.691 133.372 183.571 133.632 183.332C133.895 183.089 134.027 182.75 134.027 182.315V181.829L133.308 181.859C132.748 181.879 132.34 181.974 132.084 182.143C131.831 182.308 131.704 182.563 131.704 182.907C131.704 183.156 131.778 183.35 131.927 183.489C132.075 183.624 132.298 183.691 132.595 183.691ZM140.636 182.907C140.636 183.453 140.437 183.873 140.039 184.167C139.641 184.457 139.071 184.602 138.328 184.602C137.583 184.602 136.984 184.489 136.532 184.263V183.236C137.19 183.539 137.802 183.691 138.369 183.691C139.101 183.691 139.467 183.47 139.467 183.028C139.467 182.886 139.426 182.768 139.345 182.674C139.265 182.579 139.131 182.482 138.946 182.38C138.76 182.279 138.502 182.164 138.171 182.036C137.527 181.787 137.09 181.537 136.861 181.287C136.635 181.038 136.522 180.714 136.522 180.316C136.522 179.837 136.714 179.466 137.099 179.202C137.487 178.936 138.013 178.803 138.677 178.803C139.335 178.803 139.958 178.936 140.545 179.202L140.16 180.098C139.556 179.848 139.049 179.724 138.637 179.724C138.01 179.724 137.696 179.902 137.696 180.26C137.696 180.435 137.777 180.584 137.939 180.705C138.104 180.827 138.462 180.994 139.011 181.206C139.474 181.385 139.809 181.549 140.019 181.697C140.228 181.846 140.383 182.018 140.484 182.213C140.585 182.406 140.636 182.637 140.636 182.907ZM145.686 182.907C145.686 183.453 145.487 183.873 145.089 184.167C144.691 184.457 144.121 184.602 143.379 184.602C142.633 184.602 142.034 184.489 141.582 184.263V183.236C142.24 183.539 142.852 183.691 143.419 183.691C144.151 183.691 144.517 183.47 144.517 183.028C144.517 182.886 144.477 182.768 144.396 182.674C144.315 182.579 144.182 182.482 143.996 182.38C143.811 182.279 143.552 182.164 143.222 182.036C142.577 181.787 142.141 181.537 141.911 181.287C141.685 181.038 141.572 180.714 141.572 180.316C141.572 179.837 141.764 179.466 142.149 179.202C142.537 178.936 143.063 178.803 143.728 178.803C144.386 178.803 145.008 178.936 145.595 179.202L145.211 180.098C144.607 179.848 144.099 179.724 143.687 179.724C143.06 179.724 142.746 179.902 142.746 180.26C142.746 180.435 142.827 180.584 142.989 180.705C143.154 180.827 143.512 180.994 144.062 181.206C144.524 181.385 144.86 181.549 145.069 181.697C145.278 181.846 145.433 182.018 145.534 182.213C145.636 182.406 145.686 182.637 145.686 182.907ZM148.166 184.501H146.977V178.904H148.166V184.501ZM146.906 177.421C146.906 177.209 146.963 177.045 147.078 176.93C147.196 176.816 147.363 176.758 147.579 176.758C147.788 176.758 147.95 176.816 148.065 176.93C148.183 177.045 148.242 177.209 148.242 177.421C148.242 177.624 148.183 177.784 148.065 177.902C147.95 178.017 147.788 178.074 147.579 178.074C147.363 178.074 147.196 178.017 147.078 177.902C146.963 177.784 146.906 177.624 146.906 177.421ZM154.836 181.692C154.836 182.606 154.601 183.32 154.132 183.833C153.663 184.346 153.011 184.602 152.174 184.602C151.651 184.602 151.189 184.484 150.787 184.248C150.386 184.012 150.077 183.672 149.861 183.231C149.645 182.789 149.537 182.276 149.537 181.692C149.537 180.785 149.77 180.076 150.236 179.567C150.701 179.057 151.357 178.803 152.204 178.803C153.014 178.803 153.655 179.064 154.127 179.587C154.6 180.107 154.836 180.808 154.836 181.692ZM150.762 181.692C150.762 182.984 151.239 183.63 152.194 183.63C153.139 183.63 153.611 182.984 153.611 181.692C153.611 180.414 153.135 179.774 152.184 179.774C151.685 179.774 151.322 179.94 151.096 180.27C150.873 180.601 150.762 181.075 150.762 181.692ZM161.131 184.501H159.937V181.06C159.937 180.628 159.849 180.306 159.674 180.093C159.501 179.88 159.227 179.774 158.849 179.774C158.346 179.774 157.978 179.923 157.745 180.22C157.513 180.516 157.396 181.014 157.396 181.712V184.501H156.207V178.904H157.138L157.305 179.638H157.366C157.535 179.371 157.774 179.165 158.085 179.02C158.395 178.875 158.739 178.803 159.117 178.803C160.46 178.803 161.131 179.486 161.131 180.852V184.501ZM162.3 182.229V181.216H164.901V182.229H162.3ZM167.452 184.501H166.252V177.102H170.427V178.125H167.452V180.437H170.24V181.464H167.452V184.501ZM172.831 184.501H171.642V176.627H172.831V184.501ZM179.501 181.692C179.501 182.606 179.266 183.32 178.797 183.833C178.328 184.346 177.675 184.602 176.839 184.602C176.316 184.602 175.854 184.484 175.452 184.248C175.051 184.012 174.742 183.672 174.526 183.231C174.31 182.789 174.202 182.276 174.202 181.692C174.202 180.785 174.435 180.076 174.901 179.567C175.366 179.057 176.022 178.803 176.869 178.803C177.679 178.803 178.32 179.064 178.792 179.587C179.264 180.107 179.501 180.808 179.501 181.692ZM175.427 181.692C175.427 182.984 175.904 183.63 176.859 183.63C177.804 183.63 178.276 182.984 178.276 181.692C178.276 180.414 177.8 179.774 176.849 179.774C176.35 179.774 175.987 179.94 175.761 180.27C175.538 180.601 175.427 181.075 175.427 181.692ZM185.462 184.501L184.738 181.89C184.65 181.613 184.492 180.97 184.262 179.961H184.217C184.021 180.872 183.866 181.518 183.751 181.9L183.007 184.501H181.692L180.123 178.904H181.338L182.051 181.662C182.213 182.343 182.328 182.927 182.395 183.413H182.426C182.459 183.166 182.51 182.885 182.577 182.568C182.648 182.247 182.709 182.008 182.76 181.849L183.61 178.904H184.915L185.74 181.849C185.791 182.014 185.853 182.267 185.927 182.608C186.005 182.949 186.051 183.214 186.064 183.403H186.105C186.155 182.988 186.273 182.407 186.459 181.662L187.182 178.904H188.377L186.798 184.501H185.462ZM191.787 184.602C190.917 184.602 190.236 184.349 189.743 183.843C189.254 183.333 189.009 182.633 189.009 181.743C189.009 180.828 189.237 180.11 189.692 179.587C190.148 179.064 190.774 178.803 191.57 178.803C192.309 178.803 192.892 179.027 193.321 179.476C193.749 179.924 193.963 180.542 193.963 181.328V181.97H190.234C190.251 182.514 190.397 182.932 190.674 183.225C190.951 183.516 191.34 183.661 191.843 183.661C192.174 183.661 192.481 183.63 192.764 183.57C193.051 183.506 193.358 183.401 193.685 183.256V184.222C193.395 184.361 193.101 184.459 192.805 184.516C192.508 184.573 192.169 184.602 191.787 184.602ZM191.57 179.703C191.192 179.703 190.888 179.823 190.659 180.063C190.433 180.302 190.298 180.651 190.254 181.11H192.794C192.788 180.648 192.676 180.299 192.46 180.063C192.245 179.823 191.948 179.703 191.57 179.703ZM198.154 178.803C198.393 178.803 198.59 178.819 198.746 178.853L198.629 179.961C198.461 179.921 198.285 179.901 198.103 179.901C197.627 179.901 197.241 180.056 196.944 180.366C196.651 180.677 196.504 181.08 196.504 181.576V184.501H195.315V178.904H196.246L196.403 179.891H196.463C196.649 179.557 196.89 179.292 197.187 179.096C197.487 178.9 197.809 178.803 198.154 178.803Z" fill="black" />
        <path d="M126.456 193.982C127.236 193.982 127.848 194.176 128.293 194.564C128.742 194.948 128.966 195.476 128.966 196.148C128.966 196.913 128.722 197.514 128.233 197.949C127.747 198.384 127.075 198.602 126.219 198.602C125.385 198.602 124.749 198.469 124.311 198.202V197.392C124.547 197.544 124.84 197.664 125.191 197.752C125.542 197.836 125.888 197.878 126.229 197.878C126.822 197.878 127.283 197.738 127.61 197.458C127.941 197.178 128.106 196.773 128.106 196.244C128.106 195.211 127.474 194.695 126.208 194.695C125.888 194.695 125.459 194.744 124.923 194.842L124.488 194.564L124.766 191.102H128.445V191.877H125.485L125.298 194.098C125.686 194.021 126.072 193.982 126.456 193.982ZM134.978 194.791C134.978 196.07 134.776 197.025 134.371 197.656C133.97 198.287 133.354 198.602 132.524 198.602C131.728 198.602 131.122 198.28 130.707 197.635C130.292 196.988 130.085 196.04 130.085 194.791C130.085 193.503 130.286 192.546 130.687 191.922C131.088 191.298 131.701 190.986 132.524 190.986C133.327 190.986 133.936 191.311 134.351 191.963C134.769 192.614 134.978 193.557 134.978 194.791ZM130.935 194.791C130.935 195.868 131.061 196.652 131.314 197.145C131.567 197.634 131.971 197.878 132.524 197.878C133.084 197.878 133.489 197.63 133.738 197.134C133.991 196.635 134.118 195.854 134.118 194.791C134.118 193.729 133.991 192.951 133.738 192.458C133.489 191.963 133.084 191.715 132.524 191.715C131.971 191.715 131.567 191.959 131.314 192.448C131.061 192.934 130.935 193.715 130.935 194.791ZM146.152 198.501V194.893C146.152 194.451 146.057 194.12 145.868 193.901C145.68 193.678 145.386 193.567 144.988 193.567C144.465 193.567 144.079 193.717 143.829 194.017C143.579 194.317 143.455 194.78 143.455 195.404V198.501H142.615V194.893C142.615 194.451 142.52 194.12 142.331 193.901C142.142 193.678 141.847 193.567 141.446 193.567C140.919 193.567 140.533 193.725 140.287 194.042C140.044 194.356 139.922 194.872 139.922 195.591V198.501H139.082V192.954H139.766L139.902 193.713H139.943C140.101 193.444 140.324 193.233 140.611 193.081C140.901 192.929 141.225 192.853 141.582 192.853C142.449 192.853 143.016 193.167 143.283 193.794H143.323C143.488 193.504 143.728 193.275 144.042 193.106C144.355 192.938 144.713 192.853 145.114 192.853C145.742 192.853 146.211 193.015 146.521 193.339C146.835 193.66 146.992 194.174 146.992 194.882V198.501H146.152ZM153.267 192.954V193.486L152.24 193.607C152.334 193.725 152.418 193.88 152.493 194.073C152.567 194.262 152.604 194.476 152.604 194.715C152.604 195.259 152.418 195.692 152.047 196.016C151.676 196.34 151.167 196.502 150.519 196.502C150.354 196.502 150.199 196.488 150.054 196.461C149.696 196.65 149.517 196.888 149.517 197.175C149.517 197.327 149.58 197.44 149.704 197.514C149.829 197.585 150.043 197.62 150.347 197.62H151.329C151.929 197.62 152.39 197.747 152.71 198C153.034 198.253 153.196 198.62 153.196 199.103C153.196 199.717 152.95 200.184 152.457 200.505C151.965 200.829 151.246 200.99 150.301 200.99C149.576 200.99 149.016 200.856 148.621 200.586C148.23 200.316 148.034 199.935 148.034 199.442C148.034 199.105 148.142 198.813 148.358 198.567C148.574 198.32 148.878 198.153 149.269 198.066C149.127 198.001 149.008 197.902 148.91 197.767C148.815 197.632 148.768 197.475 148.768 197.296C148.768 197.094 148.822 196.917 148.93 196.765C149.038 196.613 149.208 196.466 149.441 196.325C149.154 196.207 148.92 196.006 148.738 195.723C148.559 195.439 148.47 195.115 148.47 194.751C148.47 194.144 148.652 193.676 149.016 193.349C149.38 193.019 149.897 192.853 150.565 192.853C150.855 192.853 151.116 192.887 151.349 192.954H153.267ZM148.844 199.432C148.844 199.732 148.971 199.96 149.224 200.115C149.477 200.27 149.839 200.348 150.312 200.348C151.017 200.348 151.538 200.242 151.875 200.029C152.216 199.82 152.386 199.535 152.386 199.174C152.386 198.874 152.294 198.664 152.108 198.546C151.923 198.432 151.573 198.374 151.061 198.374H150.054C149.672 198.374 149.375 198.465 149.163 198.647C148.95 198.83 148.844 199.091 148.844 199.432ZM149.299 194.731C149.299 195.119 149.409 195.412 149.628 195.611C149.848 195.81 150.153 195.91 150.544 195.91C151.364 195.91 151.774 195.512 151.774 194.715C151.774 193.882 151.359 193.466 150.529 193.466C150.134 193.466 149.831 193.572 149.618 193.784C149.406 193.997 149.299 194.312 149.299 194.731Z" fill="#3F72B7" />
        <path d="M227.967 184.86L227.382 184.581L227.382 184.581L227.967 184.86ZM231.403 181.456L231.13 180.868L231.403 181.456ZM236.221 181.03L236.055 181.657V181.657L236.221 181.03ZM240.2 183.779L236.996 177.021L232.745 183.175L240.2 183.779ZM235.049 180.824L234.99 181.469L235.049 180.824ZM228.123 189.514C227.752 188.05 227.903 186.502 228.552 185.138L227.382 184.581C226.603 186.218 226.422 188.076 226.868 189.832L228.123 189.514ZM228.552 185.138C229.2 183.774 230.305 182.679 231.676 182.043L231.13 180.868C229.486 181.631 228.16 182.945 227.382 184.581L228.552 185.138ZM231.676 182.043C232.716 181.561 233.86 181.366 234.99 181.469L235.108 180.179C233.752 180.055 232.379 180.289 231.13 180.868L231.676 182.043ZM234.99 181.469C235.348 181.501 235.704 181.564 236.055 181.657L236.386 180.404C235.965 180.293 235.537 180.218 235.108 180.179L234.99 181.469Z" fill="black" fill-opacity="0.7" />
        <path d="M239.511 190.142L240.096 190.42L240.096 190.42L239.511 190.142ZM236.075 193.546L236.347 194.133L236.075 193.546ZM231.257 193.971L231.422 193.345V193.345L231.257 193.971ZM227.277 191.223L230.482 197.981L234.732 191.827L227.277 191.223ZM232.428 194.178L232.487 193.533L232.428 194.178ZM239.354 185.488C239.726 186.952 239.574 188.5 238.926 189.864L240.096 190.42C240.874 188.783 241.056 186.926 240.61 185.169L239.354 185.488ZM238.926 189.864C238.277 191.228 237.172 192.322 235.802 192.958L236.347 194.133C237.991 193.37 239.317 192.057 240.096 190.42L238.926 189.864ZM235.802 192.958C234.761 193.441 233.617 193.636 232.487 193.533L232.369 194.823C233.725 194.947 235.098 194.713 236.347 194.133L235.802 192.958ZM232.487 193.533C232.13 193.5 231.773 193.438 231.422 193.345L231.091 194.597C231.513 194.709 231.94 194.784 232.369 194.823L232.487 193.533Z" fill="black" fill-opacity="0.7" />
    </g>
    <g filter="url(#filter1_b_1982_22894)">
        <rect x="103.752" y="58.864" width="194.323" height="71.4105" rx="9.43196" fill="#C1CCDB" fill-opacity="0.6" />
        <path fill-rule="evenodd" clip-rule="evenodd" d="M123.832 101.694C127.767 101.694 130.957 98.5044 130.957 94.5693C130.957 90.6341 127.767 87.4441 123.832 87.4441C119.897 87.4441 116.707 90.6341 116.707 94.5693C116.707 98.5044 119.897 101.694 123.832 101.694ZM125.094 97.0174H122.916C122.916 96.9932 122.914 96.9699 122.911 96.9471C122.909 96.925 122.907 96.9032 122.907 96.8813V95.1559C122.905 95.1132 122.913 95.0707 122.931 95.0321C122.95 94.9936 122.977 94.9603 123.011 94.9353C123.391 94.6094 123.77 94.2809 124.148 93.9523L124.148 93.9522L124.397 93.7358C124.507 93.6551 124.588 93.541 124.629 93.4101C124.67 93.2792 124.668 93.1384 124.625 93.0085C124.588 92.8818 124.514 92.7696 124.412 92.6871C124.311 92.6045 124.187 92.5557 124.057 92.5471C123.966 92.5402 123.875 92.5522 123.789 92.5824C123.702 92.6126 123.623 92.6603 123.556 92.7227C123.489 92.785 123.435 92.8607 123.397 92.945C123.36 93.0293 123.34 93.1205 123.339 93.213C123.336 93.2665 123.336 93.3204 123.337 93.3776V93.3776C123.338 93.4075 123.339 93.4384 123.339 93.4706H121.154C121.109 92.8895 121.235 92.308 121.514 91.799C121.826 91.224 122.322 90.7747 122.921 90.526C123.519 90.2774 124.184 90.2445 124.803 90.4327C125.345 90.5966 125.826 90.9192 126.187 91.3601C126.548 91.8009 126.772 92.3402 126.831 92.91C126.884 93.3896 126.815 93.8748 126.632 94.3202C126.45 94.7656 126.158 95.1566 125.786 95.4566C125.722 95.5108 125.66 95.5659 125.597 95.621L125.597 95.621C125.469 95.7338 125.341 95.8466 125.205 95.9525C125.165 95.9821 125.134 96.022 125.114 96.0681C125.094 96.1142 125.086 96.1647 125.092 96.2147C125.096 96.3993 125.095 96.5843 125.095 96.7721V96.7722C125.094 96.8534 125.094 96.935 125.094 97.0174ZM124.418 97.6646C124.285 97.609 124.142 97.5808 123.998 97.5818C123.853 97.5811 123.71 97.6096 123.577 97.6655C123.443 97.7214 123.322 97.8037 123.221 97.9075C123.119 98.0112 123.038 98.1345 122.984 98.2701C122.929 98.4057 122.902 98.5509 122.903 98.6973C122.904 98.9903 123.019 99.2711 123.223 99.4785C123.427 99.6859 123.703 99.803 123.992 99.8044C124.137 99.8055 124.28 99.7775 124.413 99.7222C124.547 99.6669 124.668 99.5854 124.771 99.4823C124.873 99.3792 124.954 99.2565 125.01 99.1214C125.065 98.9863 125.094 98.8414 125.094 98.695C125.095 98.5486 125.067 98.4034 125.013 98.268C124.958 98.1325 124.877 98.0094 124.775 97.9058C124.673 97.8022 124.552 97.7203 124.418 97.6646Z" fill="black" fill-opacity="0.7" />
        <path d="M144.555 69.6987V77.001H147.222C149.408 77.001 150.693 75.6448 150.693 73.3321C150.693 71.0195 149.403 69.6987 147.222 69.6987H144.555ZM145.86 70.8019H147.085C148.542 70.8019 149.362 71.7026 149.362 73.3372C149.362 75.0021 148.553 75.8978 147.085 75.8978H145.86V70.8019ZM153.977 77.1072C155.551 77.1072 156.573 76.0597 156.573 74.3189C156.573 72.5832 155.541 71.5255 153.977 71.5255C152.414 71.5255 151.381 72.5882 151.381 74.3189C151.381 76.0597 152.404 77.1072 153.977 77.1072ZM153.977 76.1103C153.178 76.1103 152.662 75.4626 152.662 74.3189C152.662 73.1803 153.183 72.5275 153.977 72.5275C154.777 72.5275 155.293 73.1803 155.293 74.3189C155.293 75.4626 154.777 76.1103 153.977 76.1103ZM159.696 72.5022C160.419 72.5022 160.905 73.0335 160.931 73.7926H158.426C158.476 73.0437 158.987 72.5022 159.696 72.5022ZM160.936 75.3968C160.799 75.8421 160.354 76.1356 159.767 76.1356C158.942 76.1356 158.416 75.5587 158.416 74.6984V74.6225H162.165V74.2126C162.165 72.5832 161.214 71.5255 159.691 71.5255C158.142 71.5255 157.16 72.6439 157.16 74.3392C157.16 76.0496 158.132 77.1072 159.741 77.1072C161.012 77.1072 161.953 76.4089 162.115 75.3968H160.936ZM162.884 73.1752C162.884 73.9495 163.385 74.4657 164.377 74.6984L165.353 74.9262C165.875 75.0577 166.072 75.2247 166.072 75.5385C166.072 75.9383 165.693 76.1862 165.08 76.1862C164.443 76.1862 164.063 75.913 163.987 75.4221H162.747C162.833 76.4393 163.689 77.1072 165.035 77.1072C166.391 77.1072 167.327 76.4241 167.327 75.412C167.327 74.6175 166.907 74.2025 165.834 73.9495L164.878 73.737C164.351 73.6104 164.109 73.408 164.109 73.1044C164.109 72.7147 164.473 72.4516 165.03 72.4516C165.617 72.4516 165.986 72.735 166.026 73.1955H167.201C167.17 72.2036 166.315 71.5255 165.055 71.5255C163.749 71.5255 162.884 72.1935 162.884 73.1752ZM170.237 77.001H171.497V71.6368H170.237V77.001ZM170.864 70.9334C171.259 70.9334 171.568 70.6298 171.568 70.2503C171.568 69.8657 171.259 69.562 170.864 69.562C170.475 69.562 170.166 69.8657 170.166 70.2503C170.166 70.6298 170.475 70.9334 170.864 70.9334ZM172.904 70.3818V71.6368H172.135V72.6085H172.904V75.5739C172.904 76.6164 173.359 77.0263 174.518 77.0263C174.786 77.0263 175.034 77.006 175.171 76.9757V76.0142C175.09 76.0294 174.928 76.0395 174.812 76.0395C174.366 76.0395 174.164 75.8371 174.164 75.3968V72.6085H175.176V71.6368H174.164V70.3818H172.904ZM178.46 70.3818V71.6368H177.691V72.6085H178.46V75.5739C178.46 76.6164 178.916 77.0263 180.074 77.0263C180.343 77.0263 180.591 77.006 180.727 76.9757V76.0142C180.646 76.0294 180.484 76.0395 180.368 76.0395C179.923 76.0395 179.72 75.8371 179.72 75.3968V72.6085H180.732V71.6368H179.72V70.3818H178.46ZM183.48 76.1356C182.934 76.1356 182.569 75.8573 182.569 75.417C182.569 74.992 182.918 74.7187 183.526 74.6782L184.766 74.6023V75.0122C184.766 75.6599 184.194 76.1356 183.48 76.1356ZM183.101 77.087C183.789 77.087 184.462 76.7277 184.771 76.1458H184.796V77.001H186.01V73.3068C186.01 72.2289 185.145 71.5255 183.814 71.5255C182.448 71.5255 181.593 72.2441 181.537 73.2461H182.706C182.787 72.8008 183.166 72.5123 183.764 72.5123C184.386 72.5123 184.766 72.8362 184.766 73.3979V73.7825L183.349 73.8635C182.043 73.9444 181.309 74.5163 181.309 75.4676C181.309 76.4342 182.063 77.087 183.101 77.087ZM188.338 73.8736H188.323V69.6987H187.063V77.001H188.323V75.1387L188.748 74.7086L190.443 77.001H191.901L189.664 73.9444L191.81 71.6368H190.357L188.338 73.8736ZM194.461 72.5022C195.185 72.5022 195.671 73.0335 195.696 73.7926H193.191C193.242 73.0437 193.753 72.5022 194.461 72.5022ZM195.701 75.3968C195.565 75.8421 195.119 76.1356 194.532 76.1356C193.707 76.1356 193.181 75.5587 193.181 74.6984V74.6225H196.931V74.2126C196.931 72.5832 195.98 71.5255 194.456 71.5255C192.908 71.5255 191.926 72.6439 191.926 74.3392C191.926 76.0496 192.898 77.1072 194.507 77.1072C195.777 77.1072 196.718 76.4089 196.88 75.3968H195.701ZM200.418 78.9948C201.642 78.9948 202.234 78.5444 202.695 77.2135L204.633 71.6368H203.307L202.042 75.9282H202.022L200.757 71.6368H199.38L201.288 77.006C201.293 77.0212 201.217 77.2894 201.217 77.3046C201.076 77.8005 200.807 77.9979 200.286 77.9979C200.21 77.9979 199.988 77.9928 199.922 77.9777V78.9746C199.988 78.9898 200.347 78.9948 200.418 78.9948ZM207.457 77.1072C209.031 77.1072 210.053 76.0597 210.053 74.3189C210.053 72.5832 209.02 71.5255 207.457 71.5255C205.893 71.5255 204.861 72.5882 204.861 74.3189C204.861 76.0597 205.883 77.1072 207.457 77.1072ZM207.457 76.1103C206.657 76.1103 206.141 75.4626 206.141 74.3189C206.141 73.1803 206.662 72.5275 207.457 72.5275C208.256 72.5275 208.773 73.1803 208.773 74.3189C208.773 75.4626 208.256 76.1103 207.457 76.1103ZM215.619 71.6368H214.359V74.7389C214.359 75.5183 213.909 76.0344 213.18 76.0344C212.472 76.0344 212.097 75.6195 212.097 74.8503V71.6368H210.837V75.1033C210.837 76.3431 211.576 77.0971 212.74 77.0971C213.555 77.0971 214.096 76.7226 214.38 76.0698H214.405V77.001H215.619V71.6368ZM144.464 89.001H145.724V81.6987H144.464V89.001ZM149.17 89.1072C150.744 89.1072 151.766 88.0597 151.766 86.3189C151.766 84.5832 150.734 83.5255 149.17 83.5255C147.606 83.5255 146.574 84.5882 146.574 86.3189C146.574 88.0597 147.596 89.1072 149.17 89.1072ZM149.17 88.1103C148.37 88.1103 147.854 87.4626 147.854 86.3189C147.854 85.1803 148.375 84.5275 149.17 84.5275C149.97 84.5275 150.486 85.1803 150.486 86.3189C150.486 87.4626 149.97 88.1103 149.17 88.1103ZM152.576 89.001H153.836V85.8938C153.836 85.1246 154.296 84.6034 155.02 84.6034C155.738 84.6034 156.093 85.0285 156.093 85.7876V89.001H157.353V85.5345C157.353 84.2947 156.68 83.5356 155.496 83.5356C154.671 83.5356 154.099 83.9202 153.81 84.5579H153.785V83.6368H152.576V89.001ZM160.733 88.0041C159.939 88.0041 159.433 87.3664 159.433 86.3037C159.433 85.2511 159.939 84.5832 160.733 84.5832C161.538 84.5832 162.059 85.2613 162.059 86.3037C162.059 87.3513 161.538 88.0041 160.733 88.0041ZM160.728 91.0252C162.292 91.0252 163.319 90.1953 163.319 88.9149V83.6368H162.084V84.5579H162.064C161.755 83.9405 161.138 83.5458 160.374 83.5458C159.003 83.5458 158.142 84.6034 158.142 86.2987C158.142 87.9686 159.023 89.006 160.349 89.006C161.118 89.006 161.75 88.6214 162.029 88.0445H162.059V88.9504C162.059 89.6335 161.588 90.094 160.769 90.094C160.171 90.094 159.711 89.8157 159.574 89.4058H158.324C158.451 90.3471 159.402 91.0252 160.728 91.0252ZM166.77 82.3818V83.6368H166.001V84.6085H166.77V87.5739C166.77 88.6164 167.226 89.0263 168.385 89.0263C168.653 89.0263 168.901 89.006 169.037 88.9757V88.0142C168.957 88.0294 168.795 88.0395 168.678 88.0395C168.233 88.0395 168.03 87.8371 168.03 87.3968V84.6085H169.043V83.6368H168.03V82.3818H166.77ZM172.175 89.1072C173.749 89.1072 174.771 88.0597 174.771 86.3189C174.771 84.5832 173.739 83.5255 172.175 83.5255C170.611 83.5255 169.579 84.5882 169.579 86.3189C169.579 88.0597 170.601 89.1072 172.175 89.1072ZM172.175 88.1103C171.375 88.1103 170.859 87.4626 170.859 86.3189C170.859 85.1803 171.381 84.5275 172.175 84.5275C172.975 84.5275 173.491 85.1803 173.491 86.3189C173.491 87.4626 172.975 88.1103 172.175 88.1103ZM178.005 89.001H179.265V84.6085H180.317V83.652H179.245V83.2118C179.245 82.7766 179.462 82.5488 179.943 82.5488C180.09 82.5488 180.236 82.564 180.343 82.5792V81.6987C180.186 81.6683 179.913 81.643 179.665 81.643C178.501 81.643 178.005 82.1339 178.005 83.1763V83.652H177.271V84.6085H178.005V89.001ZM182.812 88.1356C182.266 88.1356 181.901 87.8573 181.901 87.417C181.901 86.992 182.25 86.7187 182.858 86.6782L184.098 86.6023V87.0122C184.098 87.6599 183.526 88.1356 182.812 88.1356ZM182.433 89.087C183.121 89.087 183.794 88.7277 184.103 88.1458H184.128V89.001H185.342V85.3068C185.342 84.2289 184.477 83.5255 183.146 83.5255C181.78 83.5255 180.925 84.2441 180.869 85.2461H182.038C182.119 84.8008 182.498 84.5123 183.096 84.5123C183.718 84.5123 184.098 84.8362 184.098 85.3979V85.7825L182.681 85.8635C181.375 85.9444 180.641 86.5163 180.641 87.4676C180.641 88.4342 181.395 89.087 182.433 89.087ZM186.395 89.001H187.655V81.6987H186.395V89.001ZM188.763 89.001H190.023V81.6987H188.763V89.001ZM195.129 88.1356C194.583 88.1356 194.219 87.8573 194.219 87.417C194.219 86.992 194.568 86.7187 195.175 86.6782L196.415 86.6023V87.0122C196.415 87.6599 195.843 88.1356 195.129 88.1356ZM194.75 89.087C195.438 89.087 196.111 88.7277 196.42 88.1458H196.445V89.001H197.66V85.3068C197.66 84.2289 196.794 83.5255 195.463 83.5255C194.097 83.5255 193.242 84.2441 193.186 85.2461H194.355C194.436 84.8008 194.816 84.5123 195.413 84.5123C196.035 84.5123 196.415 84.8362 196.415 85.3979V85.7825L194.998 85.8635C193.692 85.9444 192.958 86.5163 192.958 87.4676C192.958 88.4342 193.712 89.087 194.75 89.087ZM198.581 85.1752C198.581 85.9495 199.082 86.4657 200.074 86.6984L201.05 86.9262C201.571 87.0577 201.769 87.2247 201.769 87.5385C201.769 87.9383 201.389 88.1862 200.777 88.1862C200.139 88.1862 199.76 87.913 199.684 87.4221H198.444C198.53 88.4393 199.385 89.1072 200.731 89.1072C202.088 89.1072 203.024 88.4241 203.024 87.412C203.024 86.6175 202.604 86.2025 201.531 85.9495L200.575 85.737C200.048 85.6104 199.805 85.408 199.805 85.1044C199.805 84.7147 200.17 84.4516 200.726 84.4516C201.313 84.4516 201.683 84.735 201.723 85.1955H202.897C202.867 84.2036 202.012 83.5255 200.752 83.5255C199.446 83.5255 198.581 84.1935 198.581 85.1752ZM203.864 89.001H205.124V81.6987H203.864V89.001ZM208.509 84.5022C209.233 84.5022 209.719 85.0335 209.744 85.7926H207.239C207.29 85.0437 207.801 84.5022 208.509 84.5022ZM209.749 87.3968C209.613 87.8421 209.167 88.1356 208.58 88.1356C207.755 88.1356 207.229 87.5587 207.229 86.6984V86.6225H210.979V86.2126C210.979 84.5832 210.028 83.5255 208.504 83.5255C206.956 83.5255 205.974 84.6439 205.974 86.3392C205.974 88.0496 206.946 89.1072 208.555 89.1072C209.825 89.1072 210.766 88.4089 210.928 87.3968H209.749ZM214.106 84.5022C214.83 84.5022 215.316 85.0335 215.341 85.7926H212.836C212.887 85.0437 213.398 84.5022 214.106 84.5022ZM215.346 87.3968C215.209 87.8421 214.764 88.1356 214.177 88.1356C213.352 88.1356 212.826 87.5587 212.826 86.6984V86.6225H216.576V86.2126C216.576 84.5832 215.624 83.5255 214.101 83.5255C212.553 83.5255 211.571 84.6439 211.571 86.3392C211.571 88.0496 212.543 89.1072 214.152 89.1072C215.422 89.1072 216.363 88.4089 216.525 87.3968H215.346ZM220.336 83.5458C219.556 83.5458 218.949 83.9405 218.646 84.5629H218.62V83.6368H217.391V90.7671H218.651V88.1103H218.676C218.969 88.7125 219.577 89.087 220.356 89.087C221.702 89.087 222.562 88.0294 222.562 86.3189C222.562 84.6034 221.697 83.5458 220.336 83.5458ZM219.951 88.0547C219.167 88.0547 218.646 87.3715 218.641 86.3189C218.646 85.2764 219.167 84.5832 219.951 84.5832C220.766 84.5832 221.272 85.2613 221.272 86.3189C221.272 87.3816 220.766 88.0547 219.951 88.0547ZM223.129 83.6976H224.318C224.359 83.0701 224.779 82.6703 225.432 82.6703C226.069 82.6703 226.494 83.06 226.494 83.5964C226.494 84.0974 226.282 84.3706 225.654 84.7502C224.956 85.1601 224.663 85.6155 224.708 86.3645L224.713 86.7238H225.887V86.4302C225.887 85.9242 226.074 85.661 226.737 85.2764C227.426 84.8665 227.81 84.3251 227.81 83.5508C227.81 82.4375 226.884 81.6379 225.497 81.6379C223.995 81.6379 223.17 82.5084 223.129 83.6976ZM225.315 89.1022C225.725 89.1022 226.049 88.7834 226.049 88.3836C226.049 87.9838 225.725 87.6701 225.315 87.6701C224.905 87.6701 224.576 87.9838 224.576 88.3836C224.576 88.7834 224.905 89.1022 225.315 89.1022Z" fill="black" />
        <rect x="143.912" y="96.1829" width="133.001" height="25.9549" rx="10.3639" fill="white" />
        <path d="M156.811 105.737C154.706 105.737 153.39 107.189 153.39 109.512C153.39 111.835 154.706 113.282 156.811 113.282C158.911 113.282 160.232 111.835 160.232 109.512C160.232 107.189 158.911 105.737 156.811 105.737ZM156.811 106.734C158.198 106.734 159.068 107.806 159.068 109.512C159.068 111.212 158.198 112.285 156.811 112.285C155.425 112.285 154.549 111.212 154.549 109.512C154.549 107.806 155.425 106.734 156.811 106.734ZM161.502 113.16H162.6V108.702H163.663V107.847H162.585V107.346C162.585 106.875 162.808 106.637 163.284 106.637C163.43 106.637 163.577 106.648 163.683 106.668V105.858C163.542 105.833 163.294 105.807 163.071 105.807C161.988 105.807 161.502 106.293 161.502 107.326V107.847H160.769V108.702H161.502V113.16ZM164.842 113.16H165.94V108.702H167.003V107.847H165.925V107.346C165.925 106.875 166.148 106.637 166.624 106.637C166.77 106.637 166.917 106.648 167.023 106.668V105.858C166.882 105.833 166.634 105.807 166.411 105.807C165.328 105.807 164.842 106.293 164.842 107.326V107.847H164.109V108.702H164.842V113.16Z" fill="black" />
        <path d="M188.997 113.16V105.858H187.681L185.323 111.622H185.283L182.919 105.858H181.609V113.16H182.641V107.786H182.676L184.883 113.105H185.723L187.924 107.786H187.96V113.16H188.997ZM190.247 113.16H191.34V107.837H190.247V113.16ZM190.793 107.057C191.148 107.057 191.431 106.779 191.431 106.435C191.431 106.086 191.148 105.807 190.793 105.807C190.444 105.807 190.161 106.086 190.161 106.435C190.161 106.779 190.444 107.057 190.793 107.057ZM192.458 113.16H193.551V110.058C193.551 109.233 194.047 108.687 194.816 108.687C195.576 108.687 195.95 109.127 195.95 109.927V113.16H197.048V109.714C197.048 108.495 196.375 107.746 195.201 107.746C194.381 107.746 193.815 108.12 193.526 108.727H193.501V107.837H192.458V113.16Z" fill="black" />
        <path d="M218.952 113.16V105.858H217.636L215.278 111.622H215.238L212.874 105.858H211.564V113.16H212.596V107.786H212.631L214.838 113.105H215.678L217.879 107.786H217.915V113.16H218.952ZM222.393 108.621C223.157 108.621 223.673 109.193 223.699 110.008H221.037C221.093 109.203 221.629 108.621 222.393 108.621ZM223.694 111.597C223.547 112.062 223.086 112.376 222.464 112.376C221.589 112.376 221.032 111.764 221.032 110.838V110.772H224.792V110.397C224.792 108.783 223.871 107.741 222.393 107.741C220.89 107.741 219.929 108.854 219.929 110.524C219.929 112.204 220.875 113.262 222.439 113.262C223.658 113.262 224.579 112.568 224.731 111.597H223.694ZM227.641 113.251C228.415 113.251 229.022 112.862 229.336 112.255H229.356V113.16H230.419V105.858H229.321V108.722H229.301C229.002 108.135 228.395 107.751 227.631 107.751C226.295 107.751 225.404 108.818 225.404 110.499C225.404 112.179 226.295 113.251 227.641 113.251ZM227.929 108.672C228.769 108.672 229.331 109.395 229.331 110.499C229.331 111.612 228.769 112.325 227.929 112.325C227.064 112.325 226.523 111.622 226.523 110.499C226.523 109.38 227.064 108.672 227.929 108.672Z" fill="black" />
        <rect x="238.368" y="98.7739" width="35.9549" height="20.7729" rx="9.06841" fill="#3F72B7" />
        <path d="M252.308 112.66L252.297 108.308L250.162 111.893H249.406L247.281 108.401V112.66H245.706V105.406H247.095L249.81 109.914L252.484 105.406H253.862L253.883 112.66H252.308ZM257.739 107.002C258.603 107.002 259.266 107.209 259.729 107.624C260.192 108.031 260.423 108.65 260.423 109.479V112.66H258.91V111.966C258.606 112.484 258.04 112.743 257.211 112.743C256.782 112.743 256.409 112.671 256.091 112.526C255.78 112.381 255.542 112.18 255.376 111.925C255.21 111.669 255.128 111.379 255.128 111.054C255.128 110.536 255.321 110.128 255.708 109.831C256.102 109.534 256.706 109.385 257.522 109.385H258.807C258.807 109.033 258.7 108.764 258.485 108.577C258.271 108.384 257.95 108.287 257.522 108.287C257.224 108.287 256.931 108.335 256.641 108.432C256.357 108.522 256.116 108.646 255.915 108.805L255.335 107.675C255.639 107.461 256.002 107.295 256.423 107.178C256.851 107.06 257.29 107.002 257.739 107.002ZM257.615 111.655C257.891 111.655 258.136 111.593 258.351 111.469C258.565 111.337 258.717 111.147 258.807 110.899V110.329H257.698C257.034 110.329 256.703 110.546 256.703 110.981C256.703 111.189 256.782 111.355 256.941 111.479C257.107 111.596 257.332 111.655 257.615 111.655ZM265.431 112.66L264.208 110.95L262.944 112.66H261.182L263.327 109.852L261.255 107.085H263.068L264.25 108.712L265.462 107.085H267.183L265.11 109.81L267.266 112.66H265.431Z" fill="white" />
    </g>
    <path d="M100.989 98.3536C101.184 98.1583 101.184 97.8417 100.989 97.6464L97.8068 94.4645C97.6115 94.2692 97.2949 94.2692 97.0997 94.4645C96.9044 94.6597 96.9044 94.9763 97.0997 95.1716L99.9281 98L97.0997 100.828C96.9044 101.024 96.9044 101.34 97.0997 101.536C97.2949 101.731 97.6115 101.731 97.8068 101.536L100.989 98.3536ZM72.6402 76.9293C72.1225 80.5532 72.925 85.9587 76.9891 90.4601C81.0613 94.9704 88.3405 98.5 100.635 98.5V97.5C88.5298 97.5 81.5591 94.0296 77.7313 89.7899C73.8954 85.5413 73.1479 80.4468 73.6302 77.0707L72.6402 76.9293Z" fill="black" />
    <path d="M213 7.59285C213 3.95172 215.952 1 219.593 1H262.407C266.048 1 269 3.95171 269 7.59284V32.899C269 36.5402 266.048 39.4919 262.407 39.4919H219.593C215.952 39.4919 213 36.5402 213 32.899V7.59285Z" fill="#B09AC9" fill-opacity="0.7" />
    <path d="M224.831 17.0204V17.0204C223.758 17.0204 222.889 16.1332 222.889 15.0604V15.0604C222.889 13.968 223.774 13.0647 224.867 13.0647V13.0647C225.959 13.0647 226.844 13.9502 226.844 15.0425V15.2101" stroke="white" stroke-width="0.659284" />
    <path d="M224.867 12.9987V12.2075C224.867 10.387 226.343 8.91113 228.164 8.91113V8.91113C229.984 8.91113 231.46 10.387 231.46 12.2076V12.2076" stroke="white" stroke-width="0.659284" />
    <path d="M230.207 13.6263V13.6263C230.207 12.7335 230.946 12.0098 231.839 12.0098V12.0098C232.75 12.0098 233.503 12.7477 233.503 13.658V13.658C233.503 14.5683 232.766 15.3062 231.855 15.3062H231.62" stroke="white" stroke-width="0.659284" />
    <path d="M233.438 13.592H234.426C235.337 13.592 236.075 14.33 236.075 15.2403V15.2403C236.075 16.1505 235.337 16.8885 234.426 16.8885H233.438" stroke="white" stroke-width="0.659284" />
    <line x1="229.481" y1="15.3109" x2="225.333" y2="19.4597" stroke="white" stroke-width="0.659284" stroke-linecap="round" />
    <line x1="230.8" y1="16.6295" x2="228.299" y2="19.1301" stroke="white" stroke-width="0.659284" stroke-linecap="round" />
    <line x1="232.119" y1="17.6183" x2="230.278" y2="19.4596" stroke="white" stroke-width="0.659284" stroke-linecap="round" />
    <path d="M221.46 31.2401C221.496 32.0964 222.197 32.6244 223.266 32.6244C224.39 32.6244 225.098 32.0707 225.098 31.1886C225.098 30.4965 224.699 30.107 223.755 29.8913L223.221 29.769C222.651 29.6338 222.416 29.4535 222.416 29.1445C222.416 28.7582 222.77 28.5006 223.295 28.5006C223.826 28.5006 224.19 28.7614 224.229 29.196H225.021C225.001 28.3783 224.325 27.8246 223.301 27.8246C222.291 27.8246 221.573 28.3815 221.573 29.2056C221.573 29.8688 221.978 30.2808 222.835 30.4772L223.437 30.6188C224.023 30.7573 224.261 30.9504 224.261 31.2852C224.261 31.6715 223.871 31.9484 223.311 31.9484C222.745 31.9484 222.316 31.6683 222.265 31.2401H221.46ZM225.867 28.3365V29.1348H225.378V29.7529H225.867V31.6393C225.867 32.3025 226.157 32.5632 226.894 32.5632C227.065 32.5632 227.222 32.5503 227.309 32.531V31.9194C227.258 31.929 227.155 31.9355 227.081 31.9355C226.797 31.9355 226.669 31.8067 226.669 31.5266V29.7529H227.313V29.1348H226.669V28.3365H225.867ZM227.86 32.5471H228.661V30.5609C228.661 30.0812 228.935 29.7883 229.389 29.7883C229.524 29.7883 229.646 29.8076 229.714 29.8334V29.1091C229.656 29.0962 229.566 29.0769 229.463 29.0769C229.061 29.0769 228.761 29.3151 228.645 29.7304H228.629V29.1348H227.86V32.5471ZM231.468 29.6853C231.929 29.6853 232.238 30.0233 232.254 30.5062H230.66C230.693 30.0297 231.018 29.6853 231.468 29.6853ZM232.257 31.5266C232.17 31.8099 231.887 31.9966 231.514 31.9966C230.989 31.9966 230.654 31.6297 230.654 31.0824V31.0341H233.039V30.7734C233.039 29.7368 232.434 29.064 231.465 29.064C230.48 29.064 229.856 29.7754 229.856 30.8538C229.856 31.9419 230.474 32.6147 231.497 32.6147C232.305 32.6147 232.904 32.1705 233.007 31.5266H232.257ZM233.497 30.1134C233.497 30.606 233.815 30.9343 234.446 31.0824L235.067 31.2273C235.399 31.311 235.525 31.4172 235.525 31.6168C235.525 31.8711 235.283 32.0288 234.894 32.0288C234.488 32.0288 234.247 31.855 234.198 31.5427H233.41C233.464 32.1898 234.008 32.6147 234.865 32.6147C235.727 32.6147 236.323 32.1801 236.323 31.5363C236.323 31.0309 236.056 30.7669 235.373 30.606L234.765 30.4708C234.43 30.3903 234.276 30.2615 234.276 30.0684C234.276 29.8205 234.507 29.6531 234.861 29.6531C235.235 29.6531 235.47 29.8334 235.496 30.1263H236.242C236.223 29.4954 235.679 29.064 234.878 29.064C234.047 29.064 233.497 29.4889 233.497 30.1134ZM236.774 30.1134C236.774 30.606 237.092 30.9343 237.723 31.0824L238.345 31.2273C238.676 31.311 238.802 31.4172 238.802 31.6168C238.802 31.8711 238.56 32.0288 238.171 32.0288C237.765 32.0288 237.524 31.855 237.475 31.5427H236.687C236.741 32.1898 237.285 32.6147 238.142 32.6147C239.005 32.6147 239.6 32.1801 239.6 31.5363C239.6 31.0309 239.333 30.7669 238.65 30.606L238.042 30.4708C237.707 30.3903 237.553 30.2615 237.553 30.0684C237.553 29.8205 237.784 29.6531 238.139 29.6531C238.512 29.6531 238.747 29.8334 238.773 30.1263H239.52C239.5 29.4954 238.956 29.064 238.155 29.064C237.324 29.064 236.774 29.4889 236.774 30.1134Z" fill="white" />
    <path d="M260.759 21.894L257.462 18.5976L254.166 21.894" stroke="white" stroke-width="0.824105" stroke-linecap="round" stroke-linejoin="round" />
    <rect x="262" y="142" width="65" height="38.4919" rx="6.59284" fill="#65B0B8" fill-opacity="0.7" />
    <path d="M278.137 152.144L280.876 149.812L280.253 151.904L281.218 152.192L278.425 154.585L279.074 152.41L278.137 152.144Z" stroke="white" stroke-width="0.659284" />
    <path d="M276.833 156.834V157.026C276.833 157.594 276.47 158.098 275.932 158.277L273.449 159.105C272.911 159.284 272.548 159.788 272.548 160.356V161.119" stroke="white" stroke-width="0.659284" />
    <path d="M279.8 156.834V157.026C279.8 157.594 280.163 158.098 280.701 158.277L283.183 159.105C283.722 159.284 284.085 159.788 284.085 160.356V161.119" stroke="white" stroke-width="0.659284" />
    <path d="M280.773 155.08L280.735 155.369C280.577 156.584 279.541 157.493 278.316 157.493C277.09 157.493 276.054 156.584 275.896 155.369L275.589 153.017C275.407 151.619 276.303 150.356 277.594 150.007" stroke="white" stroke-width="0.659284" />
    <path d="M270.65 168.902V173.547H272.347C273.737 173.547 274.555 172.684 274.555 171.213C274.555 169.742 273.734 168.902 272.347 168.902H270.65ZM271.481 169.604H272.26C273.187 169.604 273.708 170.177 273.708 171.216C273.708 172.276 273.193 172.845 272.26 172.845H271.481V169.604ZM276.605 170.685C277.066 170.685 277.375 171.023 277.391 171.506H275.797C275.83 171.03 276.155 170.685 276.605 170.685ZM277.394 172.527C277.307 172.81 277.024 172.997 276.651 172.997C276.126 172.997 275.791 172.63 275.791 172.082V172.034H278.176V171.773C278.176 170.737 277.571 170.064 276.602 170.064C275.617 170.064 274.993 170.775 274.993 171.854C274.993 172.942 275.611 173.615 276.634 173.615C277.442 173.615 278.041 173.17 278.144 172.527H277.394ZM280.568 170.077C280.073 170.077 279.686 170.328 279.493 170.724H279.477V170.135H278.695V174.671H279.496V172.981H279.512C279.699 173.364 280.085 173.602 280.581 173.602C281.437 173.602 281.985 172.929 281.985 171.841C281.985 170.75 281.434 170.077 280.568 170.077ZM280.324 172.945C279.825 172.945 279.493 172.511 279.49 171.841C279.493 171.178 279.825 170.737 280.324 170.737C280.842 170.737 281.164 171.168 281.164 171.841C281.164 172.517 280.842 172.945 280.324 172.945ZM282.5 173.547H283.301V171.561C283.301 171.081 283.575 170.788 284.029 170.788C284.164 170.788 284.286 170.808 284.354 170.833V170.109C284.296 170.096 284.206 170.077 284.103 170.077C283.701 170.077 283.401 170.315 283.285 170.73H283.269V170.135H282.5V173.547ZM286.108 170.685C286.569 170.685 286.878 171.023 286.894 171.506H285.3C285.333 171.03 285.658 170.685 286.108 170.685ZM286.897 172.527C286.81 172.81 286.527 172.997 286.154 172.997C285.629 172.997 285.294 172.63 285.294 172.082V172.034H287.679V171.773C287.679 170.737 287.074 170.064 286.105 170.064C285.12 170.064 284.496 170.775 284.496 171.854C284.496 172.942 285.114 173.615 286.137 173.615C286.945 173.615 287.544 173.17 287.647 172.527H286.897ZM288.137 171.113C288.137 171.606 288.455 171.934 289.086 172.082L289.707 172.227C290.039 172.311 290.165 172.417 290.165 172.617C290.165 172.871 289.923 173.029 289.534 173.029C289.128 173.029 288.887 172.855 288.838 172.543H288.05C288.104 173.19 288.648 173.615 289.505 173.615C290.367 173.615 290.963 173.18 290.963 172.536C290.963 172.031 290.696 171.767 290.013 171.606L289.405 171.471C289.07 171.39 288.916 171.262 288.916 171.068C288.916 170.82 289.147 170.653 289.501 170.653C289.875 170.653 290.11 170.833 290.136 171.126H290.882C290.863 170.495 290.319 170.064 289.518 170.064C288.687 170.064 288.137 170.489 288.137 171.113ZM291.414 171.113C291.414 171.606 291.732 171.934 292.363 172.082L292.985 172.227C293.316 172.311 293.442 172.417 293.442 172.617C293.442 172.871 293.2 173.029 292.811 173.029C292.405 173.029 292.164 172.855 292.115 172.543H291.327C291.381 173.19 291.925 173.615 292.782 173.615C293.644 173.615 294.24 173.18 294.24 172.536C294.24 172.031 293.973 171.767 293.29 171.606L292.682 171.471C292.347 171.39 292.193 171.262 292.193 171.068C292.193 170.82 292.424 170.653 292.779 170.653C293.152 170.653 293.387 170.833 293.413 171.126H294.16C294.14 170.495 293.596 170.064 292.795 170.064C291.964 170.064 291.414 170.489 291.414 171.113ZM294.771 173.547H295.573V170.135H294.771V173.547ZM295.17 169.687C295.421 169.687 295.618 169.494 295.618 169.253C295.618 169.008 295.421 168.815 295.17 168.815C294.923 168.815 294.726 169.008 294.726 169.253C294.726 169.494 294.923 169.687 295.17 169.687ZM297.755 173.615C298.757 173.615 299.407 172.948 299.407 171.841C299.407 170.737 298.75 170.064 297.755 170.064C296.761 170.064 296.104 170.74 296.104 171.841C296.104 172.948 296.754 173.615 297.755 173.615ZM297.755 172.981C297.247 172.981 296.918 172.568 296.918 171.841C296.918 171.117 297.25 170.701 297.755 170.701C298.264 170.701 298.592 171.117 298.592 171.841C298.592 172.568 298.264 172.981 297.755 172.981ZM299.922 173.547H300.723V171.571C300.723 171.081 301.016 170.75 301.477 170.75C301.934 170.75 302.159 171.02 302.159 171.503V173.547H302.961V171.342C302.961 170.553 302.533 170.07 301.779 170.07C301.255 170.07 300.891 170.315 300.707 170.721H300.691V170.135H299.922V173.547Z" fill="white" />
    <path d="M318.759 162.894L315.462 159.598L312.166 162.894" stroke="white" stroke-width="0.824105" stroke-linecap="round" stroke-linejoin="round" />
    <path d="M200.572 156.741C200.429 156.978 200.505 157.285 200.741 157.428L204.592 159.756C204.828 159.899 205.136 159.823 205.279 159.587C205.422 159.351 205.346 159.043 205.11 158.9L201.687 156.831L203.756 153.408C203.899 153.172 203.823 152.864 203.587 152.721C203.351 152.578 203.043 152.654 202.9 152.89L200.572 156.741ZM224.371 134.084C225.251 139.234 222.036 151.302 200.88 156.515L201.12 157.485C222.638 152.184 226.348 139.718 225.357 133.916L224.371 134.084Z" fill="black" />
    <defs>
        <filter id="filter0_bd_1982_22894" x="71" y="159.58" width="187.155" height="54.8418" filterUnits="userSpaceOnUse" color-interpolation-filters="sRGB">
            <feFlood flood-opacity="0" result="BackgroundImageFix" />
            <feGaussianBlur in="BackgroundImageFix" stdDeviation="2.5" />
            <feComposite in2="SourceAlpha" operator="in" result="effect1_backgroundBlur_1982_22894" />
            <feColorMatrix in="SourceAlpha" type="matrix" values="0 0 0 0 0 0 0 0 0 0 0 0 0 0 0 0 0 0 127 0" result="hardAlpha" />
            <feOffset dx="-2" dy="-2" />
            <feGaussianBlur stdDeviation="2" />
            <feComposite in2="hardAlpha" operator="out" />
            <feColorMatrix type="matrix" values="0 0 0 0 0 0 0 0 0 0 0 0 0 0 0 0 0 0 0.08 0" />
            <feBlend mode="normal" in2="effect1_backgroundBlur_1982_22894" result="effect2_dropShadow_1982_22894" />
            <feBlend mode="normal" in="SourceGraphic" in2="effect2_dropShadow_1982_22894" result="shape" />
        </filter>
        <filter id="filter1_b_1982_22894" x="97.464" y="52.576" width="206.899" height="83.9866" filterUnits="userSpaceOnUse" color-interpolation-filters="sRGB">
            <feFlood flood-opacity="0" result="BackgroundImageFix" />
            <feGaussianBlur in="BackgroundImageFix" stdDeviation="3.14399" />
            <feComposite in2="SourceAlpha" operator="in" result="effect1_backgroundBlur_1982_22894" />
            <feBlend mode="normal" in="SourceGraphic" in2="effect1_backgroundBlur_1982_22894" result="shape" />
        </filter>
        <clipPath id="clip0_1982_22894">
            <rect width="20.7278" height="17.9641" fill="white" transform="translate(22.3867 154.939)" />
        </clipPath>
        <clipPath id="clip1_1982_22894">
            <rect width="20.7278" height="17.9641" fill="white" transform="translate(89.9551 178.519)" />
        </clipPath>
    </defs>
</svg>