<svg width="205" height="256" viewBox="0 0 205 256" fill="none" xmlns="http://www.w3.org/2000/svg">
    <g clip-path="url(#clip0_5_143)">
        <path d="M2.56486 121.133C2.56485 121.133 2.56485 121.133 2.56484 121.133C2.44116 118.929 2.14088 116.695 1.85004 114.532C1.72297 113.587 1.5977 112.656 1.48975 111.746V48.4969C1.71742 48.0046 1.90888 47.4963 2.06263 46.976L2.07993 46.9175L2.09241 46.8577C3.60292 39.6289 7.78616 34.7911 14.6856 32.2308L14.6875 32.2301C19.8893 30.2916 25.1256 28.4199 30.3724 26.5443C32.7341 25.7001 35.0979 24.8552 37.4616 24.003L37.4619 24.0029C41.7533 22.455 46.0421 20.9044 50.3302 19.3541C59.5101 16.0351 68.6869 12.7173 77.8793 9.42926C82.9244 7.63616 87.9764 5.89517 93.0364 4.15139C95.592 3.27066 98.1497 2.38923 100.71 1.5H102.294C103.026 1.67322 103.719 1.81649 104.386 1.95452C105.726 2.2317 106.964 2.48772 108.216 2.92267C116.789 5.98346 125.358 9.08418 133.932 12.1862C138.446 13.8197 142.962 15.4536 147.48 17.0822L147.481 17.0826C151.343 18.4717 155.201 19.8674 159.058 21.2628C168.768 24.7754 178.473 28.2865 188.224 31.688C197.348 34.8742 202.694 41.8455 202.671 51.3267C202.617 71.6165 202.465 91.9097 202.213 112.206C202.031 123.356 200.739 134.459 198.355 145.353L198.354 145.358C192.739 171.416 180.65 194.069 162.582 213.618L162.581 213.618C148.048 229.349 130.718 241.455 111.894 251.697C108.506 253.54 105.281 254.464 102.096 254.485C98.9146 254.506 95.6712 253.626 92.2418 251.706L92.2391 251.704C78.7591 244.193 65.8867 235.948 54.2881 225.834C40.3637 213.689 28.7269 199.745 19.9706 183.492L18.6501 184.203M2.56486 121.133L1.06722 121.217C2.32601 143.493 8.05102 164.532 18.6501 184.203M2.56486 121.133C3.81188 143.199 9.48043 164.022 19.9706 183.492L18.6501 184.203M2.56486 121.133L18.6501 184.203" stroke="#104F94" stroke-width="3" />
        <path d="M63.7402 89.2068C63.7402 86.3671 63.6697 83.7133 63.7402 81.0646C64.1631 67.2632 69.8629 56.2612 81.5244 48.672C104.223 33.8955 134.897 47.1642 139.665 73.8623C140.431 78.1797 140.335 82.6528 140.572 87.0607C140.642 88.3373 140.683 89.2168 142.41 89.3173C150.899 89.8199 155.128 94.4288 155.139 103.048C155.139 123.36 155.139 143.669 155.139 163.974C155.217 166.807 155.111 169.643 154.821 172.463C153.945 179.137 149.101 183.264 142.284 183.284C129.649 183.324 117.014 183.324 104.379 183.284C90.4853 183.264 76.5949 183.228 62.7079 183.178C54.1481 183.178 49.113 178.187 49.113 169.653C49.113 147.926 49.2993 126.193 49.0123 104.471C48.9116 95.9617 53.0857 88.7042 63.7402 89.2068ZM82.0732 89.2721C95.1646 89.2721 107.889 89.2721 120.597 89.2721C121.977 89.2721 122.324 88.6036 122.274 87.4074C122.138 84.3265 122.219 81.2255 121.876 78.1696C121.385 73.9544 119.544 70.0099 116.628 66.9222C113.711 63.8345 109.875 61.7684 105.688 61.0309C101.54 60.3135 97.2716 60.9008 93.4729 62.7116C89.6741 64.5224 86.5333 67.4671 84.485 71.1382C81.3381 76.8377 82.0933 82.9192 82.0732 89.2721V89.2721ZM116.312 136.25C116.312 128.128 110.084 122.017 101.781 122.012C94.1777 122.012 87.919 128.385 87.9039 136.16C87.9039 143.84 94.2281 150.444 101.69 150.519C103.593 150.556 105.483 150.214 107.252 149.514C109.02 148.814 110.632 147.769 111.992 146.441C113.352 145.113 114.433 143.528 115.174 141.778C115.914 140.029 116.297 138.149 116.302 136.25H116.312Z" fill="#52B4E6" />
    </g>
    <defs>
        <clipPath id="clip0_5_143">
            <rect width="204.181" height="256" fill="white" />
        </clipPath>
    </defs>
</svg>