<svg width="70" height="26" viewBox="0 0 70 26" fill="none" xmlns="http://www.w3.org/2000/svg">
    <g clip-path="url(#clip0_2532_24475)">
        <path fill-rule="evenodd" clip-rule="evenodd" d="M19.2407 17.9576H13.3366C13.3238 17.8295 13.3238 17.7142 13.3238 17.6246C13.3238 16.1699 13.9103 15.212 15.3478 14.2925C16.0924 13.8085 16.5496 13.514 16.7327 13.3872C16.928 13.2463 17.0849 13.0664 17.2155 12.8621C17.3436 12.646 17.4112 12.3994 17.4114 12.1482C17.4114 11.5079 16.9671 11.0751 16.3268 11.0751C15.5431 11.0751 15.1 11.6117 15.0737 12.6067H13.3232C13.3488 11.5086 13.61 10.8715 14.2638 10.3471C14.8125 9.91361 15.4784 9.69528 16.3268 9.69528C18.117 9.69528 19.2529 10.6154 19.2529 12.0695C19.2529 13.2201 18.6523 14.0121 17.0196 15.0462C15.7787 15.8248 15.6218 15.9784 15.4912 16.54H19.2401V17.9576H19.2407ZM21.709 15.4547C21.709 16.2461 22.2437 16.7448 23.0664 16.7448C23.838 16.7448 24.3342 16.3223 24.3342 15.6717C24.3342 14.8931 23.838 14.5871 22.5574 14.5871H22.3621V13.1951H22.5452C23.772 13.1951 24.2561 12.9012 24.2561 12.1476C24.2561 11.5355 23.772 11.0885 23.0927 11.0885C22.2827 11.0885 21.8396 11.5604 21.8396 12.4293V12.4408H20.0232C20.0757 11.3933 20.3241 10.8452 20.9772 10.3349C21.5131 9.91361 22.2315 9.69464 23.1317 9.69464C24.8829 9.69464 26.0323 10.577 26.0323 11.9305C26.0323 12.8878 25.4701 13.5895 24.4776 13.8322C24.8304 13.9097 24.9604 13.9602 25.1435 14.0627C25.7966 14.395 26.1366 14.9949 26.1366 15.7614C26.1366 17.2174 24.9604 18.124 23.1061 18.124C21.0815 18.124 19.9188 17.09 19.9188 15.2498H21.7218C21.7218 15.3394 21.709 15.4034 21.709 15.4547ZM30.6436 15.1998L30.0552 15.2888C28.959 15.4553 28.5268 15.6973 28.5268 16.1699C28.5268 16.6046 28.9193 16.8985 29.4808 16.8985C30.3824 16.8985 30.8523 16.3229 30.8786 15.1614L30.6436 15.1998ZM29.8074 11.6117C30.7224 11.6117 31.4529 11.8543 31.9242 12.3269C32.3813 12.7731 32.5382 13.2713 32.5382 14.3694C32.5248 14.459 32.5248 14.7516 32.5113 15.2632V15.8382C32.5113 16.8076 32.5645 17.4466 32.6816 17.9576H31.2051C31.1398 17.6124 31.1398 17.4978 31.1398 17.2686V17.0125C30.6827 17.7783 30.043 18.0978 29.0102 18.0978C27.6656 18.0978 26.7244 17.3313 26.7244 16.2326C26.7244 15.7742 26.9075 15.3401 27.2085 15.0334C27.5734 14.6626 28.0312 14.4712 28.8931 14.3053C29.559 14.1901 30.2774 14.0883 30.8786 14.0492C30.8786 13.181 30.5655 12.8122 29.8336 12.8122C29.1421 12.8122 28.7887 13.1189 28.7484 13.7188H26.96C27.0516 12.4037 28.1087 11.6117 29.8074 11.6117ZM35.3593 12.5561C35.8152 11.9561 36.4299 11.6494 37.2008 11.6494C38.1151 11.6494 38.8988 12.1226 39.1729 12.8493C39.3304 13.2322 39.356 13.5396 39.356 14.4584V17.9576H37.6189V14.3438C37.6189 13.3468 37.3308 12.9531 36.6136 12.9531C35.8152 12.9531 35.4509 13.5274 35.4509 14.7651V17.9576H33.7125V11.7903H35.3593V12.5554V12.5561ZM43.2349 16.7064C44.032 16.7064 44.5679 15.9784 44.5679 14.8669C44.5551 13.7304 44.0711 13.0536 43.2618 13.0536C42.4512 13.0536 41.9421 13.7688 41.9421 14.8803C41.9421 15.9528 42.4774 16.7064 43.2355 16.7064H43.2349ZM46.2788 17.9576H44.6326V17.1399C44.228 17.7789 43.6011 18.0978 42.7911 18.0978C41.2621 18.0978 40.1916 16.7833 40.1916 14.8931C40.1916 12.9646 41.2103 11.6494 42.713 11.6494C43.5621 11.6494 44.1236 11.9312 44.5417 12.5682V9.45325H46.2788V17.9576ZM57.4339 17.9576H55.6974V11.1135L53.5678 17.9576H51.6732L49.518 11.1135V17.9576H47.7809V9.45389H50.6936L52.6919 15.8894L54.6518 9.45389H57.4339V17.9576ZM63.0505 14.1645C63.0249 13.4115 62.5018 12.9018 61.7315 12.9018C60.974 12.9018 60.5021 13.334 60.36 14.1645H63.0505ZM61.7962 18.0978C59.8375 18.0978 58.5832 16.8332 58.5832 14.8419C58.5832 12.9274 59.851 11.6501 61.7437 11.6501C63.6517 11.6501 64.8529 12.9274 64.8529 14.9949C64.8529 15.0974 64.8401 15.1742 64.8401 15.3919H60.3734C60.4125 16.2851 60.9478 16.7954 61.8352 16.7954C62.423 16.7954 62.8149 16.5534 62.9852 16.0681H64.8401C64.4354 17.3954 63.3642 18.0978 61.7962 18.0978Z" fill="#9C9EA1" />
        <path fill-rule="evenodd" clip-rule="evenodd" d="M0.220786 18.7027C-0.294646 19.7112 0.122822 20.9399 1.15625 21.4444C2.18903 21.949 3.44399 21.5405 3.96071 20.5295L4.80653 18.8775L3.06494 13.145L0.220786 18.7027ZM12.0155 0.21633C10.9834 -0.288216 9.72778 0.119647 9.21107 1.12938L5.79961 7.7967L7.54312 13.5286L12.9503 2.9574C13.4658 1.94895 13.0477 0.722158 12.0155 0.21633Z" fill="#92C746" />
        <path fill-rule="evenodd" clip-rule="evenodd" d="M6.36887 24.0223C6.69798 25.1037 7.86074 25.721 8.96652 25.3996C10.0742 25.0781 10.7049 23.9403 10.3771 22.8576L7.54252 13.5293L4.80593 18.8789L6.36823 24.0229L6.36887 24.0223ZM4.65482 4.02419C4.32571 2.94146 3.16295 2.32423 2.05525 2.64629C0.949474 2.96772 0.31879 4.10487 0.646617 5.18631L3.06434 13.1451L5.79965 7.79613L4.65482 4.02419Z" fill="#D50F67" />
        <path fill-rule="evenodd" clip-rule="evenodd" d="M3.06433 13.1452L4.80655 18.8783L7.54314 13.5287L5.80028 7.79688L3.06433 13.1452Z" fill="#3BA510" />
        <path fill-rule="evenodd" clip-rule="evenodd" d="M67.2577 12.59C67.1709 12.5623 67.0798 12.5499 66.9888 12.5535H66.8812V13.0645H67.0618C67.151 13.0696 67.2398 13.0473 67.316 13.0004C67.3479 12.9758 67.373 12.9435 67.3892 12.9066C67.4053 12.8697 67.4118 12.8293 67.4082 12.7891C67.409 12.744 67.3947 12.6998 67.3674 12.6638C67.3401 12.6278 67.3014 12.602 67.2577 12.5907V12.59ZM66.4125 14.0102V12.2411H67.2705C67.3922 12.2487 67.51 12.2795 67.6195 12.3333C67.6953 12.3735 67.758 12.4348 67.7999 12.5097C67.8418 12.5847 67.8612 12.6701 67.8557 12.7558C67.8594 12.8127 67.8503 12.8696 67.8292 12.9224C67.808 12.9753 67.7753 13.0227 67.7334 13.0613C67.6447 13.1299 67.5379 13.1713 67.4261 13.1804C67.5165 13.1949 67.6024 13.2295 67.6777 13.2815C67.7333 13.3309 67.7764 13.3927 67.8037 13.4619C67.8309 13.5311 67.8415 13.6057 67.8346 13.6798V13.8386C67.8333 13.8558 67.8333 13.8732 67.8346 13.8904C67.8314 13.9067 67.8314 13.9235 67.8346 13.9397V13.991H67.3896C67.3747 13.9104 67.3655 13.8289 67.3621 13.747C67.3621 13.6734 67.3531 13.6004 67.3345 13.5293C67.3234 13.4995 67.3058 13.4726 67.283 13.4504C67.2602 13.4283 67.2327 13.4115 67.2026 13.4013C67.1526 13.3829 67.0997 13.3735 67.0464 13.3737H66.8812V13.9858L66.4119 14.0102H66.4125ZM66.1756 12.1982C66.0479 12.3154 65.9447 12.4566 65.8717 12.6138C65.7987 12.771 65.7575 12.941 65.7503 13.1141C65.7432 13.2873 65.7703 13.4602 65.8301 13.6228C65.8899 13.7855 65.9812 13.9347 66.0988 14.062C66.2226 14.1963 66.3729 14.3034 66.5402 14.3767C66.7074 14.45 66.8881 14.4878 67.0707 14.4878C67.2534 14.4878 67.434 14.45 67.6013 14.3767C67.7686 14.3034 67.9189 14.1963 68.0427 14.062C68.1671 13.9396 68.2654 13.7933 68.3318 13.6319C68.3981 13.4704 68.4311 13.2972 68.4288 13.1227C68.4293 12.9518 68.3957 12.7826 68.3298 12.6249C68.264 12.4672 68.1672 12.3243 68.0452 12.2046C67.8067 11.9571 67.4798 11.8143 67.1362 11.8075C66.7926 11.8006 66.4603 11.9303 66.2121 12.1681L66.1756 12.2046V12.1982ZM68.2328 14.2669C67.6054 14.8854 66.5937 14.879 65.9739 14.2528C65.6768 13.952 65.5112 13.5456 65.5135 13.1227C65.5039 12.6809 65.6864 12.2571 66.013 11.96C66.3096 11.6774 66.7046 11.5215 67.1143 11.5252C67.4342 11.5237 67.7472 11.6181 68.0129 11.7961C68.2787 11.9741 68.4851 12.2277 68.6054 12.524C68.7258 12.8204 68.7546 13.1461 68.6882 13.459C68.6218 13.7719 68.4632 14.0578 68.2328 14.2797V14.2669Z" fill="#9C9EA1" />
    </g>
    <defs>
        <clipPath id="clip0_2532_24475">
            <rect width="69.1511" height="25.6115" fill="white" />
        </clipPath>
    </defs>
</svg>