<svg width="103" height="19" viewBox="0 0 103 19" fill="none" xmlns="http://www.w3.org/2000/svg">
    <g clip-path="url(#clip0_2532_24482)">
        <path fill-rule="evenodd" clip-rule="evenodd" d="M29.4817 8.45372C28.3713 8.59237 27.6774 8.91594 27.2148 9.37834C26.8445 9.74801 26.6596 10.2102 26.6596 10.6724C26.6596 11.5045 27.261 12.1055 28.0012 12.1055C28.4637 12.1055 28.9264 11.9204 29.1578 11.6433C29.2502 11.5507 29.3428 11.3659 29.3428 11.181L29.4816 8.45372H29.4817ZM31.3784 13.3996C30.4531 13.3996 29.6202 12.7987 29.3891 11.8745C28.9264 12.7062 28.0475 13.3996 26.8909 13.3996C25.5955 13.3996 24.4852 12.3827 24.4852 11.0885C24.4852 9.2857 26.197 7.99159 29.4353 7.94531V7.48309C29.4816 6.1889 28.7414 5.40292 27.446 5.40292C26.5206 5.40292 25.5493 6.00407 24.9016 6.78967C24.8554 6.83595 24.5779 6.55875 24.5779 6.51238C25.4105 4.84852 26.9371 3.92399 28.5101 3.92399C30.3141 3.92399 31.6096 5.21827 31.5633 7.39063L31.4248 10.9961C31.4248 11.8282 31.7948 12.1978 32.2111 12.1978C32.6736 12.1978 32.9974 11.8281 33.1825 11.3194C33.1825 11.2733 33.4599 11.412 33.4599 11.4581C33.4599 12.7062 32.5348 13.3996 31.3782 13.3996H31.3784ZM42.8975 13.076H40.4457C40.3994 13.076 40.3994 12.6139 40.4457 12.6139C41.4635 12.4751 41.6022 12.3827 41.6022 10.3952V7.62183C41.6022 6.37373 40.8621 5.49557 39.798 5.49557C39.0579 5.49557 38.3639 5.86533 38.04 6.32764C37.8087 6.60502 37.67 7.11343 37.67 7.76057V10.3952C37.67 12.3828 37.9011 12.4751 38.9191 12.6139C38.9191 12.6139 38.9652 13.076 38.9191 13.076H34.2001C34.154 13.076 34.154 12.6139 34.154 12.6139C35.2642 12.4288 35.4031 12.3827 35.4031 10.3952V7.02088C35.4031 4.98698 35.1717 4.89461 33.9687 4.70978C33.8763 4.70978 33.9226 4.24747 33.9687 4.24747H37.4848V6.28136H37.5312C38.3176 4.80206 39.5205 3.92389 41.0008 3.92389C42.6663 3.92389 43.9616 5.21818 43.9616 7.34445V10.349C43.9616 12.3366 44.1465 12.429 45.2569 12.5677C45.3494 12.5677 45.3031 13.0298 45.2569 13.0298C44.563 13.076 43.5451 13.076 42.8975 13.076M50.3457 13.3996C47.5701 13.3996 45.7659 11.2271 45.7659 8.73111C45.7659 6.05016 47.5702 3.9238 50.531 3.9238C51.9188 3.9238 52.6127 4.38611 53.0292 4.38611C53.2141 4.38611 53.3992 4.24747 53.4917 4.01636C53.4917 3.97008 54.0469 3.97008 54.0469 4.01636V7.34436C54.0469 7.39063 53.4918 7.39063 53.4918 7.34436C52.7516 5.81896 51.7339 4.52485 50.5312 4.52485C49.0505 4.52485 48.1716 6.09644 48.1716 8.26879C48.1716 10.5799 49.3744 12.1055 51.0399 12.1055C52.1502 12.1055 53.3994 11.3196 53.9082 10.4413C53.9544 10.3488 54.3245 10.5339 54.3245 10.6264C53.7233 12.1978 52.1502 13.3996 50.3459 13.3996M61.5876 7.52928V6.88214C61.5876 5.4492 60.8937 4.61722 60.0147 4.61722C58.9043 4.61722 58.0717 5.81896 57.8865 7.52928H61.5877H61.5876ZM57.8865 8.59228C57.8865 10.5799 58.997 12.1053 60.8936 12.1053C62.0039 12.1053 63.114 11.3658 63.7156 10.4412C63.7156 10.3951 64.0856 10.5337 64.0856 10.6263C63.577 12.1978 61.9113 13.3995 60.0609 13.3995C57.1464 13.3995 55.4348 11.2732 55.4348 8.73101C55.4348 6.18881 57.239 3.92389 60.2923 3.92389C62.6053 3.92389 64.1321 5.4492 64.2709 7.52928V8.17642H57.9792C57.8866 8.2688 57.8866 8.49991 57.8866 8.59246L57.8865 8.59228ZM68.8971 13.3996C67.4629 13.3996 66.2138 13.03 65.7975 12.7524C65.7513 12.7063 65.6125 11.5045 65.6125 10.3027C65.6125 10.2566 66.1676 10.2101 66.1676 10.3027C66.9077 11.9205 67.9718 12.8449 69.1284 12.8449C70.0999 12.8449 70.7938 12.3366 70.7938 11.5507C70.7938 10.6264 69.6835 10.2102 68.5733 9.70182C67.2316 9.19342 65.7051 8.5 65.7051 6.78986C65.7051 5.4492 66.8617 4.06254 69.036 4.06254C69.9614 4.06254 70.5626 4.4323 70.979 4.4323C71.164 4.4323 71.349 4.29374 71.4877 4.06254C71.4877 4.01636 72.0429 4.01636 72.0429 4.06254V7.11343C72.0429 7.15962 71.4877 7.15962 71.4877 7.11343C70.7476 5.72668 69.8686 4.75596 68.8046 4.75596C67.8329 4.75596 67.3701 5.40311 67.3701 5.9117C67.3701 6.83604 68.4343 7.2058 69.5445 7.66811C70.8861 8.2227 72.459 8.91621 72.459 10.6725C72.459 12.1516 71.0714 13.3995 68.897 13.3995M73.477 5.21809C73.3383 5.21809 73.292 4.84824 73.4308 4.75587C74.4023 3.87753 76.0216 2.3985 76.9004 1.47397C76.9467 1.42769 77.2705 1.47397 77.2705 1.56652V4.29347H80.4164C80.509 4.29347 80.509 5.17172 80.4164 5.17172H77.2705V10.3025C77.2705 11.4581 77.9645 11.9665 78.7047 11.9665C79.2598 11.9665 79.8612 11.5044 80.1389 10.9496C80.1389 10.9035 80.509 11.0883 80.509 11.1347C80.139 12.3828 78.9361 13.3532 77.5945 13.3532C76.1602 13.3532 75.0037 12.4288 75.0037 10.6261V5.218H73.477V5.21809ZM88.0961 6.6974C87.8183 6.6974 87.1244 5.86533 86.6156 5.86533C86.3842 5.86533 86.1066 6.00397 85.8754 6.23508C85.5053 6.60484 85.1814 7.48319 85.1814 8.2227V10.4414C85.1814 12.4752 85.5054 12.5214 86.5695 12.66C86.5695 12.66 86.6157 13.1221 86.5695 13.1221H81.6658C81.6195 13.1221 81.6195 12.6601 81.6658 12.6601C82.7761 12.4751 82.915 12.4289 82.915 10.4415V7.06697C82.915 5.07935 82.6837 4.9407 81.4807 4.75587C81.3881 4.75587 81.4344 4.29356 81.4807 4.29356H85.0427V6.60466H85.1353C85.2279 6.32736 85.4127 6.00379 85.5517 5.68022C86.1992 4.61704 86.9861 3.9699 87.8185 3.9699C88.605 3.9699 89.2528 4.57086 89.2528 5.218C89.2986 5.95751 88.3274 6.69703 88.0962 6.69703M97.6721 7.89904L94.6651 15.6183C93.6012 18.3454 92.6295 18.9002 91.3342 18.9002C90.594 18.9002 89.7612 18.5304 89.7612 18.2993C89.715 17.9295 90.2239 16.5891 90.5014 16.5891C90.594 16.5891 91.7042 17.0973 92.2593 17.0973C93.0458 17.0973 93.5547 16.5891 93.971 15.4797L94.5262 14.0004C94.3411 13.2609 92.1205 8.40753 91.8431 7.7603C91.2879 6.46601 90.9177 5.4492 90.5477 5.07935C90.3166 4.84815 90.0852 4.75587 89.4375 4.66332C89.3913 4.66332 89.3913 4.20101 89.4375 4.20101C90.0389 4.20101 91.288 4.24719 91.9819 4.24719C92.6759 4.24719 93.8786 4.20091 94.4801 4.20091C94.5263 4.20091 94.5263 4.66323 94.4801 4.66323C93.0921 4.84797 93.2309 5.31019 93.9712 7.15925L95.5905 11.0881L96.8857 7.71384C97.3484 6.55829 97.5797 5.86496 97.5797 5.44893C97.5797 4.94034 97.2557 4.7555 96.2843 4.70941C96.238 4.70941 96.238 4.20082 96.2843 4.20082C96.932 4.20082 97.7648 4.24701 98.3198 4.24701C98.7362 4.24701 99.1526 4.20073 99.9391 4.20073C99.9853 4.20073 100.032 4.70932 99.9391 4.70932C99.4302 4.75541 99.1989 4.89406 98.9213 5.17136C98.5512 5.5412 98.2736 6.28072 97.6721 7.89849L97.6721 7.89904Z" fill="#333333" />
        <path fill-rule="evenodd" clip-rule="evenodd" d="M13.9836 3.69276C12.3645 1.93626 10.7454 2.21373 10.4678 2.25983C10.6066 2.30601 10.7454 5.35681 12.4571 6.97458C13.6137 8.03757 15.973 7.66782 15.973 7.66782C15.973 7.66782 15.5566 5.403 13.9837 3.69276M15.9269 9.65562C15.4179 9.65562 13.3361 9.84054 11.9483 11.5507C10.5141 13.3535 10.5604 14.7864 10.2365 15.1099C10.5141 15.2024 13.4287 15.4796 14.6777 13.5846C15.8805 11.8279 15.9269 9.93282 15.9269 9.65553M3.25083 8.40733C3.57458 8.4537 4.68498 9.88664 6.67429 10.0715C8.84858 10.3028 9.58872 9.1934 9.63513 9.1934C9.63513 9.05466 7.87713 7.1596 5.93414 7.1596C4.59235 7.20569 3.25083 8.40742 3.25083 8.40742M11.1616 9.37823C11.1154 9.42442 9.31129 11.8281 5.05505 11.1809C1.63159 10.6262 0.382521 8.731 0.151123 8.68481C0.428745 8.31496 3.01952 6.23497 6.02641 6.28116C8.98735 6.37371 11.1616 8.03767 11.1616 8.03767H13.0582C11.5317 7.57545 9.68126 6.74347 8.84849 4.8945C8.10835 3.18436 8.24711 2.16737 7.92326 0.734522C7.92326 0.734522 11.3466 0.457135 13.9836 2.16737C16.3893 3.73895 17.7308 7.89902 17.7772 8.03767H19.2574L18.9338 0.641968L20.7842 0.688153C20.4605 2.62959 20.8769 16.4965 20.7842 16.4965C20.5992 16.5426 19.0262 16.6349 18.8876 16.2653C18.8876 16.2653 19.2576 9.47051 19.3039 9.33177H17.8696C17.8696 9.42433 17.7308 13.2607 14.8164 15.2946C11.9017 17.3284 7.69196 16.7275 7.69196 16.7275C8.20098 15.9417 7.69196 15.1097 9.17224 12.8448C10.884 10.2563 13.1509 9.33177 13.1047 9.33177C12.966 9.37814 11.208 9.37814 11.1616 9.37814" fill="#9CBE30" />
        <path fill-rule="evenodd" clip-rule="evenodd" d="M101.736 5.05423C101.87 5.05423 101.964 5.0052 101.964 4.88891C101.964 4.78628 101.91 4.71938 101.749 4.71938H101.606V5.05432H101.736V5.05423ZM101.463 4.59421H101.772C101.946 4.59421 102.116 4.65679 102.116 4.88011C102.116 4.99173 102.04 5.09913 101.937 5.13028L102.156 5.51425H101.991L101.816 5.17482H101.606V5.51425H101.463V4.59421ZM102.442 5.07209C102.442 4.64323 102.143 4.32617 101.767 4.32617C101.392 4.32617 101.092 4.64323 101.092 5.07209C101.092 5.49638 101.392 5.80455 101.767 5.80455C102.143 5.80455 102.442 5.49647 102.442 5.07209H102.442ZM100.954 5.07209C100.954 4.54949 101.325 4.20117 101.767 4.20117C102.214 4.20117 102.581 4.54958 102.581 5.07219C102.581 5.5903 102.214 5.93422 101.767 5.93422C101.325 5.93422 100.954 5.5903 100.954 5.07219V5.07209Z" fill="#333333" />
    </g>
    <defs>
        <clipPath id="clip0_2532_24482">
            <rect width="102.446" height="18.3275" fill="white" transform="translate(0.151123 0.641968)" />
        </clipPath>
    </defs>
</svg>