<svg width="146" height="18" viewBox="0 0 146 18" fill="none" xmlns="http://www.w3.org/2000/svg">
    <path d="M50.8662 3.43335H56.4869V4.47019H52.1028V7.77085H55.8182V8.81152H52.1028V13.187H50.8662V3.43335Z" fill="#505759" />
    <path d="M57.1432 11.0392C57.1432 9.541 58.4968 8.79245 61.5739 8.47094C61.5739 7.59488 61.2772 6.74735 60.0872 6.74735C59.3133 6.78177 58.5654 7.03692 57.9318 7.48264L57.4562 6.67693C58.304 6.12729 59.2857 5.81947 60.2955 5.78662C62.0648 5.78662 62.8086 6.90239 62.8086 8.61266V12.8227H61.7975L61.6928 12.0027H61.6491C60.9845 12.5916 60.1413 12.9401 59.2549 12.992C58.9844 13.0187 58.7114 12.9877 58.4538 12.9012C58.1962 12.8147 57.9598 12.6745 57.7603 12.49C57.5608 12.3055 57.4026 12.0808 57.2963 11.8308C57.1899 11.5807 57.1377 11.3109 57.1432 11.0392ZM61.5739 11.1343V9.22714C59.1655 9.5125 58.3322 10.0747 58.3322 10.9507C58.3322 11.7279 58.8972 12.0532 59.6106 12.0532C60.3564 12.004 61.0567 11.6776 61.5739 11.1381V11.1343Z" fill="#505759" />
    <path d="M65.0848 5.9522H66.0959L66.1996 6.94051H66.2443C66.5213 6.60645 66.863 6.33173 67.2487 6.13282C67.6344 5.93391 68.0563 5.81486 68.4891 5.78285C68.9223 5.73836 69.3576 5.84468 69.7215 6.08382C70.0854 6.32295 70.3556 6.68027 70.4867 7.09552C70.7741 6.72768 71.1329 6.4218 71.5415 6.19622C71.9502 5.97063 72.4003 5.83 72.8647 5.78285C74.3514 5.78285 75.0648 6.71413 75.0648 8.4634V12.8094H73.8454V8.61841C73.8454 7.33428 73.4145 6.78451 72.507 6.78451C72.1491 6.82981 71.804 6.94681 71.4923 7.12855C71.1806 7.3103 70.9088 7.55305 70.6931 7.84225V12.8094H69.4746V8.61841C69.4746 7.33428 69.0427 6.78451 68.121 6.78451C67.4001 6.88277 66.7477 7.26321 66.3071 7.84225V12.8094H65.0848V5.9522Z" fill="#505759" />
    <path d="M77.2203 3.68645C77.2347 3.47149 77.3302 3.26999 77.4876 3.12283C77.645 2.97567 77.8524 2.8938 78.0678 2.8938C78.2833 2.8938 78.4907 2.97567 78.648 3.12283C78.8054 3.26999 78.9009 3.47149 78.9153 3.68645C78.9009 3.90141 78.8054 4.10285 78.648 4.25001C78.4907 4.39717 78.2833 4.47905 78.0678 4.47905C77.8524 4.47905 77.645 4.39717 77.4876 4.25001C77.3302 4.10285 77.2347 3.90141 77.2203 3.68645ZM77.4429 5.9617H78.6614V13.1909H77.4429V5.9617Z" fill="#505759" />
    <path d="M81.1059 11.7326V2.60107H82.3253V11.8201C82.3253 12.2073 82.4889 12.3557 82.6668 12.3557C82.7568 12.3577 82.8467 12.3478 82.9341 12.3262L83.0977 13.2479C82.8761 13.3381 82.6375 13.3787 82.3986 13.3668C81.4778 13.3659 81.1059 12.7856 81.1059 11.7326Z" fill="#505759" />
    <path d="M84.1735 15.7696L84.4113 14.8032C84.5895 14.8619 84.7747 14.8968 84.962 14.9068C85.7801 14.9068 86.3004 14.2524 86.5972 13.3602L86.7608 12.8247L83.8615 5.58313H85.1256L86.5972 9.58297C86.8197 10.207 87.0727 10.9508 87.2963 11.6195H87.3563C87.5636 10.9651 87.7729 10.2212 87.966 9.58297L89.2596 5.58313H90.4486L87.7272 13.404C87.2221 14.8308 86.4783 15.917 85.021 15.917C84.7319 15.9194 84.4448 15.8695 84.1735 15.7696Z" fill="#505759" />
    <path d="M93.6962 4.47019H90.757V3.43335H97.891V4.47019H94.9423V13.1832H93.6962V4.47019Z" fill="#505759" />
    <path d="M98.8555 5.95221H99.8666L99.9703 7.19353H100.016C100.203 6.79796 100.491 6.45896 100.851 6.21115C101.212 5.96333 101.632 5.81555 102.068 5.78286C102.333 5.77476 102.596 5.82274 102.841 5.92365L102.603 6.93953C102.378 6.86308 102.142 6.82486 101.904 6.82638C101.294 6.82638 100.566 7.24962 100.075 8.40628V12.8094H98.8565V5.95123L98.8555 5.95221Z" fill="#505759" />
    <path d="M103.338 9.40021C103.305 8.94844 103.365 8.49483 103.511 8.06636C103.658 7.63788 103.889 7.2433 104.192 6.90609C104.494 6.56887 104.861 6.29588 105.271 6.10339C105.681 5.9109 106.126 5.80287 106.578 5.78564C108.422 5.78564 109.463 7.0431 109.463 9.00734C109.466 9.23015 109.451 9.45282 109.418 9.6732H104.541C104.534 9.9905 104.591 10.3059 104.71 10.6003C104.829 10.8946 105.006 11.1616 105.232 11.3851C105.457 11.6086 105.726 11.7838 106.021 11.9001C106.316 12.0165 106.632 12.0714 106.949 12.0617C107.588 12.0559 108.211 11.8695 108.748 11.5242L109.18 12.2852C108.47 12.741 107.645 12.9862 106.802 12.992C106.332 13.0076 105.864 12.9244 105.428 12.7477C104.992 12.571 104.598 12.3048 104.271 11.9662C103.945 11.6277 103.693 11.2243 103.532 10.7823C103.371 10.3403 103.305 9.86945 103.338 9.40021ZM108.392 8.8352C108.392 7.45025 107.738 6.70161 106.607 6.70161C106.053 6.72503 105.529 6.95887 105.143 7.35539C104.756 7.75191 104.535 8.28124 104.525 8.8352H108.392Z" fill="#505759" />
    <path d="M110.723 9.40021C110.691 8.94839 110.75 8.49477 110.897 8.0663C111.044 7.63782 111.275 7.24323 111.578 6.90603C111.88 6.56883 112.247 6.29587 112.657 6.10339C113.067 5.91092 113.512 5.80288 113.964 5.78564C115.809 5.78564 116.848 7.0431 116.848 9.00734C116.851 9.23009 116.837 9.45273 116.805 9.6732H111.928C111.921 9.99054 111.978 10.306 112.097 10.6004C112.215 10.8948 112.393 11.1619 112.618 11.3854C112.844 11.6089 113.112 11.7842 113.408 11.9004C113.703 12.0167 114.019 12.0716 114.336 12.0617C114.975 12.0557 115.599 11.8694 116.136 11.5242L116.567 12.2852C115.857 12.741 115.032 12.9861 114.189 12.992C113.719 13.0079 113.25 12.9249 112.814 12.7483C112.378 12.5717 111.984 12.3055 111.657 11.9669C111.33 11.6283 111.078 11.2249 110.917 10.7828C110.756 10.3406 110.69 9.86962 110.723 9.40021ZM115.778 8.8352C115.778 7.45025 115.124 6.70161 113.995 6.70161C113.441 6.72503 112.918 6.95887 112.531 7.35539C112.144 7.75191 111.923 8.28124 111.913 8.8352H115.778Z" fill="#505759" />
    <path d="M119.464 3.49329H122.2C125.159 3.49329 127.063 4.96481 127.063 8.29593C127.063 11.6271 125.16 13.188 122.319 13.188H119.465L119.464 3.49329ZM122.066 11.4187C123.716 11.4187 124.817 10.615 124.817 8.29593C124.817 5.97689 123.716 5.26251 122.066 5.26251H121.649V11.4178L122.066 11.4187Z" fill="#505759" />
    <path d="M128.632 3.49333H130.877L133.405 8.31119L134.356 10.4523H134.416C134.327 9.42598 134.149 8.05818 134.149 6.91388V3.4895H136.23V13.1842H133.985L131.457 8.35114L130.506 6.23943H130.446C130.535 7.31049 130.713 8.6032 130.713 9.74845V13.1833H128.632V3.49333Z" fill="#505759" />
    <path d="M140.321 3.49329H142.952L145.986 13.188H143.666L143.07 10.8832H140.112L139.517 13.188H137.288L140.321 3.49329ZM140.559 9.17294H142.626L142.403 8.28067C142.135 7.31424 141.868 6.16903 141.615 5.1579H141.555C141.317 6.18425 141.064 7.31424 140.794 8.28067L140.559 9.17294Z" fill="#505759" />
    <path d="M45.7795 7.10412C44.7387 7.47856 43.633 7.63911 42.5286 7.57616C42.6614 5.85536 42.024 3.73729 37.765 4.46976L37.2564 4.97843C37.2564 4.97843 41.3867 4.08674 41.5291 7.32742C41.375 7.26263 41.2275 7.18326 41.0886 7.09038C40.3729 6.59204 39.6069 6.17009 38.8032 5.83145C37.9711 5.42126 37.0403 5.25396 36.1175 5.34873C35.0732 5.41689 34.6047 6.13105 33.9836 7.59803C33.5202 7.303 33.0314 6.97288 32.5167 6.6041C32.2704 6.34916 31.9738 6.14829 31.6456 6.0143C31.3175 5.88031 30.965 5.81613 30.6107 5.82585C29.2963 5.93267 28.3609 6.59342 26.81 9.06857C26.3581 8.23213 25.8005 7.45735 25.1507 6.76332C24.5625 6.02472 23.7714 5.47401 22.8745 5.17884C21.2839 4.76224 20.7625 5.44131 17.031 8.40782C14.7603 5.9576 10.4769 3.26424 0 0.611572L2.32814 4.75411C2.32814 4.75411 7.49258 4.20577 13.3066 7.80912C14.1188 8.307 14.868 8.90099 15.5381 9.57825C15.2278 9.81833 14.9017 10.0691 14.5558 10.3316C8.50888 14.9288 5.37654 14.7269 5.37654 14.7269C3.20405 16.9208 1.3917 16.5296 1.3917 16.5296C6.02051 19.4147 12.9627 14.4527 16.8351 11.1678C18.6801 13.854 18.9496 16.2544 23.0113 16.1613L23.8374 15.9167C23.9876 15.8842 24.1351 15.8407 24.2789 15.7864L24.4142 15.7463C24.4142 15.7463 24.403 15.7463 24.3801 15.7463C25.55 15.26 26.3558 14.1099 27.0903 12.7106C27.4812 13.2111 27.9731 13.6237 28.534 13.9217C29.0948 14.2196 29.7121 14.3962 30.3457 14.44L31.4754 14.2874L31.536 14.3052C31.7529 14.2895 31.9678 14.2522 32.1774 14.1938L32.4348 14.1592C32.4348 14.1592 32.3976 14.1562 32.333 14.1481C34.0706 13.557 34.6642 11.4939 35.1108 9.53603C37.1648 10.5355 39.411 11.2177 40.8322 10.4303C40.8322 10.4328 40.8322 10.4369 40.8287 10.4394C41.2739 10.1839 41.6914 9.88283 42.0744 9.54111C42.2042 9.20571 42.3081 8.86085 42.3852 8.50955C43.1685 8.54801 43.9495 8.39562 44.6609 8.06549L45.7795 7.10412ZM18.2457 9.93482C18.8118 9.42616 19.236 9.02279 19.4781 8.80355C20.9477 7.47086 21.733 6.57359 22.523 6.32027C22.955 6.54737 23.3272 6.87349 23.609 7.27198C24.4002 8.40452 25.129 9.57941 25.7922 10.7914C25.608 11.1169 25.4168 11.4608 25.2153 11.8291C24.198 13.6908 23.1003 14.5336 22.1486 14.8749C21.8498 14.672 21.5643 14.4499 21.2941 14.2101C19.91 12.9883 19.3413 11.533 18.2457 9.93482ZM32.6001 10.9521C31.8493 12.6643 31.0232 13.354 30.3523 13.6018C29.2306 13.1657 28.3253 12.3061 27.8319 11.2085C28.3102 10.1424 28.8415 9.10085 29.424 8.08787C29.7222 7.56453 30.1647 7.13808 30.6987 6.85945C31.244 7.25366 32.2888 7.97851 33.536 8.69877C33.2751 9.34884 32.9745 10.0976 32.5986 10.9526L32.6001 10.9521ZM35.3646 8.41494C35.4415 8.08126 35.5198 7.7608 35.6063 7.46272C35.6844 7.13038 35.8385 6.82068 36.0565 6.55794C36.2745 6.2952 36.5504 6.08657 36.8627 5.94844L36.9328 5.97133C38.6745 6.61275 39.9136 7.86813 41.4599 8.33813C41.3777 8.80812 41.2574 9.27066 41.1003 9.72118C40.1689 10.0442 38.4166 10.0849 35.3631 8.41545L35.3646 8.41494Z" fill="#FA4616" />
</svg>