<svg width="108" height="20" viewBox="0 0 108 20" fill="none" xmlns="http://www.w3.org/2000/svg">
    <g clip-path="url(#clip0_2532_24506)">
        <path d="M38.6089 3.60704C38.5852 3.39255 38.4994 3.34517 38.2792 3.34517H35.6239C35.4651 3.34517 35.3422 3.38102 35.2813 3.61857C34.9509 4.78389 33.6544 9.30304 33.6544 9.30304C33.4746 9.94612 33.3236 10.5969 33.2017 11.2534C33.1813 11.1091 33.1526 10.966 33.1159 10.825C33.0915 10.6829 33.0544 10.5516 33.0301 10.3973C33.0023 10.2406 32.9656 10.0856 32.9199 9.93309C32.8835 9.76661 32.822 9.57645 32.7612 9.35042C32.7612 9.35042 31.5004 4.7602 31.1828 3.60704C31.097 3.34517 30.9498 3.34517 30.7788 3.34517H28.1357C27.9276 3.34517 27.8668 3.45209 27.854 3.61857C27.6952 5.2481 26.8878 13.4656 26.729 15.0708C26.7162 15.2731 26.827 15.332 27.0344 15.3442H28.8823C29.0782 15.3442 29.2127 15.3083 29.237 15.0823C29.3228 13.9054 29.6532 9.07702 29.6532 9.07702C29.6775 8.70822 29.6897 8.35158 29.7019 7.99494C29.7268 7.66199 29.739 7.32904 29.739 6.99609C29.7998 7.31687 29.8735 7.66199 29.9714 8.03079C30.0694 8.41112 30.1545 8.74407 30.2403 9.05333C30.2403 9.05333 31.6234 13.917 31.9653 15.0944C32.0267 15.2731 32.0997 15.3563 32.2957 15.3563H33.8868C34.1429 15.3442 34.2044 15.3205 34.278 15.1066C34.6449 13.9054 36.1989 8.79145 36.1989 8.79145C36.309 8.42329 36.3948 8.11403 36.4563 7.85215C36.5171 7.59091 36.5907 7.29318 36.6637 6.94871C36.6637 7.26949 36.6765 7.59091 36.6887 7.9117C36.7008 8.23312 36.7252 8.5776 36.7495 8.95793C36.7495 8.95793 37.1414 14.036 37.2022 15.154C37.215 15.3563 37.3245 15.3678 37.4711 15.3678H39.4656C39.5885 15.3678 39.7108 15.3083 39.6859 15.1066C39.5149 13.5123 38.7683 5.20008 38.6095 3.60704H38.6089ZM48.349 6.50819H46.3545C46.1342 6.50819 46.0977 6.54404 46.0362 6.73421C45.7302 7.64982 44.7147 10.7296 44.7147 10.7296C44.6417 10.9326 44.5681 11.1586 44.5066 11.384C44.4458 11.61 44.3849 11.8002 44.3478 11.9551C44.3235 12.062 44.2991 12.1927 44.262 12.3476C44.2255 12.5141 44.189 12.6569 44.164 12.799C44.1431 12.9266 44.1187 13.0537 44.091 13.18C44.0782 13.2869 44.0661 13.3465 44.0661 13.358L43.5769 11.5268C43.5769 11.5268 42.3655 7.64982 42.0472 6.61576C41.9864 6.42495 41.852 6.37757 41.6804 6.40126C41.2034 6.44928 40.2487 6.55621 39.7723 6.61576C39.5392 6.63945 39.5149 6.7579 39.5636 6.90068C40.0656 8.34005 42.5371 15.3442 42.5371 15.3442H43.1485C43.096 15.4535 43.0471 15.5645 43.0019 15.6771C42.9696 15.7622 42.9329 15.8456 42.8918 15.9268C42.8553 15.9985 42.8182 16.0696 42.7695 16.1407C42.7222 16.2238 42.6689 16.3034 42.6101 16.3789C42.4259 16.6589 42.194 16.9045 41.925 17.1043C41.7418 17.2349 41.5088 17.3419 41.2398 17.4373C41.0567 17.4968 40.8851 17.5564 40.7142 17.6037C40.5182 17.6633 40.4939 17.8176 40.5669 17.9604C40.7263 18.2575 40.9959 18.7332 41.1419 19.0066C41.2277 19.1616 41.3871 19.1974 41.5337 19.1731C41.852 19.1142 42.1574 19.0309 42.4634 18.9355C42.8314 18.8074 43.181 18.6315 43.5033 18.4124C43.6749 18.2933 43.8337 18.1627 43.9809 17.9962C44.1275 17.8298 44.2626 17.6396 44.4093 17.4136C44.5437 17.1875 44.691 16.9141 44.837 16.6049C44.9842 16.2835 45.1309 15.9153 45.2897 15.4869C45.2897 15.4869 48.0064 8.26834 48.5571 6.78223C48.6544 6.52035 48.5078 6.50819 48.349 6.50819ZM57.6479 3.34517H55.5797C55.3351 3.34517 55.298 3.41688 55.298 3.61857V8.0071H51.6772V3.61857C51.6772 3.36886 51.5555 3.33364 51.3103 3.34517H49.4631C49.1941 3.34517 49.157 3.4284 49.157 3.63073V15.0708C49.157 15.2846 49.255 15.3442 49.3894 15.3442H51.3961C51.5434 15.3442 51.665 15.3083 51.665 15.0823V9.99263H55.2871V15.0701C55.2871 15.2609 55.4088 15.3442 55.5688 15.3442H57.6114C57.783 15.3442 57.8566 15.2488 57.8566 15.0823V3.61857C57.8809 3.39255 57.8073 3.34517 57.6485 3.34517H57.6479ZM72.3911 6.33019C72.2459 6.30328 72.0983 6.29126 71.9506 6.29433C71.4858 6.29433 71.0824 6.42495 70.7149 6.67466C70.359 6.91987 70.0416 7.21657 69.773 7.55506C69.7365 7.07932 69.6136 6.66314 69.3939 6.29433L67.2157 6.84114C67.3136 7.09085 67.3994 7.4366 67.4603 7.87584C67.5217 8.31636 67.5582 8.82731 67.5582 9.43366V15.0823C67.5582 15.2014 67.6197 15.3448 67.815 15.3448H69.7115C69.871 15.3448 69.9804 15.2968 69.9804 15.0823V9.08919C70.4338 8.58976 70.923 8.35158 71.4614 8.35158C71.5837 8.35158 71.706 8.35158 71.8283 8.37527C72.0486 8.41112 72.1958 8.44698 72.2688 8.1851C72.3911 7.8163 72.5871 7.20994 72.7094 6.82961C72.8438 6.52035 72.6729 6.40126 72.3911 6.33019ZM74.5322 2.64341C74.1045 2.64341 73.7492 2.78619 73.4559 3.0596C73.3137 3.18881 73.2008 3.34699 73.1248 3.52347C73.0489 3.69996 73.0115 3.89067 73.0154 4.08278C73.0154 4.4868 73.1627 4.81975 73.4559 5.10532C73.7492 5.37872 74.0917 5.5215 74.5079 5.5215C74.9363 5.5215 75.291 5.37872 75.5727 5.10532C75.866 4.83191 76.0132 4.4868 76.0132 4.08278C76.0132 3.67811 75.866 3.34517 75.5842 3.0596C75.291 2.77467 74.9484 2.64341 74.5322 2.64341ZM75.4863 6.33019C75.0221 6.40126 73.9944 6.55621 73.5168 6.62728C73.2965 6.66314 73.2843 6.73421 73.2843 6.86547V15.0944C73.2843 15.2846 73.4066 15.332 73.5417 15.332H75.4991C75.6707 15.332 75.7072 15.2846 75.7072 15.1066V6.52035C75.7072 6.31802 75.6335 6.3065 75.4869 6.33019H75.4863ZM81.9839 13.965C81.9474 13.81 81.788 13.81 81.69 13.8337C81.5799 13.8574 81.4947 13.8817 81.4211 13.8933C81.3046 13.9199 81.1858 13.9358 81.0664 13.9406C80.6374 13.9406 80.3563 13.8459 80.2218 13.6557C80.0874 13.4656 80.0138 13.0846 80.0138 12.5256V8.09034H81.5677C81.5677 8.09034 81.8859 7.28165 82.0575 6.81745C82.1427 6.56773 81.9961 6.50819 81.8616 6.50819H80.0138C80.0138 6.05678 80.0266 5.60474 80.0509 5.14117C80.0631 4.8556 80.0874 4.5822 80.1117 4.32032C80.161 3.89197 79.8428 3.92783 79.6469 3.96368C78.9253 4.13016 77.6895 4.42725 77.6895 4.42725C77.6402 4.7602 77.6159 5.08163 77.6037 5.39088C77.5909 5.6995 77.5909 6.08047 77.5909 6.50819H76.6612V8.1025H77.5915V12.9066C77.5915 13.1083 77.5915 13.2869 77.6037 13.4175C77.6037 13.5488 77.6159 13.6672 77.6159 13.7505C77.6159 13.8459 77.6402 13.9291 77.6645 14.0124C77.6895 14.0956 77.7138 14.1788 77.7503 14.2742C77.8976 14.6661 78.1909 14.9754 78.6435 15.2135C79.0962 15.4511 79.6347 15.5702 80.2462 15.5702C80.834 15.5702 81.4333 15.4633 82.0454 15.2372C82.1305 15.2014 82.2042 15.1418 82.1798 14.999C82.1549 14.7256 82.0454 14.2384 81.9839 13.965ZM90.2552 13.9528C90.145 13.8222 90.0471 13.6794 89.9978 13.5245C89.9355 13.3689 89.8983 13.2044 89.8876 13.0372C89.8755 12.8586 89.8755 12.6447 89.8755 12.4072L89.9248 9.43366V8.83947C89.9248 8.673 89.912 8.54174 89.9004 8.42329C89.8876 8.30419 89.8633 8.20879 89.8511 8.12555C89.8337 8.0352 89.8049 7.94742 89.7653 7.86432C89.5822 7.36489 89.2397 6.98392 88.7255 6.72268C88.2114 6.46081 87.5634 6.33019 86.7803 6.33019C86.3513 6.33019 85.9479 6.36604 85.5446 6.44928C85.1412 6.53252 84.7122 6.66314 84.2473 6.84114C83.9169 6.9724 83.648 7.07932 83.4278 7.18689C83.3055 7.2458 83.1704 7.31687 83.0359 7.38858C82.8157 7.5192 82.8406 7.68568 82.9015 7.82846C83.0852 8.12555 83.3906 8.61345 83.5866 8.93424C83.7338 9.14873 83.8926 9.1244 84.0764 9.04117C84.4676 8.81578 84.8466 8.62498 85.202 8.49436C85.6547 8.31636 86.0702 8.23312 86.4499 8.23312C86.9026 8.23312 87.1837 8.32788 87.331 8.51805C87.4654 8.70822 87.5384 9.05333 87.5384 9.54123V9.89787C87.4411 9.8857 87.3553 9.8857 87.2695 9.8857H86.9878C85.5074 9.8857 84.3818 10.1354 83.648 10.6233C82.9015 11.1106 82.5339 11.8834 82.5339 12.9303C82.5339 13.8222 82.8035 14.4996 83.3541 14.9754C83.892 15.4511 84.6879 15.6893 85.7277 15.6893C86.4986 15.6893 87.1229 15.5228 87.5999 15.2014C87.6978 15.1418 87.7958 15.0708 87.8816 14.999C87.9668 14.9158 88.0647 14.8326 88.1627 14.7378C88.285 14.9638 88.4566 15.1777 88.7005 15.3563C88.8356 15.4633 88.9823 15.558 89.1417 15.6413C89.3741 15.7725 89.5451 15.7245 89.7288 15.5343C89.9734 15.2731 90.3531 14.8684 90.5612 14.6072C90.6464 14.4996 90.6957 14.3447 90.5362 14.2262C90.4364 14.1414 90.3423 14.05 90.2545 13.9528H90.2552ZM87.4533 13.3823C87.2815 13.567 87.0784 13.7198 86.8533 13.8337C86.6442 13.9367 86.4141 13.9898 86.181 13.9887C85.8628 13.9887 85.6054 13.8817 85.4095 13.6672C85.2142 13.4534 85.1162 13.18 85.1162 12.8349C85.1162 12.2996 85.2872 11.943 85.6175 11.7649C85.9479 11.5863 86.5357 11.4909 87.3796 11.4909H87.4898L87.4533 13.3823ZM98.9298 8.12555C99.2723 8.12555 99.5662 8.07817 99.8351 7.97124C100.019 7.89953 100.215 7.7926 100.41 7.64982C100.57 7.54289 100.582 7.36489 100.472 7.22211C100.3 6.98392 100.055 6.61576 99.8595 6.34171C99.725 6.11633 99.6034 6.05678 99.3581 6.21109C99.15 6.35388 98.9419 6.47297 98.7095 6.56773C98.3907 6.69746 98.0504 6.76609 97.7062 6.77006C97.5474 6.77006 97.388 6.7579 97.2048 6.72268C97.0332 6.68683 96.813 6.63945 96.5562 6.5799C96.2616 6.50565 95.9635 6.44603 95.663 6.40126C95.4034 6.36734 95.1418 6.35151 94.88 6.35388C94.2928 6.35388 93.7543 6.42495 93.2651 6.56773C92.7753 6.71052 92.3719 6.91285 92.0294 7.17473C91.6987 7.42248 91.4305 7.74415 91.2463 8.11403C91.0574 8.49449 90.9609 8.91414 90.9646 9.3389C90.9646 10.647 91.6254 11.4672 92.9591 11.7886C92.5672 11.8834 92.2612 11.9788 92.0416 12.0979C91.8213 12.2164 91.6497 12.3354 91.5396 12.4545C91.4294 12.5852 91.3436 12.7158 91.3071 12.847C91.2722 12.9829 91.2558 13.1229 91.2585 13.2632C91.2585 13.5603 91.3193 13.81 91.4538 14.0002C91.5767 14.1904 91.7477 14.3331 91.9679 14.4164C92.3963 14.595 93.1301 14.6783 94.1948 14.6904L95.2225 14.702C95.6995 14.7141 96.1157 14.7852 96.4339 14.9401C96.7643 15.0823 96.9231 15.3563 96.9231 15.7603C96.9231 15.939 96.8745 16.117 96.7643 16.2719C96.6473 16.4328 96.497 16.5666 96.3238 16.6644C96.1279 16.7829 95.9076 16.8546 95.6509 16.902C95.3941 16.9378 95.113 16.9615 94.7942 16.9615C94.2313 16.9615 93.7908 16.8661 93.4976 16.6881C93.2037 16.5095 93.0571 16.2361 93.0571 15.8794C93.0571 15.7488 93.0571 15.6534 93.0692 15.5823C93.0814 15.5106 93.1057 15.2846 92.8855 15.3083H90.9031C90.8477 15.4163 90.7987 15.5275 90.7565 15.6413C90.7078 15.7725 90.6835 15.9627 90.6835 16.2002C90.6835 16.7951 90.9396 17.3182 91.4416 17.7702C91.8706 18.139 92.3956 18.3887 93.0199 18.5193C93.6442 18.65 94.2928 18.7217 94.9536 18.7217C95.6752 18.7217 96.3725 18.6384 97.0217 18.4598C97.6697 18.2818 98.2082 17.9962 98.6115 17.58C99.1014 17.0685 99.3581 16.4621 99.3581 15.7488C99.3581 14.9638 99.0892 14.3338 98.5629 13.8696C98.2382 13.5851 97.8534 13.3778 97.4373 13.2632C97.0089 13.1441 96.4583 13.0846 95.7488 13.0731L94.4394 13.0609C94.1705 13.0609 94.0361 12.9898 94.0361 12.8586C94.0361 12.7279 94.1212 12.6088 94.2806 12.5019C94.4394 12.395 94.684 12.2644 95.0023 12.1331C95.1002 12.1453 95.161 12.1453 95.1982 12.1453H95.357C95.8468 12.1453 96.311 12.0742 96.7272 11.943C97.1434 11.8123 97.5103 11.6337 97.8163 11.3961C98.1224 11.1701 98.367 10.8846 98.5264 10.5638C98.6981 10.2376 98.7861 9.87394 98.7825 9.50537C98.7825 9.20764 98.7338 8.9464 98.648 8.70822C98.5508 8.46942 98.4145 8.24848 98.2447 8.05448C98.3183 8.06601 98.4163 8.07817 98.5264 8.09034C98.6852 8.12555 98.8075 8.12555 98.9298 8.12555ZM94.8435 10.6112C94.4145 10.6112 94.0726 10.5157 93.8152 10.3141C93.5462 10.1239 93.4118 9.79094 93.4118 9.35042C93.4118 8.93424 93.5341 8.61345 93.7908 8.38743C94.0482 8.16141 94.4029 8.04232 94.8556 8.04232C95.3205 8.04232 95.6752 8.16141 95.9319 8.38743C96.1893 8.61345 96.3238 8.93424 96.3238 9.35042C96.336 10.195 95.8346 10.6118 94.8435 10.6118V10.6112ZM107.544 11.6459C107.972 11.6459 107.91 11.1106 107.91 11.1106C107.91 10.1828 107.812 9.40997 107.617 8.79145C107.437 8.20831 107.118 7.6778 106.687 7.2458C106.381 6.94871 106.002 6.72268 105.525 6.55621C105.048 6.38973 104.546 6.31802 104.007 6.31802C103.396 6.31802 102.845 6.41342 102.38 6.61576C101.903 6.80592 101.475 7.11518 101.095 7.50768C100.69 7.92968 100.384 8.43762 100.202 8.99378C100.019 9.54123 99.9331 10.2187 99.9331 11.0158C99.9331 11.7054 100.031 12.3354 100.239 12.8944C100.447 13.4534 100.741 13.9406 101.12 14.3331C101.513 14.7334 101.983 15.0491 102.503 15.2609C103.04 15.4748 103.653 15.5939 104.313 15.5939C105.513 15.5939 106.602 15.2372 107.604 14.5239C107.752 14.4279 107.776 14.2858 107.666 14.1551C107.507 13.917 107.225 13.5129 107.054 13.2511C106.907 13.0135 106.748 13.0731 106.625 13.1678C105.953 13.632 105.243 13.8696 104.509 13.8696C103.885 13.8696 103.396 13.6909 103.065 13.3228C102.723 12.954 102.564 12.4308 102.564 11.7285V11.658C102.551 11.6452 106.332 11.6452 107.544 11.6452V11.6459ZM102.588 9.92156C102.588 9.30304 102.711 8.82731 102.967 8.49436C103.224 8.16141 103.58 8.0071 104.032 8.0071C104.509 8.0071 104.865 8.1851 105.096 8.53022C105.207 8.69669 105.28 8.87469 105.329 9.0655C105.366 9.25566 105.39 9.52906 105.39 9.86201V9.96894H102.576V9.92156H102.588H102.588ZM66.359 8.79145C66.1792 8.20838 65.8601 7.67787 65.4293 7.2458C65.1232 6.94871 64.7442 6.72268 64.2672 6.55621C63.7901 6.38973 63.2882 6.31802 62.7497 6.31802C62.1382 6.31802 61.5876 6.41342 61.1227 6.61576C60.645 6.80592 60.2173 7.11518 59.8376 7.50768C59.4321 7.92968 59.1268 8.43762 58.9444 8.99378C58.7613 9.54123 58.6755 10.2187 58.6755 11.0158C58.6755 11.7054 58.7735 12.3354 58.9816 12.8944C59.189 13.4534 59.4829 13.9406 59.862 14.3331C60.2549 14.7335 60.7256 15.0492 61.245 15.2609C61.7828 15.4748 62.395 15.5939 63.0557 15.5939C64.255 15.5939 65.3435 15.2372 66.3468 14.5239C66.4941 14.4279 66.5184 14.2858 66.4083 14.1551C66.2488 13.917 65.9678 13.5129 65.7962 13.2511C65.6495 13.0135 65.4907 13.0731 65.3685 13.1678C64.6955 13.632 63.9854 13.8696 63.2517 13.8696C62.6274 13.8696 62.1376 13.6909 61.8078 13.3228C61.4653 12.954 61.3058 12.4308 61.3058 11.7285V11.658H66.2981C66.7265 11.658 66.665 11.1227 66.665 11.1227C66.665 10.1828 66.5671 9.40997 66.359 8.79209V8.79145ZM64.1449 9.95678H61.3308V9.92156C61.3308 9.30304 61.4524 8.82731 61.7098 8.49436C61.9666 8.16141 62.3213 8.0071 62.774 8.0071C63.2517 8.0071 63.6064 8.1851 63.8388 8.53022C63.9489 8.69669 64.0226 8.87469 64.0712 9.0655C64.1077 9.25566 64.1327 9.52906 64.1327 9.86201V9.95742H64.1449V9.95678ZM13.9674 0.658518C18.4821 0.919755 22.0549 4.7967 22.0549 9.24478C22.0549 13.6916 18.4821 17.5807 13.9674 17.8304C20.5009 18.3894 24.5386 13.9535 24.5386 9.24414C24.5386 4.54699 20.5131 0.111072 13.9674 0.657878V0.658518ZM3.46927 9.25566C3.46991 4.80822 7.04272 0.919115 11.5567 0.669403C5.09624 0.086741 0.985596 4.54635 0.985596 9.25566C0.985596 13.965 5.19485 18.5078 11.5567 17.8419C7.04272 17.5794 3.46991 13.7025 3.46991 9.25566H3.46927ZM21.3576 9.25566C21.3083 4.64175 17.5031 0.895424 12.756 0.895424C8.00891 0.895424 4.16655 4.64111 4.16655 9.25566C4.16655 13.2869 7.10354 16.6523 10.9939 17.4129C12.2912 17.6626 12.4749 14.4522 12.1196 12.3118C12.1074 12.3118 11.7283 12.2881 11.5939 12.2881C11.325 12.2759 11.0797 12.5736 10.9088 12.6325C10.627 12.7279 10.5784 12.4661 10.3825 12.4661C10.2109 12.4661 9.96627 12.7279 9.31766 12.6088C8.65688 12.4904 8.44943 11.9077 8.44943 11.9077L8.2535 11.8117C7.58056 11.6452 7.54406 10.9441 7.54406 10.8961C7.50693 10.5516 8.13121 10.2904 7.96025 10.1828C7.20087 9.71923 7.4461 9.35042 7.45826 9.32673C7.55623 9.07702 7.92311 8.54174 7.78865 8.4585C7.42113 8.23312 8.03324 6.88916 8.55956 6.52035C8.64472 6.092 9.11021 5.40241 9.56289 5.25963C9.53792 4.78389 10.2352 4.51049 10.2352 4.51049C10.725 4.35618 10.3825 3.97521 11.3122 4.03476C11.5324 4.04692 11.5203 3.80873 12.0587 3.79721C12.2175 3.79721 12.3891 3.67811 12.8661 3.67811C13.6985 3.64226 13.6614 4.1897 13.9431 4.0943C14.2978 3.97521 15.4721 4.53418 15.595 5.6995C16.1207 5.66429 17.5159 7.1504 17.4788 8.24465C18.3963 9.2435 17.1484 10.1828 17.0997 10.3736C17.1362 10.4805 17.32 10.9326 17.247 11.2771C17.1605 11.6932 16.6227 12.1331 16.5977 12.1574C16.2187 12.4187 15.9498 12.7158 15.4964 12.6325C15.0316 12.5493 15.1174 12.1331 14.9829 12.0384C14.8055 12.1953 14.5977 12.3142 14.3725 12.3878C14.1473 12.4613 13.9094 12.488 13.6735 12.4661C13.5597 12.4509 13.4455 12.4392 13.331 12.4308C13.0621 14.0002 13.0986 17.5083 14.2364 17.5083C17.6747 16.9737 21.4063 13.739 21.3576 9.25502V9.25566Z" fill="#333333" />
    </g>
    <defs>
        <clipPath id="clip0_2532_24506">
            <rect width="106.928" height="18.5683" fill="white" transform="translate(0.985596 0.611572)" />
        </clipPath>
    </defs>
</svg>